<svg width="2320" height="2540" viewBox="0 0 2320 2540" fill="none" xmlns="http://www.w3.org/2000/svg">
<rect x="314.5" y="76.5" width="1751" height="1751" fill="white"/>
<rect x="314.5" y="76.5" width="1751" height="1751" stroke="black"/>
<path d="M983.24 157.321C1210.32 230.636 1424.39 364.144 1600.44 542.318C1776.49 720.492 1907.18 935.905 1977.32 1163.38C2046.95 1389.23 2054.02 1617.63 1997.97 1822.34L317.059 1812.11L322.737 126.911C528.861 74.0808 757.795 84.5318 983.24 157.321Z" fill="white" stroke="black" stroke-width="12"/>
<g clip-path="url(#clip0_409_1672)">
<rect x="954.529" y="931.322" width="384" height="384" rx="192" transform="rotate(45 954.529 931.322)" fill="white"/>
<g clip-path="url(#clip1_409_1672)">
<path d="M872.278 1211.11L1021.65 1232.53C1025.86 1233.05 1030.12 1232.67 1034.17 1231.41C1038.22 1230.16 1041.95 1228.06 1045.13 1225.25C1048.3 1222.45 1050.84 1219 1052.58 1215.14C1054.32 1211.28 1055.22 1207.09 1055.22 1202.85C1055.22 1198.61 1054.32 1194.43 1052.58 1190.56C1050.84 1186.7 1048.3 1183.25 1045.13 1180.45C1041.96 1177.64 1038.22 1175.54 1034.18 1174.29C1030.13 1173.03 1025.86 1172.65 1021.66 1173.17L872.272 1194.6" stroke="black" stroke-width="12" stroke-linejoin="round"/>
<path d="M914.932 1219.82V1185.88M862.521 1222.2C882.738 1218.98 882.885 1186.77 862.509 1183.52C862.075 1183.45 861.63 1183.47 861.206 1183.59C860.782 1183.71 860.388 1183.92 860.053 1184.21C859.718 1184.49 859.449 1184.85 859.265 1185.25C859.08 1185.65 858.985 1186.08 858.985 1186.52L858.997 1219.19C858.997 1221.06 860.671 1222.49 862.521 1222.2Z" stroke="black" stroke-width="12" stroke-linejoin="round"/>
<path d="M940.388 1290.53C932.577 1282.72 932.577 1270.06 940.388 1262.25C948.198 1254.44 960.861 1254.44 968.672 1262.25C976.482 1270.06 976.482 1282.72 968.672 1290.53C960.861 1298.34 948.198 1298.34 940.388 1290.53Z" stroke="black" stroke-width="12" stroke-linejoin="round"/>
</g>
</g>
<rect x="954.529" y="935.565" width="378" height="378" rx="189" transform="rotate(45 954.529 935.565)" stroke="#D9D9D9" stroke-width="6"/>
<path d="M828.736 645.724L902.789 571.671L932.439 601.321C937.887 606.769 941.624 612.12 943.649 617.376C945.674 622.631 946.168 627.609 945.131 632.309C944.119 636.986 941.756 641.18 938.044 644.893C935.151 647.785 932.03 649.75 928.679 650.786C925.352 651.799 921.978 651.992 918.554 651.365C915.18 650.738 911.913 649.424 908.755 647.424L908.032 648.147C910.732 651.088 912.576 654.523 913.565 658.452C914.577 662.405 914.529 666.479 913.42 670.674C912.335 674.844 909.973 678.749 906.333 682.389C902.404 686.319 897.92 688.85 892.882 689.983C887.892 691.116 882.613 690.682 877.044 688.681C871.476 686.68 865.919 682.908 860.375 677.363L828.736 645.724ZM857.193 648.581L869.957 661.345C874.32 665.708 878.334 668.058 881.998 668.396C885.686 668.709 888.928 667.468 891.725 664.671C893.774 662.622 895.087 660.32 895.666 657.765C896.244 655.21 896.064 652.57 895.124 649.846C894.207 647.146 892.496 644.543 889.989 642.036L876.863 628.91L857.193 648.581ZM887.458 618.316L899.065 629.923C901.21 632.068 903.488 633.599 905.899 634.515C908.358 635.431 910.768 635.672 913.131 635.238C915.517 634.828 917.687 633.647 919.639 631.695C922.315 629.019 923.52 625.909 923.255 622.366C923.014 618.846 921.158 615.351 917.687 611.879L905.79 599.983L887.458 618.316ZM910.554 729.64C907.011 726.096 904.468 722.324 902.925 718.322C901.406 714.296 901.057 710.259 901.876 706.209C902.744 702.159 905.01 698.302 908.674 694.638C911.76 691.553 914.917 689.528 918.148 688.563C921.378 687.599 924.608 687.455 927.838 688.129C931.068 688.804 934.25 690.058 937.384 691.89C940.542 693.746 943.628 695.916 946.641 698.399C950.209 701.291 953.125 703.581 955.391 705.269C957.681 706.932 959.574 707.908 961.068 708.198C962.563 708.487 963.901 708.041 965.082 706.86L965.299 706.643C967.589 704.353 968.638 701.858 968.445 699.158C968.276 696.482 966.878 693.831 964.25 691.203C961.478 688.431 958.658 686.84 955.789 686.43C952.945 685.996 950.341 686.43 947.979 687.732L934.889 672.328C938.987 669.676 943.326 668.182 947.906 667.844C952.511 667.483 957.151 668.314 961.828 670.339C966.552 672.364 971.132 675.594 975.568 680.03C978.654 683.115 981.245 686.43 983.342 689.974C985.463 693.541 986.862 697.181 987.537 700.894C988.236 704.63 988.031 708.33 986.922 711.994C985.837 715.634 983.643 719.106 980.341 722.408L942.88 759.869L928.272 745.261L935.974 737.559L935.54 737.125C932.913 737.968 930.189 738.306 927.368 738.137C924.572 737.944 921.752 737.173 918.907 735.823C916.087 734.449 913.302 732.388 910.554 729.64ZM925.596 723.421C927.862 725.687 930.309 727.241 932.937 728.085C935.588 728.905 938.18 729.037 940.711 728.483C943.242 727.928 945.484 726.675 947.436 724.722L953.33 718.828C952.535 718.66 951.583 718.286 950.474 717.707C949.413 717.129 948.256 716.43 947.002 715.61C945.773 714.767 944.556 713.911 943.35 713.043C942.169 712.151 941.097 711.343 940.132 710.62C938.059 709.078 936.058 707.92 934.13 707.149C932.201 706.378 930.369 706.112 928.634 706.354C926.922 706.571 925.343 707.402 923.897 708.849C921.8 710.946 920.956 713.308 921.366 715.936C921.824 718.563 923.234 721.058 925.596 723.421ZM1040.74 778.328L1025.77 765.094C1026.74 763.647 1027.31 762.044 1027.47 760.285C1027.67 758.501 1027.4 756.669 1026.68 754.788C1026 752.908 1024.77 751.076 1022.99 749.292C1020.6 746.906 1018.08 745.399 1015.43 744.772C1012.81 744.122 1010.66 744.628 1009 746.291C1007.67 747.617 1007.08 749.268 1007.23 751.245C1007.37 753.221 1008.45 755.777 1010.48 758.91L1018.51 770.988C1022.8 777.496 1025.04 783.306 1025.23 788.416C1025.43 793.527 1023.52 798.083 1019.52 802.084C1015.88 805.724 1011.61 807.846 1006.72 808.448C1001.85 809.075 996.787 808.304 991.532 806.134C986.325 803.964 981.311 800.469 976.49 795.648C969.138 788.296 964.811 780.907 963.509 773.483C962.255 766.058 963.907 759.32 968.463 753.27L984.409 767.625C982.625 770.325 982.022 773.145 982.601 776.086C983.204 779.003 984.879 781.835 987.627 784.583C990.327 787.283 993.015 788.934 995.69 789.537C998.414 790.14 1000.62 789.621 1002.31 787.982C1003.68 786.56 1004.24 784.824 1003.97 782.775C1003.73 780.702 1002.64 778.219 1000.72 775.327L993.015 763.792C988.676 757.283 986.518 751.365 986.542 746.038C986.59 740.735 988.688 736.01 992.834 731.864C996.402 728.296 1000.44 726.187 1004.95 725.536C1009.48 724.909 1014.2 725.656 1019.12 727.778C1024.06 729.923 1028.91 733.37 1033.66 738.119C1040.67 745.134 1044.71 752.137 1045.77 759.127C1046.86 766.142 1045.18 772.542 1040.74 778.328ZM1036.23 855.391C1030.52 849.678 1026.76 843.604 1024.95 837.167C1023.19 830.731 1023.34 824.271 1025.39 817.786C1027.46 811.278 1031.42 805.094 1037.28 799.237C1043 793.524 1049.12 789.618 1055.65 787.521C1062.18 785.424 1068.67 785.183 1075.1 786.798C1081.56 788.437 1087.52 791.981 1092.97 797.429C1096.63 801.093 1099.45 805.094 1101.43 809.433C1103.45 813.773 1104.48 818.292 1104.5 822.993C1104.55 827.718 1103.46 832.515 1101.25 837.384C1099.05 842.23 1095.59 847.015 1090.87 851.739L1086.64 855.97L1039.74 809.072L1049.29 799.526L1081.69 831.924C1083.9 829.707 1085.39 827.26 1086.13 824.584C1086.88 821.908 1086.88 819.233 1086.13 816.557C1085.43 813.881 1083.96 811.422 1081.72 809.18C1079.38 806.842 1076.77 805.311 1073.87 804.588C1071.03 803.865 1068.2 803.901 1065.38 804.697C1062.58 805.468 1060.07 806.939 1057.86 809.108L1048.78 818.184C1046.03 820.932 1044.16 823.813 1043.18 826.826C1042.21 829.863 1042.13 832.864 1042.92 835.829C1043.72 838.794 1045.41 841.567 1047.99 844.146C1049.7 845.858 1051.5 847.183 1053.41 848.123C1055.31 849.064 1057.25 849.558 1059.23 849.606C1061.21 849.654 1063.16 849.244 1065.09 848.377L1078.39 863.563C1074.25 866.263 1069.78 867.77 1064.98 868.083C1060.23 868.397 1055.39 867.505 1050.44 865.407C1045.55 863.31 1040.81 859.972 1036.23 855.391ZM1073.15 890.14L1147.21 816.087L1162.61 831.49L1134.77 859.333L1135.24 859.803C1137.41 858.983 1139.9 858.441 1142.72 858.176C1145.59 857.91 1148.58 858.296 1151.69 859.333C1154.85 860.369 1157.98 862.442 1161.09 865.552C1165.14 869.602 1167.82 874.399 1169.12 879.943C1170.44 885.464 1170.01 891.37 1167.82 897.661C1165.65 903.929 1161.38 910.244 1155.02 916.608C1148.82 922.804 1142.59 927.034 1136.32 929.3C1130.1 931.566 1124.18 932.084 1118.57 930.855C1113 929.626 1108.11 926.902 1103.89 922.683C1100.9 919.694 1098.85 916.657 1097.74 913.571C1096.66 910.51 1096.2 907.569 1096.37 904.748C1096.56 901.904 1097.08 899.361 1097.92 897.119L1097.23 896.432L1088.34 905.327L1073.15 890.14ZM1116 877.448C1112.7 880.751 1110.27 884.09 1108.73 887.464C1107.19 890.839 1106.6 894.081 1106.96 897.191C1107.35 900.277 1108.78 903.061 1111.26 905.544C1113.77 908.051 1116.58 909.485 1119.69 909.847C1122.82 910.184 1126.06 909.569 1129.41 908.003C1132.81 906.436 1136.13 904.037 1139.36 900.807C1142.56 897.601 1144.94 894.335 1146.48 891.008C1148.02 887.681 1148.62 884.463 1148.25 881.354C1147.89 878.244 1146.45 875.423 1143.91 872.892C1141.41 870.385 1138.62 868.927 1135.56 868.517C1132.52 868.131 1129.33 868.698 1125.98 870.217C1122.63 871.735 1119.3 874.146 1116 877.448ZM1152.38 971.47C1148.84 967.927 1146.3 964.154 1144.76 960.153C1143.24 956.127 1142.89 952.089 1143.71 948.04C1144.57 943.99 1146.84 940.133 1150.5 936.469C1153.59 933.383 1156.75 931.358 1159.98 930.394C1163.21 929.43 1166.44 929.285 1169.67 929.96C1172.9 930.635 1176.08 931.889 1179.21 933.721C1182.37 935.577 1185.46 937.746 1188.47 940.229C1192.04 943.122 1194.96 945.412 1197.22 947.099C1199.51 948.763 1201.4 949.739 1202.9 950.028C1204.39 950.318 1205.73 949.872 1206.91 948.69L1207.13 948.473C1209.42 946.183 1210.47 943.688 1210.28 940.989C1210.11 938.313 1208.71 935.661 1206.08 933.034C1203.31 930.261 1200.49 928.67 1197.62 928.261C1194.78 927.827 1192.17 928.261 1189.81 929.562L1176.72 914.159C1180.82 911.507 1185.16 910.012 1189.74 909.675C1194.34 909.313 1198.98 910.145 1203.66 912.17C1208.38 914.195 1212.96 917.425 1217.4 921.86C1220.48 924.946 1223.08 928.261 1225.17 931.804C1227.29 935.372 1228.69 939.012 1229.37 942.724C1230.07 946.461 1229.86 950.161 1228.75 953.825C1227.67 957.465 1225.47 960.936 1222.17 964.239L1184.71 1001.7L1170.1 987.091L1177.8 979.389L1177.37 978.955C1174.74 979.799 1172.02 980.137 1169.2 979.968C1166.4 979.775 1163.58 979.004 1160.74 977.654C1157.92 976.28 1155.13 974.219 1152.38 971.47ZM1167.43 965.251C1169.69 967.517 1172.14 969.072 1174.77 969.916C1177.42 970.735 1180.01 970.868 1182.54 970.313C1185.07 969.759 1187.31 968.505 1189.27 966.553L1195.16 960.659C1194.37 960.49 1193.41 960.117 1192.3 959.538C1191.24 958.96 1190.09 958.26 1188.83 957.441C1187.6 956.597 1186.39 955.741 1185.18 954.874C1184 953.982 1182.93 953.174 1181.96 952.451C1179.89 950.908 1177.89 949.751 1175.96 948.98C1174.03 948.208 1172.2 947.943 1170.46 948.184C1168.75 948.401 1167.17 949.233 1165.73 950.679C1163.63 952.776 1162.79 955.139 1163.2 957.766C1163.65 960.394 1165.06 962.889 1167.43 965.251ZM1286.12 955L1212.07 1029.05L1196.66 1013.65L1270.71 939.596L1286.12 955ZM1313.86 982.743L1239.81 1056.8L1224.4 1041.39L1298.46 967.339L1313.86 982.743ZM1276 1092.99L1350.06 1018.94L1399.09 1067.97L1386.18 1080.88L1352.8 1047.5L1335.16 1065.15L1365.28 1095.27L1352.37 1108.18L1322.25 1078.06L1291.66 1108.65L1276 1092.99ZM1335.28 1152.26L1390.82 1096.72L1406.22 1112.13L1350.68 1167.67L1335.28 1152.26ZM1405.71 1097.3C1403.42 1095.01 1402.22 1092.29 1402.1 1089.13C1402.03 1085.97 1403.06 1083.32 1405.21 1081.18C1407.33 1079.06 1409.96 1078.04 1413.09 1078.14C1416.27 1078.24 1419.01 1079.43 1421.3 1081.72C1423.59 1084.01 1424.77 1086.73 1424.84 1089.89C1424.96 1093.05 1423.96 1095.69 1421.84 1097.81C1419.7 1099.96 1417.03 1100.98 1413.85 1100.88C1410.72 1100.79 1408 1099.59 1405.71 1097.3ZM1387.25 1206.4C1381.53 1200.69 1377.77 1194.62 1375.96 1188.18C1374.2 1181.74 1374.35 1175.28 1376.4 1168.8C1378.47 1162.29 1382.44 1156.11 1388.29 1150.25C1394.01 1144.54 1400.13 1140.63 1406.66 1138.53C1413.2 1136.44 1419.68 1136.2 1426.12 1137.81C1432.58 1139.45 1438.53 1142.99 1443.98 1148.44C1447.64 1152.11 1450.46 1156.11 1452.44 1160.45C1454.47 1164.78 1455.49 1169.3 1455.51 1174.01C1455.56 1178.73 1454.48 1183.53 1452.26 1188.4C1450.07 1193.24 1446.61 1198.03 1441.88 1202.75L1437.65 1206.98L1390.75 1160.08L1400.3 1150.54L1432.7 1182.94C1434.92 1180.72 1436.4 1178.27 1437.15 1175.6C1437.89 1172.92 1437.89 1170.24 1437.15 1167.57C1436.45 1164.89 1434.98 1162.43 1432.73 1160.19C1430.4 1157.85 1427.78 1156.32 1424.89 1155.6C1422.04 1154.88 1419.21 1154.91 1416.39 1155.71C1413.59 1156.48 1411.09 1157.95 1408.87 1160.12L1399.79 1169.2C1397.04 1171.94 1395.18 1174.83 1394.19 1177.84C1393.22 1180.88 1393.14 1183.88 1393.94 1186.84C1394.73 1189.81 1396.42 1192.58 1399 1195.16C1400.71 1196.87 1402.52 1198.2 1404.42 1199.14C1406.33 1200.08 1408.27 1200.57 1410.24 1200.62C1412.22 1200.67 1414.17 1200.26 1416.1 1199.39L1429.41 1214.58C1425.26 1217.28 1420.79 1218.78 1415.99 1219.1C1411.24 1219.41 1406.4 1218.52 1401.46 1216.42C1396.56 1214.32 1391.83 1210.98 1387.25 1206.4ZM1513.33 1182.21L1439.28 1256.27L1423.87 1240.86L1497.93 1166.81L1513.33 1182.21ZM1471.18 1289.98C1466.96 1285.76 1464.23 1280.85 1462.97 1275.26C1461.77 1269.67 1462.28 1263.75 1464.53 1257.51C1466.82 1251.26 1471.06 1245.04 1477.25 1238.85C1483.62 1232.48 1489.93 1228.22 1496.2 1226.05C1502.49 1223.85 1508.39 1223.41 1513.88 1224.71C1519.43 1226.01 1524.24 1228.7 1528.31 1232.77C1531.42 1235.88 1533.48 1239 1534.49 1242.14C1535.55 1245.27 1535.94 1248.26 1535.65 1251.11C1535.41 1253.95 1534.88 1256.46 1534.06 1258.63L1534.53 1259.1L1562.37 1231.25L1577.74 1246.62L1503.69 1320.67L1488.5 1305.49L1497.39 1296.59L1496.74 1295.94C1494.48 1296.76 1491.92 1297.27 1489.08 1297.46C1486.28 1297.65 1483.34 1297.2 1480.26 1296.09C1477.19 1295 1474.17 1292.97 1471.18 1289.98ZM1488.32 1282.6C1490.8 1285.08 1493.57 1286.5 1496.64 1286.87C1499.75 1287.23 1502.99 1286.64 1506.36 1285.09C1509.76 1283.58 1513.11 1281.17 1516.41 1277.86C1519.72 1274.56 1522.13 1271.23 1523.65 1267.88C1525.16 1264.53 1525.72 1261.33 1525.31 1258.26C1524.9 1255.2 1523.45 1252.43 1520.97 1249.95C1518.44 1247.42 1515.62 1245.97 1512.51 1245.61C1509.4 1245.25 1506.18 1245.84 1502.85 1247.38C1499.53 1248.92 1496.26 1251.3 1493.06 1254.5C1489.83 1257.73 1487.42 1261.04 1485.82 1264.41C1484.28 1267.79 1483.67 1271.03 1483.98 1274.14C1484.34 1277.25 1485.79 1280.07 1488.32 1282.6Z" fill="black"/>
<path d="M319.162 1510.14L631.184 1512.8V1819.34" stroke="black" stroke-width="12"/>
<path d="M747.946 1817.04C784.729 1757.06 797.024 1694.25 789.474 1624.99C781.925 1555.72 751.395 1491.18 702.657 1441.47C653.918 1391.76 589.717 1359.67 520.085 1350.22C450.454 1340.76 382.701 1351.12 321.172 1385.86" stroke="black" stroke-width="12"/>
<defs>
<clipPath id="clip0_409_1672">
<rect x="954.529" y="931.322" width="384" height="384" rx="192" transform="rotate(45 954.529 931.322)" fill="white"/>
</clipPath>
<clipPath id="clip1_409_1672">
<rect width="192" height="192" fill="white" transform="translate(954.529 1067.09) rotate(45)"/>
</clipPath>
</defs>
</svg>
