<svg width="1024" height="640" viewBox="0 0 1024 640" fill="none" xmlns="http://www.w3.org/2000/svg">
<g clip-path="url(#clip0_409_1709)">
<rect width="1023.24" height="639.48" fill="white"/>
<path d="M216.729 236.854L216.586 233.857C214.586 233.953 212.584 234 210.584 234C208.605 234 206.737 233.905 204.974 233.72L204.661 236.703V236.704C200.349 236.252 196.547 235.289 193.163 233.859L194.33 231.097C190.909 229.651 187.962 227.685 185.364 225.231L183.306 227.413C180.534 224.796 178.142 221.685 176.01 218.137L178.578 216.593C176.754 213.557 175.112 210.145 173.577 206.373L170.8 207.503C169.386 204.027 168.077 200.295 166.815 196.337L169.672 195.426C168.536 191.864 167.436 188.103 166.322 184.157L163.436 184.972V184.973C162.398 181.295 161.353 177.475 160.269 173.528L160.271 173.527L163.163 172.732C162.146 169.031 161.089 165.207 159.964 161.283L157.08 162.109L157.078 162.11C156.017 158.407 154.897 154.616 153.69 150.751V150.75L156.555 149.856C155.395 146.14 154.155 142.349 152.814 138.498L149.981 139.484V139.485C148.707 135.825 147.339 132.112 145.862 128.355L145.863 128.354L148.655 127.257C147.224 123.615 145.688 119.931 144.031 116.213L141.291 117.434L141.29 117.435C139.71 113.889 138.02 110.314 136.202 106.717V106.716L138.88 105.363C137.105 101.849 135.21 98.3136 133.182 94.7627L130.576 96.25V96.251C128.656 92.8886 126.612 89.5144 124.438 86.1318L124.439 86.1299L126.963 84.5078C124.84 81.2065 122.593 77.8983 120.209 74.5889L117.774 76.3418V76.3428C115.51 73.1995 113.121 70.0553 110.599 66.9141V66.9131L112.938 65.0342C110.481 61.9746 107.898 58.9191 105.182 55.8711L102.942 57.8662V57.8672C100.366 54.9763 97.6668 52.0926 94.8379 49.2188V49.2178L96.9756 47.1133C95.5721 45.6875 94.1372 44.2637 92.6699 42.8438C92.6166 42.7922 92.5609 42.7428 92.5039 42.6953C90.9472 41.398 89.4901 40.0688 88.1299 38.71L86.0117 40.8311C83.0032 37.8257 80.4285 34.6686 78.2617 31.3799L80.7666 29.7295C78.589 26.4243 76.8478 22.9841 75.5098 19.4307L72.7031 20.4873C71.2599 16.6545 70.2589 12.696 69.665 8.63965L72.6328 8.20508C72.0774 4.41072 71.8947 0.510226 72.0586 -3.47363L69.0615 -3.5957C69.2258 -7.59238 69.7252 -11.6518 70.5273 -15.751L73.4697 -15.1758C74.2123 -18.9703 75.2266 -22.8126 76.4912 -26.6826L73.6416 -27.6133C74.8845 -31.4171 76.3578 -35.2351 78.04 -39.0488L80.7842 -37.8389C82.373 -41.4408 84.1541 -45.0457 86.1094 -48.6367L83.4756 -50.0703C85.4005 -53.6056 87.4895 -57.1206 89.7197 -60.6035L92.2432 -58.9873C94.3901 -62.34 96.6732 -65.6648 99.0771 -68.9463L96.6611 -70.7158C99.0627 -73.994 101.579 -77.2285 104.196 -80.4043L106.509 -78.498C109.066 -81.6009 111.72 -84.6495 114.456 -87.6299L112.248 -89.6562C115.014 -92.6702 117.862 -95.6149 120.774 -98.4775L122.876 -96.3398C125.767 -99.1817 128.724 -101.942 131.729 -104.606L129.739 -106.851C132.821 -109.583 135.953 -112.217 139.119 -114.739L140.987 -112.395C144.187 -114.945 147.42 -117.378 150.668 -119.68L148.936 -122.124C152.33 -124.53 155.742 -126.797 159.153 -128.907L160.73 -126.357C164.23 -128.522 167.722 -130.518 171.185 -132.326L169.798 -134.981C173.541 -136.937 177.256 -138.684 180.917 -140.197L182.062 -137.427C185.897 -139.012 189.653 -140.329 193.3 -141.358L192.486 -144.244C196.61 -145.408 200.619 -146.22 204.47 -146.647L204.8 -143.668C206.786 -143.889 208.716 -144 210.584 -144C212.518 -144 214.3 -143.881 215.942 -143.652L216.355 -146.622C220.664 -146.023 224.236 -144.72 227.196 -142.78L225.552 -140.271C228.307 -138.467 230.487 -135.995 232.217 -132.834L234.849 -134.273C236.551 -131.163 237.812 -127.537 238.743 -123.458L235.818 -122.792C236.578 -119.465 237.116 -115.778 237.488 -111.752L240.476 -112.027C240.812 -108.389 241.012 -104.522 241.124 -100.452L238.125 -100.371C238.225 -96.7285 238.255 -92.9115 238.246 -88.9336L241.246 -88.9268C241.238 -85.1808 241.197 -81.3062 241.151 -77.3193L238.151 -77.3535C238.109 -73.6072 238.062 -69.75 238.036 -65.8066L241.036 -65.7871L241.038 -65.7861C241.013 -62.0046 241.006 -58.1439 241.04 -54.2158H241.038L238.039 -54.1904C238.072 -50.3688 238.143 -46.4786 238.271 -42.5332L241.269 -42.6299C241.392 -38.8299 241.569 -34.9809 241.816 -31.0928L238.822 -30.9033C239.067 -27.0629 239.381 -23.1808 239.78 -19.2676L242.765 -19.5723H242.767C243.155 -15.7702 243.626 -11.9412 244.193 -8.09375H244.19L241.223 -7.65625C241.788 -3.8242 242.449 0.0292532 243.221 3.89453L246.162 3.30664H246.166C246.916 7.06056 247.769 10.824 248.744 14.5879L245.839 15.3398C246.812 19.0951 247.904 22.8543 249.128 26.6084L251.981 25.6787C253.165 29.3086 254.473 32.9322 255.919 36.542H255.918L253.134 37.6582C254.577 41.26 256.156 44.8503 257.882 48.4209L260.582 47.1143H260.583C262.24 50.5418 264.036 53.95 265.98 57.333H265.979L263.378 58.8281C265.307 62.184 267.382 65.5156 269.61 68.8164L272.098 67.1377C274.22 70.2808 276.484 73.3964 278.902 76.4775L276.542 78.3291C277.703 79.8082 278.899 81.2783 280.13 82.7412C281.16 84.4623 282.155 86.1681 283.113 87.8584L285.723 86.3799C287.81 90.0605 289.733 93.6725 291.497 97.2158L288.812 98.5518C290.672 102.286 292.349 105.938 293.854 109.509L296.618 108.345C298.275 112.275 299.729 116.112 300.987 119.859L298.143 120.814C299.474 124.779 300.582 128.632 301.478 132.374L304.395 131.676C305.387 135.821 306.129 139.843 306.635 143.74L303.66 144.125C304.193 148.234 304.456 152.191 304.468 155.996L307.467 155.988C307.48 160.247 307.19 164.334 306.623 168.253L303.655 167.823C303.073 171.845 302.187 175.673 301.028 179.31L303.887 180.221C302.616 184.208 301.029 187.983 299.158 191.547L296.502 190.152C294.661 193.66 292.532 196.956 290.149 200.041L292.523 201.874C290.015 205.122 287.24 208.141 284.236 210.935L282.194 208.74C279.322 211.413 276.225 213.876 272.94 216.128L274.636 218.601C271.28 220.901 267.743 222.986 264.057 224.853L262.701 222.176C259.184 223.957 255.522 225.539 251.75 226.919L252.78 229.735C248.956 231.135 245.027 232.33 241.026 233.324L240.304 230.414C236.442 231.373 232.509 232.141 228.535 232.715L228.964 235.683C224.913 236.268 220.825 236.66 216.729 236.854L216.729 236.854Z" fill="#D9D9D9" fill-opacity="0.2" stroke="#C7C7C7" stroke-width="6" stroke-linejoin="round" stroke-dasharray="12 12"/>
<path d="M154.808 124.628C153.759 121.454 152.634 118.235 151.419 114.979L151.42 114.978L153.879 114.061C152.701 110.899 151.437 107.701 150.074 104.473L147.656 105.494L147.655 105.495C146.353 102.411 144.96 99.3011 143.463 96.1719V96.1709L145.832 95.0381C144.367 91.9758 142.803 88.8938 141.13 85.7988L138.821 87.0469L138.82 87.0479C137.23 84.1069 135.539 81.1551 133.739 78.1963L133.741 78.1943L135.984 76.8301C134.224 73.9373 132.36 71.0382 130.382 68.1377L128.213 69.6162L128.211 69.6182C126.329 66.8568 124.342 64.0947 122.243 61.335L122.245 61.332L124.333 59.7432C122.284 57.0479 120.129 54.3553 117.861 51.6699L115.855 53.3633L115.854 53.3652C113.698 50.8126 111.44 48.2651 109.071 45.7275V45.7266L110.99 43.9355C109.813 42.6753 108.61 41.4172 107.379 40.1621C107.334 40.1155 107.286 40.0704 107.237 40.0273C105.94 38.8889 104.728 37.7216 103.595 36.5283L101.692 38.3359C99.1993 35.7098 97.0668 32.9504 95.271 30.0771H95.27L97.4966 28.6865C95.7094 25.827 94.275 22.8491 93.1675 19.7725L90.6987 20.6611C89.5151 17.3728 88.6857 13.9785 88.1821 10.501L90.7788 10.125C90.3073 6.8684 90.1336 3.52214 90.2388 0.105469L87.6177 0.0253906C87.723 -3.39745 88.095 -6.87423 88.7124 -10.3857L91.2964 -9.93164C91.8716 -13.2036 92.6679 -16.517 93.6675 -19.8545L91.1548 -20.6064C92.1378 -23.8888 93.3089 -27.1846 94.6509 -30.4785L97.0806 -29.4893C98.3523 -32.6107 99.7826 -35.7358 101.356 -38.8506L99.0161 -40.0322C100.574 -43.1161 102.267 -46.185 104.08 -49.2266L106.332 -47.8838C108.076 -50.8112 109.936 -53.7154 111.896 -56.584L109.731 -58.0645C111.694 -60.9371 113.754 -63.7729 115.899 -66.5596L117.978 -64.959C120.079 -67.6878 122.262 -70.3705 124.514 -72.9951L122.523 -74.7031C124.805 -77.362 127.157 -79.9611 129.564 -82.4902L131.463 -80.6816C133.857 -83.1965 136.307 -85.641 138.799 -88.0029L136.996 -89.9062C139.556 -92.3331 142.161 -94.6747 144.796 -96.9189L146.497 -94.9219C149.161 -97.1907 151.854 -99.3574 154.562 -101.409L152.978 -103.5C155.822 -105.655 158.684 -107.687 161.545 -109.581L162.993 -107.394C165.924 -109.334 168.851 -111.125 171.754 -112.751L170.473 -115.04C173.638 -116.812 176.781 -118.395 179.879 -119.771L180.944 -117.373C184.188 -118.813 187.366 -120.012 190.449 -120.949L189.686 -123.459C193.205 -124.529 196.625 -125.279 199.908 -125.674L200.22 -123.068C201.912 -123.272 203.554 -123.375 205.141 -123.375C206.816 -123.375 208.35 -123.261 209.755 -123.043L210.157 -125.635C213.866 -125.06 216.911 -123.815 219.41 -121.967L217.849 -119.858C220.075 -118.212 221.848 -115.962 223.251 -113.074L225.612 -114.221C226.95 -111.468 227.937 -108.28 228.666 -104.709L226.096 -104.186C226.691 -101.268 227.11 -98.049 227.399 -94.5479L230.013 -94.7627C230.274 -91.5961 230.429 -88.2359 230.513 -84.7041L227.889 -84.6426C227.965 -81.4735 227.984 -78.1566 227.974 -74.7041L230.598 -74.6973C230.589 -71.4455 230.556 -68.0845 230.518 -64.6279L230.517 -64.6289L227.892 -64.6572C227.857 -61.4017 227.82 -58.0523 227.799 -54.6289L230.424 -54.6133L230.425 -54.6123C230.406 -51.328 230.405 -47.976 230.434 -44.5664H230.43L227.805 -44.5439C227.834 -41.2274 227.894 -37.8529 228 -34.4307L230.625 -34.5117C230.727 -31.2127 230.875 -27.8717 231.08 -24.4971H231.079L228.458 -24.3379C228.661 -21.0043 228.92 -17.6353 229.25 -14.2393L231.863 -14.4922H231.864C232.184 -11.1894 232.572 -7.86347 233.039 -4.52148H233.037L230.436 -4.1582C230.901 -0.828871 231.445 2.51892 232.079 5.87695L234.658 5.38965H234.661C235.278 8.65645 235.98 11.9313 236.782 15.207H236.781L234.231 15.8311C235.032 19.1034 235.931 22.3787 236.938 25.6504L239.447 24.8789C240.423 28.0496 241.503 31.2147 242.696 34.3682L240.24 35.2979C241.433 38.4504 242.738 41.5928 244.166 44.7188L246.553 43.6279H246.555C247.93 46.6384 249.42 49.6321 251.036 52.6035H251.034L248.728 53.8564C250.335 56.8124 252.063 59.7474 253.921 62.6553L256.133 61.2422H256.134C257.91 64.0205 259.807 66.7738 261.833 69.4971H261.833L259.726 71.0635C260.7 72.3728 261.705 73.6748 262.739 74.9697C263.588 76.4638 264.407 77.9445 265.198 79.4121L267.507 78.1699C269.224 81.3587 270.807 84.4885 272.261 87.5596L269.89 88.6807C271.419 91.9095 272.801 95.0692 274.042 98.1592L276.475 97.1816C277.834 100.562 279.03 103.865 280.07 107.092L277.573 107.896C278.672 111.308 279.592 114.627 280.342 117.852L282.897 117.258C283.722 120.803 284.348 124.246 284.788 127.585L282.187 127.927C282.652 131.459 282.901 134.865 282.951 138.145L285.574 138.105C285.629 141.751 285.446 145.256 285.042 148.621L282.436 148.308C282.019 151.779 281.36 155.089 280.482 158.238L283.007 158.942C282.041 162.411 280.819 165.7 279.366 168.812L276.99 167.702C275.544 170.798 273.86 173.711 271.967 176.439L274.124 177.934C272.108 180.839 269.868 183.547 267.431 186.055L265.548 184.226C263.199 186.644 260.656 188.874 257.951 190.915L259.53 193.01C257.064 194.87 254.472 196.578 251.774 198.132L250.698 198.74L249.423 196.445C246.47 198.085 243.387 199.542 240.206 200.813L241.18 203.25C237.934 204.548 234.593 205.657 231.187 206.579L230.501 204.047C227.216 204.937 223.865 205.648 220.477 206.181L220.884 208.772C217.417 209.318 213.916 209.682 210.408 209.863L210.272 207.242C208.562 207.331 206.85 207.375 205.141 207.375C203.44 207.375 201.839 207.285 200.333 207.111L200.033 209.719C196.328 209.291 193.078 208.382 190.2 207.034L191.312 204.657C188.477 203.329 186.033 201.527 183.874 199.271L181.979 201.087C179.732 198.74 177.788 195.969 176.055 192.82L178.353 191.555C176.88 188.878 175.55 185.883 174.303 182.583L171.848 183.511C170.706 180.486 169.645 177.248 168.619 173.818L171.133 173.065C170.209 169.975 169.309 166.72 168.399 163.308L165.863 163.984V163.985C165.014 160.803 164.158 157.501 163.268 154.091L163.269 154.09L165.809 153.427C164.973 150.221 164.103 146.912 163.178 143.519L160.645 144.209L160.644 144.21C159.771 141.005 158.85 137.727 157.859 134.385V134.384L160.375 133.637C159.421 130.418 158.401 127.137 157.299 123.804L154.808 124.628Z" fill="#D9D9D9" fill-opacity="0.2" stroke="#C7C7C7" stroke-width="5.25" stroke-linejoin="round" stroke-dasharray="10.5 10.5"/>
<path d="M204.731 189.123C202.995 189.291 201.255 189.375 199.518 189.375C197.792 189.375 196.239 189.201 194.833 188.876L194.244 191.434C190.62 190.597 187.667 188.848 185.193 186.312L187.07 184.48C185.092 182.452 183.389 179.77 181.872 176.415L179.483 177.496C178.15 174.549 176.994 171.209 175.934 167.527L178.455 166.801C177.562 163.698 176.734 160.33 175.917 156.716L173.358 157.295C172.617 154.018 171.891 150.564 171.141 146.956L173.709 146.422C173.019 143.102 172.305 139.634 171.541 136.057L168.973 136.605V136.606C168.258 133.257 167.495 129.811 166.666 126.281L166.668 126.28L169.224 125.68C168.431 122.305 167.573 118.852 166.63 115.334L164.095 116.014V116.015C163.203 112.685 162.233 109.3 161.168 105.872L161.169 105.871L163.676 105.093C162.639 101.751 161.512 98.3663 160.277 94.9492L157.808 95.8418L157.807 95.8428C156.63 92.5857 155.355 89.3009 153.967 85.998V85.9971L156.387 84.9805C155.026 81.7416 153.557 78.4833 151.966 75.2158L149.606 76.3643L149.605 76.3652C148.089 73.2507 146.459 70.1292 144.708 67.0068L144.709 67.0049L146.999 65.7207C145.275 62.6483 143.432 59.5751 141.459 56.5088L139.252 57.9287V57.9297C137.383 55.0234 135.394 52.1252 133.278 49.2383L133.28 49.2354L135.397 47.6836C134.344 46.247 133.26 44.8133 132.143 43.3838C132.104 43.3332 132.062 43.2839 132.019 43.2363C130.91 42.0139 129.888 40.7515 128.95 39.4521L126.823 40.9893C124.779 38.1599 123.104 35.161 121.769 32.0225H121.768L124.183 30.9941C122.918 28.0203 121.972 24.9027 121.321 21.667L118.749 22.1855C118.081 18.8685 117.711 15.4471 117.613 11.9492L120.236 11.876C120.145 8.63502 120.295 5.3129 120.667 1.93359L118.062 1.64648C118.432 -1.70813 119.013 -5.1044 119.783 -8.52051L122.34 -7.94434C123.065 -11.1601 123.963 -14.4006 125.017 -17.6455L122.522 -18.4561C123.573 -21.6915 124.775 -24.9244 126.107 -28.1367L128.53 -27.1318C129.812 -30.2248 131.22 -33.3013 132.738 -36.3428L130.391 -37.5137C131.923 -40.5837 133.562 -43.6163 135.292 -46.5938L137.56 -45.2754C139.265 -48.2085 141.06 -51.0888 142.929 -53.8975L140.747 -55.3506C142.666 -58.2352 144.661 -61.0467 146.716 -63.7646L148.81 -62.1816C150.879 -64.9175 153.008 -67.5571 155.178 -70.0811L153.19 -71.791C155.481 -74.4559 157.819 -76.9965 160.183 -79.3896L162.049 -77.5459C164.492 -80.0178 166.957 -82.3253 169.422 -84.4443L167.711 -86.4346C170.428 -88.77 173.152 -90.8847 175.85 -92.7529L177.342 -90.5977C180.252 -92.6128 183.11 -94.3122 185.873 -95.6631L184.72 -98.0186C188.073 -99.6579 191.329 -100.828 194.426 -101.458L194.95 -98.8867C196.551 -99.2127 198.076 -99.375 199.518 -99.375C201.211 -99.375 202.655 -99.1508 203.893 -98.7529L204.696 -101.252C208.09 -100.161 210.58 -97.904 212.403 -94.6562L210.114 -93.3721C211.415 -91.0539 212.39 -88.0364 213.088 -84.3047L215.667 -84.7871C216.247 -81.6886 216.625 -78.2304 216.867 -74.4609L214.248 -74.2939C214.452 -71.0994 214.559 -67.6613 214.606 -64.002L217.229 -64.0352C217.272 -60.7094 217.267 -57.2207 217.245 -53.5918L214.621 -53.6084C214.599 -50.2415 214.563 -46.7775 214.537 -43.1758L217.162 -43.1572L217.164 -43.1562C217.139 -39.769 217.121 -36.2909 217.134 -32.7373L214.508 -32.7275C214.521 -29.2968 214.56 -25.7912 214.646 -22.2266L217.27 -22.29H217.272C217.354 -18.8684 217.48 -15.3946 217.664 -11.8809H217.662L215.041 -11.7432C215.222 -8.27926 215.46 -4.77356 215.772 -1.23828L218.386 -1.46875H218.389C218.692 1.96445 219.062 5.42328 219.518 8.89648H219.517L216.915 9.23828C217.369 12.7018 217.907 16.1833 218.542 19.6709L221.125 19.2002H221.128C221.748 22.6029 222.46 26.0095 223.281 29.4092H223.28L220.728 30.0254C221.551 33.4356 222.481 36.8425 223.532 40.2354L226.04 39.459H226.042C227.065 42.761 228.201 46.0478 229.466 49.3086H229.465L227.018 50.2578C228.291 53.5371 229.691 56.7937 231.233 60.0176L233.601 58.8848L233.604 58.8838C235.089 61.9896 236.704 65.0638 238.465 68.0957L236.195 69.4141C237.051 70.8875 237.941 72.3509 238.865 73.8047C239.602 75.4342 240.308 77.0459 240.982 78.6396L243.398 77.6182C244.866 81.0893 246.189 84.4797 247.374 87.79L244.904 88.6738C246.164 92.1974 247.264 95.6244 248.211 98.9551L250.734 98.2373C251.773 101.888 252.635 105.43 253.329 108.864L250.755 109.383C251.492 113.032 252.034 116.55 252.396 119.937L255.005 119.658C255.361 122.982 255.549 126.19 255.58 129.281L255.583 130.584L252.958 130.572C252.942 134.284 252.692 137.811 252.231 141.153L254.829 141.512C254.307 145.294 253.526 148.86 252.512 152.213L250 151.453C248.947 154.935 247.637 158.167 246.109 161.152L248.446 162.349C246.728 165.705 244.741 168.772 242.534 171.555L240.478 169.924C238.272 172.704 235.836 175.183 233.22 177.362L234.9 179.379C232.058 181.746 229.014 183.779 225.829 185.478L224.593 183.161C221.506 184.808 218.275 186.127 214.962 187.118L215.715 189.632C212.202 190.683 208.604 191.384 204.985 191.735L204.731 189.123Z" fill="#D9D9D9" fill-opacity="0.2" stroke="#C7C7C7" stroke-width="5.25" stroke-linejoin="round" stroke-dasharray="10.5 10.5"/>
<rect x="369.5" y="177.5" width="285" height="285" rx="142.5" fill="white"/>
<rect x="369.5" y="177.5" width="285" height="285" rx="142.5" stroke="#D9D9D9" stroke-width="3"/>
<path d="M570.828 257.175C571.578 257.925 571.999 258.942 571.999 260.003C571.999 261.064 571.578 262.081 570.828 262.831L529.656 304.003H518.344L504.344 318.003H467.288C465.874 313.371 464.922 308.611 464.448 303.791C463.123 303.858 461.64 303.891 460 303.891C455.344 303.891 448.16 303.579 446 302.003C442 296.703 440 286.115 440 286.115C440 286.115 451.148 282.311 456 280.591C456 267.695 472.672 260.335 481.144 271.203C483.248 271.191 485.648 271.867 487.896 273.247C491.96 275.743 493.496 286.991 492.616 292.083C499.036 299.643 507.248 302.747 518 303.891L518.412 303.935L565.172 257.175C565.922 256.425 566.939 256.004 568 256.004C569.061 256.004 570.078 256.425 570.828 257.175ZM529.188 304.475L510 323.659V350.519C520.928 349.059 530.268 346.791 542 340.003C550.552 355.679 557.716 360.183 561.392 362.499C562.872 363.431 563.792 364.007 564 364.815C564.48 366.655 564.984 368.003 565.376 369.055C565.872 370.371 566.192 371.227 566.072 372.003H564C562.939 372.003 561.922 372.424 561.172 373.175C560.421 373.925 560 374.942 560 376.003C560 377.064 560.421 378.081 561.172 378.831C561.922 379.582 562.939 380.003 564 380.003H572C573.061 380.003 574.078 379.582 574.828 378.831C575.579 378.081 576 377.064 576 376.003V357.911C576 350.003 564 328.915 564 328.915L582 352.003C583.62 353.015 585.808 351.071 584 348.003C583.244 345.987 582.42 343.347 581.484 340.355C577.028 326.087 570.096 303.891 556.476 303.891C554.504 303.891 551.668 303.995 548.332 304.111C542.784 304.311 535.848 304.563 529.188 304.475ZM501.72 351.487L502 351.459V326.003H470.344C473.572 333.015 477.436 338.091 480.432 342.027C480.989 342.755 481.512 343.448 482 344.107C483.916 346.691 489.5 363.327 481.18 372.003H480C478.939 372.003 477.922 372.424 477.172 373.175C476.421 373.925 476 374.942 476 376.003C476 377.064 476.421 378.081 477.172 378.831C477.922 379.582 478.939 380.003 480 380.003H492C492.878 380.003 493.731 379.715 494.429 379.182C495.126 378.649 495.629 377.902 495.86 377.055H495.868C495.889 377.055 495.908 377.051 495.924 377.043C496.092 376.955 496.08 376.499 496.044 375.475C496.015 374.683 496.001 373.891 496 373.099V352.103L499.732 351.703L499.76 351.699L501.72 351.487Z" fill="black"/>
<path d="M377.114 142H358.551V89.6364H377.267C382.534 89.6364 387.068 90.6847 390.869 92.7812C394.67 94.8608 397.594 97.8523 399.639 101.756C401.702 105.659 402.733 110.33 402.733 115.767C402.733 121.222 401.702 125.909 399.639 129.83C397.594 133.75 394.653 136.759 390.818 138.855C387 140.952 382.432 142 377.114 142ZM369.622 132.514H376.653C379.926 132.514 382.679 131.935 384.912 130.776C387.162 129.599 388.849 127.784 389.974 125.33C391.116 122.858 391.688 119.67 391.688 115.767C391.688 111.898 391.116 108.736 389.974 106.281C388.849 103.827 387.17 102.02 384.938 100.861C382.705 99.7017 379.952 99.1222 376.679 99.1222H369.622V132.514ZM428.474 142.767C424.502 142.767 421.067 141.923 418.17 140.236C415.289 138.531 413.065 136.162 411.496 133.128C409.928 130.077 409.144 126.54 409.144 122.517C409.144 118.46 409.928 114.915 411.496 111.881C413.065 108.83 415.289 106.46 418.17 104.773C421.067 103.068 424.502 102.216 428.474 102.216C432.445 102.216 435.871 103.068 438.752 104.773C441.65 106.46 443.883 108.83 445.451 111.881C447.019 114.915 447.803 118.46 447.803 122.517C447.803 126.54 447.019 130.077 445.451 133.128C443.883 136.162 441.65 138.531 438.752 140.236C435.871 141.923 432.445 142.767 428.474 142.767ZM428.525 134.33C430.332 134.33 431.84 133.818 433.05 132.795C434.261 131.756 435.173 130.341 435.786 128.551C436.417 126.761 436.732 124.724 436.732 122.44C436.732 120.156 436.417 118.119 435.786 116.33C435.173 114.54 434.261 113.125 433.05 112.085C431.84 111.045 430.332 110.526 428.525 110.526C426.701 110.526 425.167 111.045 423.923 112.085C422.695 113.125 421.766 114.54 421.136 116.33C420.522 118.119 420.215 120.156 420.215 122.44C420.215 124.724 420.522 126.761 421.136 128.551C421.766 130.341 422.695 131.756 423.923 132.795C425.167 133.818 426.701 134.33 428.525 134.33ZM472.579 157.545C469.05 157.545 466.025 157.06 463.502 156.088C460.996 155.134 459.002 153.83 457.519 152.176C456.036 150.523 455.073 148.665 454.63 146.602L464.704 145.247C465.011 146.031 465.496 146.764 466.161 147.446C466.826 148.128 467.704 148.673 468.795 149.082C469.903 149.509 471.249 149.722 472.835 149.722C475.204 149.722 477.156 149.142 478.69 147.983C480.241 146.841 481.016 144.923 481.016 142.23V135.045H480.556C480.079 136.136 479.363 137.168 478.408 138.139C477.454 139.111 476.227 139.903 474.727 140.517C473.227 141.131 471.437 141.438 469.357 141.438C466.408 141.438 463.724 140.756 461.303 139.392C458.9 138.011 456.982 135.906 455.55 133.077C454.136 130.23 453.428 126.634 453.428 122.287C453.428 117.838 454.153 114.122 455.602 111.139C457.05 108.156 458.977 105.923 461.38 104.44C463.8 102.957 466.451 102.216 469.332 102.216C471.531 102.216 473.371 102.591 474.854 103.341C476.337 104.074 477.531 104.994 478.434 106.102C479.354 107.193 480.062 108.267 480.556 109.324H480.965V102.727H491.781V142.384C491.781 145.724 490.962 148.52 489.326 150.77C487.69 153.02 485.423 154.707 482.525 155.832C479.644 156.974 476.329 157.545 472.579 157.545ZM472.809 133.256C474.565 133.256 476.048 132.821 477.258 131.952C478.485 131.065 479.423 129.804 480.07 128.168C480.735 126.514 481.067 124.537 481.067 122.236C481.067 119.935 480.744 117.94 480.096 116.253C479.448 114.548 478.511 113.227 477.283 112.29C476.056 111.352 474.565 110.884 472.809 110.884C471.019 110.884 469.511 111.369 468.283 112.341C467.056 113.295 466.127 114.625 465.496 116.33C464.866 118.034 464.55 120.003 464.55 122.236C464.55 124.503 464.866 126.463 465.496 128.116C466.144 129.753 467.073 131.023 468.283 131.926C469.511 132.812 471.019 133.256 472.809 133.256ZM517.317 142V89.6364H537.976C541.947 89.6364 545.331 90.3949 548.126 91.9119C550.922 93.4119 553.053 95.5 554.518 98.1761C556.001 100.835 556.743 103.903 556.743 107.381C556.743 110.858 555.993 113.926 554.493 116.585C552.993 119.244 550.82 121.315 547.973 122.798C545.143 124.281 541.717 125.023 537.695 125.023H524.527V116.151H535.905C538.036 116.151 539.791 115.784 541.172 115.051C542.57 114.301 543.609 113.27 544.291 111.957C544.99 110.628 545.339 109.102 545.339 107.381C545.339 105.642 544.99 104.125 544.291 102.83C543.609 101.517 542.57 100.503 541.172 99.7869C539.774 99.054 538.001 98.6875 535.854 98.6875H528.388V142H517.317ZM573.874 142.741C571.368 142.741 569.135 142.307 567.175 141.438C565.214 140.551 563.663 139.247 562.521 137.526C561.396 135.787 560.834 133.622 560.834 131.031C560.834 128.849 561.234 127.017 562.036 125.534C562.837 124.051 563.928 122.858 565.308 121.955C566.689 121.051 568.257 120.369 570.013 119.909C571.786 119.449 573.643 119.125 575.587 118.938C577.871 118.699 579.712 118.477 581.109 118.273C582.507 118.051 583.521 117.727 584.152 117.301C584.783 116.875 585.098 116.244 585.098 115.409V115.256C585.098 113.636 584.587 112.384 583.564 111.497C582.558 110.611 581.126 110.168 579.268 110.168C577.308 110.168 575.749 110.602 574.589 111.472C573.43 112.324 572.663 113.398 572.288 114.693L562.214 113.875C562.726 111.489 563.732 109.426 565.232 107.688C566.732 105.932 568.666 104.585 571.036 103.648C573.422 102.693 576.183 102.216 579.32 102.216C581.501 102.216 583.589 102.472 585.584 102.983C587.595 103.494 589.376 104.287 590.928 105.361C592.496 106.435 593.732 107.815 594.635 109.503C595.538 111.173 595.99 113.176 595.99 115.511V142H585.661V136.554H585.354C584.723 137.781 583.879 138.864 582.822 139.801C581.766 140.722 580.496 141.446 579.013 141.974C577.53 142.486 575.817 142.741 573.874 142.741ZM576.993 135.224C578.595 135.224 580.01 134.909 581.237 134.278C582.464 133.631 583.428 132.761 584.126 131.67C584.825 130.58 585.175 129.344 585.175 127.963V123.795C584.834 124.017 584.365 124.222 583.768 124.409C583.189 124.58 582.533 124.741 581.8 124.895C581.067 125.031 580.334 125.159 579.601 125.278C578.868 125.381 578.203 125.474 577.607 125.56C576.328 125.747 575.212 126.045 574.257 126.455C573.303 126.864 572.561 127.418 572.033 128.116C571.504 128.798 571.24 129.651 571.24 130.673C571.24 132.156 571.777 133.29 572.851 134.074C573.942 134.841 575.322 135.224 576.993 135.224ZM604.44 142V102.727H615V109.58H615.409C616.125 107.142 617.327 105.301 619.014 104.057C620.702 102.795 622.645 102.165 624.844 102.165C625.389 102.165 625.977 102.199 626.608 102.267C627.239 102.335 627.793 102.429 628.27 102.548V112.213C627.759 112.06 627.051 111.923 626.148 111.804C625.244 111.685 624.418 111.625 623.668 111.625C622.065 111.625 620.634 111.974 619.372 112.673C618.128 113.355 617.139 114.31 616.406 115.537C615.69 116.764 615.332 118.179 615.332 119.781V142H604.44ZM643.771 130.699L643.796 117.634H645.381L657.961 102.727H670.464L653.563 122.466H650.981L643.771 130.699ZM633.901 142V89.6364H644.793V142H633.901ZM658.447 142L646.89 124.895L654.151 117.199L671.205 142H658.447Z" fill="black"/>
<path d="M172.844 116.213L180.805 108.252M172.844 111.436L163.291 101.883M172.844 141.689V100.291M155.402 93.9221C156.206 84.9946 163.708 78 172.844 78C181.98 78 189.483 84.9946 190.287 93.9221H190.359C194.159 93.9221 197.804 95.4319 200.491 98.1193C203.179 100.807 204.689 104.452 204.689 108.252C204.689 112.053 203.179 115.697 200.491 118.385C197.804 121.072 194.159 122.582 190.359 122.582H155.33C151.529 122.582 147.885 121.072 145.197 118.385C142.51 115.697 141 112.053 141 108.252C141 104.452 142.51 100.807 145.197 98.1193C147.885 95.4319 151.529 93.9221 155.33 93.9221H155.402Z" stroke="black" stroke-width="6.36885" stroke-linecap="round" stroke-linejoin="round"/>
<path d="M43.8443 392.213L51.8053 384.252M43.8443 387.436L34.291 377.883M43.8443 417.689V376.291M26.4016 369.922C27.2056 360.995 34.7081 354 43.8443 354C52.9804 354 60.4829 360.995 61.287 369.922H61.3586C65.1591 369.922 68.804 371.432 71.4914 374.119C74.1788 376.807 75.6885 380.452 75.6885 384.252C75.6885 388.053 74.1788 391.697 71.4914 394.385C68.804 397.072 65.1591 398.582 61.3586 398.582H26.3299C22.5294 398.582 18.8845 397.072 16.1971 394.385C13.5098 391.697 12 388.053 12 384.252C12 380.452 13.5098 376.807 16.1971 374.119C18.8845 371.432 22.5294 369.922 26.3299 369.922H26.4016Z" stroke="black" stroke-width="6.36885" stroke-linecap="round" stroke-linejoin="round"/>
<path d="M928.575 313.156L936.536 305.194M928.575 308.379L919.021 298.826M928.575 338.631V297.233M911.132 290.865C911.936 281.937 919.439 274.942 928.575 274.942C937.711 274.942 945.213 281.937 946.017 290.865H946.089C949.89 290.865 953.534 292.374 956.222 295.062C958.909 297.749 960.419 301.394 960.419 305.194C960.419 308.995 958.909 312.64 956.222 315.327C953.534 318.015 949.89 319.524 946.089 319.524H911.06C907.26 319.524 903.615 318.015 900.928 315.327C898.24 312.64 896.73 308.995 896.73 305.194C896.73 301.394 898.24 297.749 900.928 295.062C903.615 292.374 907.26 290.865 911.06 290.865H911.132Z" stroke="black" stroke-width="6.36885" stroke-linecap="round" stroke-linejoin="round"/>
<path d="M44.2134 89.3362L52.1745 81.3751M44.2134 84.5595L34.6601 75.0062M44.2134 114.812V73.414M26.7707 67.0452C27.5748 58.1176 35.0773 51.123 44.2134 51.123C53.3495 51.123 60.852 58.1176 61.6561 67.0452H61.7278C65.5283 67.0452 69.1732 68.5549 71.8605 71.2423C74.5479 73.9297 76.0577 77.5746 76.0577 81.3751C76.0577 85.1756 74.5479 88.8205 71.8605 91.5079C69.1732 94.1953 65.5283 95.705 61.7278 95.705H26.6991C22.8985 95.705 19.2537 94.1953 16.5663 91.5079C13.8789 88.8205 12.3691 85.1756 12.3691 81.3751C12.3691 77.5746 13.8789 73.9297 16.5663 71.2423C19.2537 68.5549 22.8985 67.0452 26.6991 67.0452H26.7707Z" stroke="black" stroke-width="6.36885" stroke-linecap="round" stroke-linejoin="round"/>
<path d="M938.213 122.582L946.174 114.621M938.213 117.806L928.66 108.252M938.213 148.058V106.66M920.771 100.291C921.575 91.3637 929.077 84.3691 938.213 84.3691C947.35 84.3691 954.852 91.3637 955.656 100.291H955.728C959.528 100.291 963.173 101.801 965.861 104.488C968.548 107.176 970.058 110.821 970.058 114.621C970.058 118.422 968.548 122.067 965.861 124.754C963.173 127.441 959.528 128.951 955.728 128.951H920.699C916.899 128.951 913.254 127.441 910.566 124.754C907.879 122.067 906.369 118.422 906.369 114.621C906.369 110.821 907.879 107.176 910.566 104.488C913.254 101.801 916.899 100.291 920.699 100.291H920.771Z" stroke="black" stroke-width="6.36885" stroke-linecap="round" stroke-linejoin="round"/>
<path d="M863.065 285.86L871.027 277.899M863.065 281.083L853.512 271.53M863.065 311.335V269.937M845.623 263.569C846.427 254.641 853.929 247.646 863.065 247.646C872.202 247.646 879.704 254.641 880.508 263.569H880.58C884.38 263.569 888.025 265.078 890.713 267.766C893.4 270.453 894.91 274.098 894.91 277.899C894.91 281.699 893.4 285.344 890.713 288.031C888.025 290.719 884.38 292.228 880.58 292.228H845.551C841.751 292.228 838.106 290.719 835.418 288.031C832.731 285.344 831.221 281.699 831.221 277.899C831.221 274.098 832.731 270.453 835.418 267.766C838.106 265.078 841.751 263.569 845.551 263.569H845.623Z" stroke="black" stroke-width="6.36885" stroke-linecap="round" stroke-linejoin="round"/>
<path d="M167.213 338.582L175.174 330.621M167.213 333.806L157.66 324.252M167.213 364.058V322.66M149.771 316.291C150.575 307.364 158.077 300.369 167.213 300.369C176.35 300.369 183.852 307.364 184.656 316.291H184.728C188.528 316.291 192.173 317.801 194.861 320.488C197.548 323.176 199.058 326.821 199.058 330.621C199.058 334.422 197.548 338.067 194.861 340.754C192.173 343.441 188.528 344.951 184.728 344.951H149.699C145.899 344.951 142.254 343.441 139.566 340.754C136.879 338.067 135.369 334.422 135.369 330.621C135.369 326.821 136.879 323.176 139.566 320.488C142.254 317.801 145.899 316.291 149.699 316.291H149.771Z" stroke="black" stroke-width="6.36885" stroke-linecap="round" stroke-linejoin="round"/>
<path d="M824.852 56.5823L832.813 48.6212M824.852 51.8056L815.299 42.2523M824.852 82.0577V40.6601M807.409 34.2913C808.213 25.3637 815.716 18.3691 824.852 18.3691C833.988 18.3691 841.491 25.3637 842.295 34.2913H842.366C846.167 34.2913 849.812 35.801 852.499 38.4884C855.187 41.1758 856.696 44.8207 856.696 48.6212C856.696 52.4217 855.187 56.0666 852.499 58.754C849.812 61.4414 846.167 62.9511 842.366 62.9511H807.338C803.537 62.9511 799.892 61.4414 797.205 58.754C794.518 56.0666 793.008 52.4217 793.008 48.6212C793.008 44.8207 794.518 41.1758 797.205 38.4884C799.892 35.801 803.537 34.2913 807.338 34.2913H807.409Z" stroke="black" stroke-width="6.36885" stroke-linecap="round" stroke-linejoin="round"/>
<path d="M972.246 253.106L980.207 245.145M972.246 248.329L962.693 238.776M972.246 278.581V237.184M954.803 230.815C955.607 221.887 963.11 214.893 972.246 214.893C981.382 214.893 988.885 221.887 989.689 230.815H989.76C993.561 230.815 997.206 232.324 999.893 235.012C1002.58 237.699 1004.09 241.344 1004.09 245.145C1004.09 248.945 1002.58 252.59 999.893 255.277C997.206 257.965 993.561 259.475 989.76 259.475H954.732C950.931 259.475 947.286 257.965 944.599 255.277C941.912 252.59 940.402 248.945 940.402 245.145C940.402 241.344 941.912 237.699 944.599 235.012C947.286 232.324 950.931 230.815 954.732 230.815H954.803Z" stroke="black" stroke-width="6.36885" stroke-linecap="round" stroke-linejoin="round"/>
<path d="M83.4453 154.734C82.3876 154.647 81.4255 154.741 80.4258 155.215C79.9651 155.413 79.5371 155.68 79.1566 156.007L78.6602 156.382L78.638 156.488L76.9696 158.25L67.2866 168.337L67.2832 168.341C67.0588 168.575 66.862 168.834 66.6964 169.114L66.4456 169.376L63.5796 175.801L63.1651 176.731L60.3673 181.905C60.3371 181.958 60.3098 182.012 60.2854 182.068C59.9443 182.713 59.7259 183.389 59.6031 184.081L59.598 184.114L58.6699 190.869L59.5604 193.544C60.2576 195.65 61.4397 197.564 63.0115 199.13L64.5981 200.716C65.6791 201.806 66.9321 202.71 68.3068 203.393L70.6303 204.546L70.6354 204.549C72.6239 205.55 74.8203 206.068 77.0463 206.061H77.0497L82.5889 206.047V206.061H97.475C98.9933 206.035 100.747 205.262 101.777 204.087C102.14 203.756 102.47 203.391 102.762 202.995L102.893 202.818L108.553 196.373C109.098 195.753 109.495 195.019 109.715 194.224C109.934 193.429 109.971 192.595 109.823 191.784L109.623 190.714C109.602 190.393 109.558 190.074 109.492 189.759V189.75L108.78 186.142L108.791 186.129L107.207 178.165C106.864 176.38 105.877 174.781 104.434 173.675L98.241 168.17L94.3002 160.881L94.2695 160.833C93.5513 159.686 92.9048 158.745 92.0279 158.01C91.1306 157.256 90.1087 156.81 88.8208 156.389L86.6934 155.638L85.8234 155.333L85.8115 155.33L85.6579 155.27C85.4872 155.206 85.3149 155.147 85.141 155.092C84.6009 154.919 84.0449 154.8 83.4812 154.738L83.4641 154.736L83.4453 154.734ZM97.4306 202.649H86.0008V197.229L101.687 194.754L106.293 191.463L106.465 192.395V192.398C106.578 193.022 106.407 193.648 105.994 194.116L100.235 200.673L100.017 200.969L100.013 200.972C99.8417 201.206 99.6484 201.418 99.4334 201.607L99.3532 201.678L99.2202 201.83L99.2151 201.834C98.85 202.255 98.0243 202.635 97.4306 202.649ZM76.6352 188.165L84.2949 195.825L65.5295 190.707L66.8772 185.368C67.099 184.412 67.6961 183.611 68.532 183.099L75.7652 178.766V186.067C75.7652 186.852 76.0722 187.603 76.6352 188.165ZM75.7652 178.766L71.3212 169.059L79.4364 160.609L79.5524 160.487L75.7652 178.766ZM88.0138 188.046C86.8879 187.534 86.3079 186.255 86.6661 185.061L90.368 172.73L103.695 178.216C103.763 178.411 103.818 178.612 103.859 178.819V178.822L105.143 185.288L105.136 185.298L105.981 189.588L101.022 193.13L99.6705 193.345L88.0138 188.046ZM90.8628 171.089L91.1187 170.236L92.2992 164.354L95.5268 170.321L101.156 175.327L90.8628 171.089ZM62.7778 192.413H65.3026L82.5889 197.127V202.635L77.0446 202.649H77.0412C75.3489 202.655 73.6789 202.262 72.1673 201.501L69.82 200.336L69.8148 200.334C68.7742 199.816 67.8261 199.13 67.0086 198.304L65.422 196.717C64.2294 195.527 63.3316 194.074 62.8 192.475L62.7778 192.413ZM84.602 158.521L85.5658 158.859C86.1237 159.054 86.8845 159.323 87.7017 159.611L87.7221 159.618L87.7426 159.625C88.8992 160.004 89.4332 160.284 89.8358 160.621C90.1855 160.915 90.5182 161.321 91.018 162.08L89.4639 169.82L85.0336 184.568C84.7406 185.539 84.8098 186.584 85.2282 187.509C85.6466 188.434 86.386 189.175 87.3093 189.597L94.5254 192.876L84.9158 194.031L77.843 186.958C77.725 186.841 77.6315 186.702 77.5679 186.549C77.5043 186.396 77.472 186.231 77.4728 186.065V178.938L81.7326 158.378C81.9014 158.284 82.0396 158.228 82.1642 158.19C82.3859 158.126 82.6691 158.093 83.1485 158.131C83.4846 158.168 83.836 158.257 84.1243 158.346C84.264 158.39 84.4023 158.439 84.5388 158.492L84.5542 158.499L84.602 158.521ZM63.38 183.519L63.409 183.466V183.462L66.2238 178.257L69.2382 171.492C69.2905 171.363 69.365 171.244 69.4583 171.14L70.0844 170.456L73.5782 178.087L67.6551 181.635L67.6415 181.644C67.0378 182.009 66.5128 182.49 66.0969 183.06C65.6811 183.63 65.3826 184.277 65.219 184.963L64.2006 189.001H62.3684L62.9655 184.644C63.0324 184.271 63.161 183.912 63.3459 183.582L63.3544 183.566L63.38 183.519Z" fill="black"/>
<path d="M856.757 161.127C855.699 161.04 854.737 161.134 853.737 161.608C853.277 161.806 852.849 162.073 852.468 162.399L851.972 162.775L851.95 162.88L850.281 164.643L840.598 174.73L840.595 174.733C840.37 174.968 840.173 175.227 840.008 175.506L839.757 175.769L836.891 182.193L836.477 183.123L833.679 188.297C833.649 188.35 833.621 188.405 833.597 188.461C833.256 189.106 833.037 189.781 832.915 190.474L832.909 190.506L831.981 197.262L832.872 199.937C833.569 202.043 834.751 203.957 836.323 205.522L837.91 207.109C838.991 208.198 840.244 209.103 841.618 209.785L843.942 210.939L843.947 210.942C845.935 211.943 848.132 212.461 850.358 212.453H850.361L855.9 212.44V212.453H870.787C872.305 212.428 874.059 211.655 875.089 210.48C875.452 210.149 875.782 209.783 876.073 209.388L876.205 209.21L881.865 202.765C882.409 202.146 882.806 201.411 883.026 200.617C883.246 199.822 883.283 198.987 883.134 198.176L882.935 197.107C882.913 196.786 882.869 196.466 882.803 196.151V196.143L882.092 192.535L882.102 192.521L880.519 184.558C880.175 182.772 879.188 181.174 877.745 180.068L871.552 174.563L867.612 167.273L867.581 167.225C866.863 166.079 866.216 165.137 865.339 164.402C864.442 163.648 863.42 163.203 862.132 162.781L860.005 162.031L859.135 161.725L859.123 161.722L858.969 161.662C858.799 161.599 858.626 161.539 858.453 161.485C857.912 161.312 857.356 161.193 856.793 161.13L856.776 161.128L856.757 161.127ZM870.742 209.042H859.312V203.622L874.998 201.146L879.605 197.856L879.777 198.787V198.791C879.889 199.415 879.719 200.041 879.306 200.508L873.547 207.066L873.328 207.361L873.325 207.365C873.153 207.599 872.96 207.81 872.745 207.999L872.665 208.071L872.532 208.223L872.527 208.226C872.162 208.647 871.336 209.028 870.742 209.042ZM849.947 194.558L857.606 202.218L838.841 197.1L840.189 191.76C840.411 190.805 841.008 190.003 841.844 189.491L849.077 185.158V192.46C849.077 193.244 849.384 193.995 849.947 194.558ZM849.077 185.158L844.633 175.452L852.748 167.002L852.864 166.879L849.077 185.158ZM861.325 194.439C860.199 193.927 859.619 192.647 859.978 191.453L863.68 179.123L877.006 184.609C877.075 184.803 877.129 185.004 877.17 185.211V185.215L878.455 191.68L878.448 191.69L879.292 195.981L874.333 199.522L872.982 199.737L861.325 194.439ZM864.174 177.482L864.43 176.629L865.611 170.747L868.838 176.714L874.468 181.719L864.174 177.482ZM836.089 198.806H838.614L855.9 203.519V209.028L850.356 209.042H850.353C848.66 209.048 846.99 208.655 845.479 207.893L843.131 206.728L843.126 206.727C842.086 206.209 841.138 205.523 840.32 204.696L838.734 203.11C837.541 201.919 836.643 200.466 836.112 198.867L836.089 198.806ZM857.913 164.914L858.877 165.252C859.435 165.446 860.196 165.716 861.013 166.004L861.034 166.011L861.054 166.018C862.211 166.396 862.745 166.676 863.147 167.014C863.497 167.307 863.83 167.713 864.33 168.473L862.775 176.212L858.345 190.96C858.052 191.932 858.121 192.977 858.54 193.902C858.958 194.826 859.697 195.568 860.621 195.989L867.837 199.268L858.227 200.423L851.155 193.35C851.037 193.234 850.943 193.095 850.879 192.942C850.816 192.788 850.784 192.624 850.784 192.458V185.331L855.044 164.771C855.213 164.677 855.351 164.62 855.476 164.583C855.697 164.518 855.981 164.486 856.46 164.523C856.796 164.561 857.148 164.649 857.436 164.738C857.576 164.783 857.714 164.832 857.85 164.885L857.866 164.892L857.913 164.914ZM836.692 189.911L836.721 189.858V189.855L839.535 184.65L842.55 177.884C842.602 177.755 842.677 177.636 842.77 177.533L843.396 176.849L846.89 184.479L840.967 188.028L840.953 188.036C840.349 188.401 839.824 188.883 839.408 189.453C838.993 190.023 838.694 190.67 838.531 191.356L837.512 195.394H835.68L836.277 191.037C836.344 190.664 836.472 190.305 836.657 189.974L836.666 189.959L836.692 189.911Z" fill="black"/>
<path d="M834.739 324.146L834.882 327.143C836.882 327.047 838.884 327 840.884 327C842.863 327 844.73 327.095 846.494 327.28L846.807 324.297V324.296C851.118 324.748 854.921 325.711 858.305 327.141L857.138 329.903C860.559 331.349 863.505 333.315 866.104 335.769L868.162 333.587C870.934 336.204 873.326 339.315 875.458 342.863L872.89 344.407C874.713 347.443 876.356 350.855 877.891 354.627L880.668 353.497C882.082 356.973 883.391 360.705 884.652 364.663L881.796 365.574C882.931 369.136 884.032 372.897 885.146 376.843L888.032 376.028V376.027C889.07 379.705 890.114 383.525 891.199 387.472L891.197 387.473L888.305 388.268C889.322 391.969 890.379 395.793 891.504 399.717L894.388 398.891L894.39 398.89C895.451 402.593 896.571 406.384 897.777 410.249V410.25L894.913 411.144C896.073 414.86 897.312 418.651 898.653 422.502L901.486 421.516V421.515C902.761 425.175 904.128 428.888 905.605 432.645L905.604 432.646L902.812 433.743C904.244 437.385 905.779 441.069 907.437 444.787L910.177 443.566L910.178 443.565C911.758 447.111 913.448 450.686 915.266 454.283V454.284L912.588 455.637C914.363 459.151 916.258 462.686 918.286 466.237L920.892 464.75V464.749C922.812 468.111 924.856 471.486 927.03 474.868L927.028 474.87L924.505 476.492C926.627 479.794 928.875 483.102 931.259 486.411L933.693 484.658V484.657C935.957 487.8 938.346 490.945 940.869 494.086V494.087L938.529 495.966C940.987 499.025 943.57 502.081 946.286 505.129L948.525 503.134V503.133C951.102 506.024 953.801 508.907 956.63 511.781V511.782L954.492 513.887C955.896 515.312 957.331 516.736 958.798 518.156C958.851 518.208 958.907 518.257 958.964 518.305C960.521 519.602 961.978 520.931 963.338 522.29L965.456 520.169C968.465 523.174 971.039 526.331 973.206 529.62L970.701 531.271C972.879 534.576 974.62 538.016 975.958 541.569L978.765 540.513C980.208 544.346 981.209 548.304 981.803 552.36L978.835 552.795C979.39 556.589 979.573 560.49 979.409 564.474L982.406 564.596C982.242 568.592 981.743 572.652 980.94 576.751L977.998 576.176C977.255 579.97 976.241 583.813 974.977 587.683L977.826 588.613C976.583 592.417 975.11 596.235 973.428 600.049L970.684 598.839C969.095 602.441 967.314 606.046 965.358 609.637L967.992 611.07C966.067 614.606 963.978 618.121 961.748 621.604L959.225 619.987C957.078 623.34 954.795 626.665 952.391 629.946L954.807 631.716C952.405 634.994 949.889 638.228 947.271 641.404L944.959 639.498C942.402 642.601 939.747 645.65 937.012 648.63L939.22 650.656C936.453 653.67 933.606 656.615 930.693 659.478L928.592 657.34C925.7 660.182 922.744 662.942 919.739 665.606L921.729 667.851C918.647 670.583 915.514 673.217 912.349 675.739L910.48 673.395C907.28 675.945 904.048 678.378 900.8 680.68L902.532 683.124C899.137 685.53 895.726 687.797 892.314 689.907L890.737 687.357C887.238 689.522 883.746 691.518 880.283 693.326L881.67 695.981C877.927 697.937 874.212 699.684 870.551 701.197L869.405 698.427C865.571 700.012 861.815 701.329 858.168 702.358L858.981 705.244C854.858 706.408 850.849 707.22 846.998 707.647L846.668 704.668C844.682 704.889 842.752 705 840.884 705C838.95 705 837.168 704.881 835.525 704.652L835.112 707.622C830.804 707.023 827.232 705.72 824.271 703.78L825.916 701.271C823.161 699.467 820.981 696.995 819.251 693.834L816.619 695.273C814.917 692.163 813.656 688.537 812.725 684.458L815.649 683.792C814.89 680.465 814.352 676.778 813.979 672.752L810.992 673.027C810.656 669.389 810.456 665.522 810.344 661.452L813.343 661.371C813.243 657.729 813.213 653.912 813.222 649.934L810.222 649.927C810.23 646.181 810.271 642.306 810.316 638.319L813.316 638.354C813.359 634.607 813.406 630.75 813.432 626.807L810.432 626.787L810.43 626.786C810.455 623.005 810.462 619.144 810.428 615.216H810.43L813.429 615.19C813.396 611.369 813.325 607.479 813.197 603.533L810.199 603.63C810.076 599.83 809.899 595.981 809.651 592.093L812.646 591.903C812.401 588.063 812.087 584.181 811.688 580.268L808.703 580.572H808.701C808.313 576.77 807.842 572.941 807.274 569.094H807.277L810.245 568.656C809.68 564.824 809.019 560.971 808.247 557.105L805.306 557.693H805.302C804.552 553.939 803.699 550.176 802.724 546.412L805.629 545.66C804.656 541.905 803.564 538.146 802.34 534.392L799.486 535.321C798.303 531.691 796.995 528.068 795.549 524.458H795.55L798.334 523.342C796.891 519.74 795.312 516.15 793.586 512.579L790.886 513.886H790.885C789.228 510.458 787.432 507.05 785.487 503.667H785.488L788.09 502.172C786.161 498.816 784.086 495.484 781.857 492.184L779.37 493.862C777.248 490.719 774.984 487.604 772.565 484.522L774.926 482.671C773.765 481.192 772.568 479.722 771.338 478.259C770.307 476.538 769.313 474.832 768.354 473.142L765.745 474.62C763.657 470.939 761.735 467.328 759.971 463.784L762.655 462.448C760.796 458.714 759.118 455.062 757.613 451.491L754.85 452.655C753.193 448.725 751.739 444.888 750.48 441.141L753.325 440.186C751.994 436.221 750.886 432.368 749.99 428.626L747.073 429.324C746.081 425.179 745.339 421.157 744.833 417.26L747.808 416.875C747.274 412.766 747.012 408.809 747 405.004L744.001 405.012C743.988 400.753 744.277 396.666 744.845 392.747L747.812 393.177C748.395 389.155 749.281 385.327 750.439 381.69L747.581 380.779C748.852 376.792 750.439 373.017 752.31 369.453L754.966 370.848C756.807 367.34 758.936 364.044 761.318 360.959L758.944 359.126C761.452 355.878 764.228 352.859 767.231 350.065L769.273 352.26C772.146 349.587 775.242 347.124 778.527 344.872L776.832 342.399C780.188 340.099 783.725 338.014 787.411 336.147L788.767 338.824C792.284 337.043 795.946 335.461 799.718 334.081L798.688 331.265C802.511 329.865 806.44 328.67 810.441 327.676L811.164 330.586C815.026 329.627 818.959 328.859 822.933 328.285L822.504 325.317C826.555 324.732 830.643 324.34 834.738 324.146L834.739 324.146Z" fill="#D9D9D9" fill-opacity="0.2" stroke="#C7C7C7" stroke-width="6" stroke-linejoin="round" stroke-dasharray="12 12"/>
<path d="M896.66 436.372C897.709 439.546 898.834 442.765 900.048 446.021L900.047 446.022L897.588 446.939C898.767 450.101 900.031 453.299 901.394 456.527L903.812 455.506L903.813 455.505C905.115 458.589 906.508 461.699 908.004 464.828V464.829L905.636 465.962C907.101 469.024 908.664 472.106 910.337 475.201L912.647 473.953L912.648 473.952C914.238 476.893 915.929 479.845 917.729 482.804L917.727 482.806L915.484 484.17C917.244 487.063 919.108 489.962 921.085 492.862L923.254 491.384L923.256 491.382C925.139 494.143 927.126 496.905 929.225 499.665L929.223 499.668L927.134 501.257C929.184 503.952 931.339 506.645 933.607 509.33L935.613 507.637L935.614 507.635C937.77 510.187 940.028 512.735 942.397 515.272V515.273L940.478 517.064C941.655 518.325 942.858 519.583 944.088 520.838C944.134 520.884 944.182 520.93 944.231 520.973C945.527 522.111 946.74 523.278 947.873 524.472L949.776 522.664C952.268 525.29 954.401 528.05 956.197 530.923H956.198L953.971 532.313C955.758 535.173 957.193 538.151 958.3 541.228L960.769 540.339C961.953 543.627 962.782 547.021 963.286 550.499L960.689 550.875C961.16 554.132 961.334 557.478 961.229 560.895L963.85 560.975C963.745 564.397 963.373 567.874 962.755 571.386L960.171 570.932C959.596 574.204 958.8 577.517 957.8 580.854L960.313 581.606C959.33 584.889 958.159 588.185 956.817 591.479L954.387 590.489C953.115 593.611 951.685 596.736 950.112 599.851L952.452 601.032C950.894 604.116 949.201 607.185 947.388 610.227L945.136 608.884C943.391 611.811 941.532 614.715 939.572 617.584L941.737 619.064C939.774 621.937 937.714 624.773 935.569 627.56L933.49 625.959C931.389 628.688 929.206 631.37 926.954 633.995L928.945 635.703C926.663 638.362 924.311 640.961 921.904 643.49L920.004 641.682C917.611 644.197 915.161 646.641 912.668 649.003L914.472 650.906C911.911 653.333 909.307 655.675 906.671 657.919L904.971 655.922C902.307 658.191 899.614 660.357 896.906 662.409L898.49 664.5C895.646 666.655 892.784 668.687 889.922 670.581L888.475 668.394C885.543 670.334 882.617 672.125 879.713 673.751L880.995 676.04C877.83 677.812 874.687 679.395 871.588 680.771L870.524 678.373C867.28 679.813 864.102 681.012 861.019 681.949L861.782 684.459C858.263 685.529 854.843 686.279 851.56 686.674L851.248 684.068C849.555 684.272 847.913 684.375 846.327 684.375C844.652 684.375 843.118 684.261 841.712 684.043L841.311 686.635C837.601 686.06 834.556 684.815 832.058 682.967L833.619 680.858C831.393 679.212 829.62 676.962 828.216 674.074L825.856 675.221C824.518 672.468 823.53 669.28 822.802 665.709L825.372 665.186C824.777 662.268 824.357 659.049 824.069 655.548L821.455 655.763C821.194 652.596 821.039 649.236 820.955 645.704L823.579 645.643C823.503 642.473 823.484 639.157 823.494 635.704L820.87 635.697C820.879 632.446 820.912 629.084 820.95 625.628L820.951 625.629L823.576 625.657C823.611 622.402 823.648 619.052 823.668 615.629L821.043 615.613L821.042 615.612C821.062 612.328 821.063 608.976 821.034 605.566H821.038L823.663 605.544C823.634 602.227 823.574 598.853 823.467 595.431L820.843 595.512C820.74 592.213 820.593 588.872 820.388 585.497H820.389L823.009 585.338C822.807 582.004 822.547 578.635 822.218 575.239L819.605 575.492H819.604C819.284 572.189 818.896 568.863 818.429 565.521H818.431L821.032 565.158C820.567 561.829 820.023 558.481 819.389 555.123L816.81 555.61H816.807C816.19 552.344 815.488 549.069 814.686 545.793H814.687L817.237 545.169C816.436 541.897 815.537 538.621 814.53 535.35L812.021 536.121C811.045 532.95 809.965 529.785 808.772 526.632L811.228 525.702C810.035 522.55 808.73 519.407 807.302 516.281L804.915 517.372H804.913C803.538 514.362 802.047 511.368 800.432 508.396H800.434L802.74 507.144C801.133 504.188 799.405 501.253 797.546 498.345L795.334 499.758H795.333C793.558 496.979 791.661 494.226 789.634 491.503H789.635L791.742 489.937C790.767 488.627 789.763 487.325 788.729 486.03C787.88 484.536 787.06 483.056 786.27 481.588L783.96 482.83C782.243 479.641 780.66 476.512 779.207 473.44L781.578 472.319C780.049 469.091 778.667 465.931 777.425 462.841L774.993 463.818C773.634 460.438 772.437 457.135 771.398 453.908L773.895 453.104C772.796 449.692 771.876 446.373 771.125 443.148L768.571 443.742C767.746 440.197 767.12 436.754 766.68 433.415L769.281 433.073C768.816 429.541 768.566 426.135 768.517 422.855L765.894 422.895C765.839 419.249 766.022 415.744 766.426 412.379L769.032 412.692C769.449 409.221 770.108 405.911 770.986 402.762L768.46 402.058C769.427 398.589 770.649 395.3 772.102 392.188L774.478 393.298C775.924 390.202 777.608 387.289 779.5 384.561L777.344 383.066C779.359 380.161 781.6 377.453 784.037 374.945L785.919 376.774C788.269 374.356 790.812 372.126 793.517 370.085L791.938 367.99C794.404 366.13 796.996 364.422 799.694 362.868L800.77 362.26L802.044 364.555C804.998 362.915 808.081 361.458 811.262 360.187L810.288 357.75C813.533 356.452 816.874 355.343 820.281 354.421L820.966 356.953C824.252 356.063 827.603 355.352 830.991 354.819L830.583 352.228C834.05 351.682 837.552 351.318 841.06 351.137L841.196 353.758C842.906 353.669 844.617 353.625 846.327 353.625C848.028 353.625 849.628 353.715 851.135 353.889L851.435 351.281C855.14 351.709 858.39 352.618 861.268 353.966L860.156 356.343C862.991 357.671 865.434 359.473 867.594 361.729L869.489 359.913C871.736 362.26 873.679 365.031 875.413 368.18L873.115 369.445C874.588 372.122 875.918 375.117 877.165 378.417L879.62 377.489C880.762 380.514 881.823 383.752 882.849 387.182L880.334 387.935C881.259 391.025 882.158 394.28 883.069 397.692L885.605 397.016V397.015C886.454 400.197 887.31 403.499 888.2 406.909L888.199 406.91L885.659 407.573C886.495 410.779 887.365 414.088 888.29 417.481L890.823 416.791L890.824 416.79C891.697 419.995 892.618 423.273 893.609 426.615V426.616L891.092 427.363C892.047 430.582 893.067 433.863 894.168 437.196L896.66 436.372Z" fill="#D9D9D9" fill-opacity="0.2" stroke="#C7C7C7" stroke-width="5.25" stroke-linejoin="round" stroke-dasharray="10.5 10.5"/>
<path d="M846.737 371.877C848.472 371.709 850.213 371.625 851.95 371.625C853.676 371.625 855.229 371.799 856.634 372.124L857.224 369.566C860.848 370.403 863.801 372.152 866.275 374.688L864.398 376.52C866.376 378.548 868.078 381.23 869.596 384.585L871.985 383.504C873.318 386.451 874.474 389.791 875.534 393.473L873.013 394.199C873.906 397.302 874.734 400.67 875.551 404.284L878.11 403.705C878.851 406.982 879.577 410.436 880.327 414.044L877.758 414.578C878.449 417.898 879.163 421.366 879.927 424.943L882.495 424.395V424.394C883.21 427.743 883.973 431.189 884.802 434.719L884.799 434.72L882.244 435.32C883.037 438.695 883.895 442.148 884.837 445.666L887.373 444.986V444.985C888.265 448.315 889.235 451.7 890.299 455.128L890.298 455.129L887.792 455.907C888.829 459.249 889.956 462.634 891.191 466.051L893.66 465.158L893.661 465.157C894.838 468.414 896.112 471.699 897.5 475.002V475.003L895.081 476.02C896.442 479.258 897.911 482.517 899.501 485.784L901.862 484.636L901.863 484.635C903.379 487.749 905.008 490.871 906.76 493.993L906.758 493.995L904.469 495.279C906.193 498.352 908.036 501.425 910.008 504.491L912.215 503.071V503.07C914.085 505.977 916.074 508.875 918.19 511.762L918.188 511.765L916.071 513.316C917.124 514.753 918.208 516.187 919.325 517.616C919.364 517.667 919.406 517.716 919.449 517.764C920.558 518.986 921.58 520.249 922.518 521.548L924.645 520.011C926.689 522.84 928.364 525.839 929.699 528.978H929.7L927.285 530.006C928.55 532.98 929.496 536.097 930.147 539.333L932.719 538.814C933.387 542.131 933.757 545.553 933.855 549.051L931.232 549.124C931.323 552.365 931.173 555.687 930.8 559.066L933.406 559.354C933.036 562.708 932.455 566.104 931.685 569.521L929.127 568.944C928.403 572.16 927.505 575.401 926.451 578.646L928.946 579.456C927.895 582.692 926.693 585.924 925.361 589.137L922.938 588.132C921.655 591.225 920.247 594.301 918.73 597.343L921.077 598.514C919.545 601.584 917.906 604.616 916.175 607.594L913.908 606.275C912.203 609.209 910.408 612.089 908.539 614.897L910.721 616.351C908.801 619.235 906.807 622.047 904.751 624.765L902.658 623.182C900.589 625.918 898.46 628.557 896.29 631.081L898.278 632.791C895.986 635.456 893.649 637.997 891.285 640.39L889.418 638.546C886.976 641.018 884.51 643.325 882.045 645.444L883.756 647.435C881.04 649.77 878.316 651.885 875.618 653.753L874.125 651.598C871.215 653.613 868.358 655.312 865.595 656.663L866.748 659.019C863.395 660.658 860.139 661.828 857.042 662.458L856.518 659.887C854.917 660.213 853.392 660.375 851.95 660.375C850.256 660.375 848.813 660.151 847.575 659.753L846.772 662.252C843.378 661.161 840.888 658.904 839.065 655.656L841.354 654.372C840.053 652.054 839.077 649.036 838.379 645.305L835.8 645.787C835.221 642.689 834.843 639.23 834.601 635.461L837.22 635.294C837.015 632.099 836.909 628.661 836.862 625.002L834.239 625.035C834.196 621.709 834.2 618.221 834.223 614.592L836.847 614.608C836.868 611.241 836.905 607.777 836.931 604.176L834.306 604.157L834.304 604.156C834.329 600.769 834.346 597.291 834.333 593.737L836.959 593.728C836.947 590.297 836.908 586.791 836.822 583.227L834.198 583.29H834.196C834.114 579.868 833.988 576.395 833.804 572.881H833.806L836.427 572.743C836.246 569.279 836.007 565.774 835.696 562.238L833.082 562.469H833.079C832.776 559.036 832.406 555.577 831.95 552.104H831.951L834.553 551.762C834.098 548.298 833.561 544.817 832.925 541.329L830.342 541.8H830.339C829.719 538.397 829.008 534.991 828.187 531.591H828.188L830.74 530.975C829.917 527.564 828.987 524.158 827.936 520.765L825.428 521.541H825.425C824.403 518.239 823.267 514.952 822.001 511.691H822.002L824.45 510.742C823.177 507.463 821.776 504.206 820.235 500.982L817.867 502.115L817.864 502.116C816.379 499.01 814.764 495.936 813.002 492.904L815.273 491.586C814.417 490.113 813.527 488.649 812.603 487.195C811.866 485.566 811.16 483.954 810.486 482.36L808.07 483.382C806.602 479.911 805.278 476.52 804.094 473.21L806.564 472.326C805.303 468.803 804.204 465.376 803.256 462.045L800.734 462.763C799.695 459.112 798.832 455.57 798.139 452.136L800.712 451.617C799.976 447.968 799.434 444.45 799.072 441.063L796.462 441.342C796.107 438.018 795.919 434.81 795.888 431.719L795.884 430.416L798.509 430.428C798.525 426.716 798.776 423.189 799.237 419.847L796.639 419.488C797.161 415.706 797.942 412.14 798.956 408.787L801.467 409.547C802.52 406.065 803.831 402.833 805.359 399.848L803.022 398.651C804.74 395.295 806.727 392.228 808.934 389.445L810.99 391.076C813.195 388.296 815.632 385.817 818.248 383.638L816.568 381.621C819.41 379.254 822.453 377.221 825.639 375.522L826.875 377.839C829.962 376.192 833.193 374.873 836.505 373.882L835.752 371.368C839.265 370.317 842.864 369.616 846.483 369.265L846.737 371.877Z" fill="#D9D9D9" fill-opacity="0.2" stroke="#C7C7C7" stroke-width="5.25" stroke-linejoin="round" stroke-dasharray="10.5 10.5"/>
</g>
<rect x="6" y="6" width="1011.24" height="627.48" stroke="black" stroke-width="12"/>
<defs>
<clipPath id="clip0_409_1709">
<rect width="1023.24" height="639.48" fill="white"/>
</clipPath>
</defs>
</svg>
