<svg width="1030" height="634" viewBox="0 0 1030 634" fill="none" xmlns="http://www.w3.org/2000/svg">
<g clip-path="url(#clip0_617_2424)">
<rect width="1029.6" height="633.6" fill="white"/>
<line x1="-0.000488281" y1="314.165" x2="1029.6" y2="314.165" stroke="black" stroke-width="5.28"/>
<line x1="351.116" y1="1.15398e-07" x2="351.116" y2="633.6" stroke="black" stroke-width="5.28"/>
<line x1="522.717" y1="2.30796e-07" x2="522.717" y2="633.6" stroke="black" stroke-width="10.56"/>
<line x1="689.038" y1="1.15398e-07" x2="689.038" y2="633.6" stroke="black" stroke-width="5.28"/>
<rect x="410.419" y="212.34" width="208.56" height="208.56" rx="104.28" fill="white"/>
<rect x="410.419" y="212.34" width="208.56" height="208.56" rx="104.28" stroke="#D9D9D9" stroke-width="2.64"/>
<path d="M549.416 369.418L518.396 338.398C515.844 340.686 513.007 342.358 509.885 343.414C506.763 344.47 503.616 344.998 500.444 344.998C496.924 344.998 493.515 344.338 490.217 343.018C486.919 341.698 483.948 339.718 481.304 337.078L461.24 317.146C459.744 315.65 458.6 313.913 457.808 311.935C457.016 309.957 456.62 307.954 456.62 305.926C456.62 303.899 457.016 301.898 457.808 299.923C458.6 297.948 459.744 296.209 461.24 294.706L482.228 273.718C483.724 272.222 485.463 271.078 487.445 270.286C489.427 269.494 491.426 269.098 493.443 269.098C495.46 269.098 497.463 269.494 499.451 270.286C501.44 271.078 503.177 272.222 504.663 273.718L524.595 293.782C527.235 296.422 529.215 299.393 530.535 302.695C531.855 305.997 532.515 309.406 532.515 312.922C532.515 316.09 531.966 319.237 530.867 322.363C529.769 325.489 528.076 328.326 525.788 330.874L556.94 362.026L549.416 369.418ZM554.3 300.778C549.196 300.778 544.84 298.974 541.232 295.366C537.624 291.758 535.82 287.402 535.82 282.298C535.82 277.194 537.624 272.838 541.232 269.23C544.84 265.622 549.196 263.818 554.3 263.818C559.404 263.818 563.76 265.622 567.368 269.23C570.976 272.838 572.78 277.194 572.78 282.298C572.78 287.402 570.976 291.758 567.368 295.366C563.76 298.974 559.404 300.778 554.3 300.778Z" fill="black"/>
<rect width="300.48" height="72" transform="translate(364.32 89.7539)" fill="white"/>
<path d="M368.325 151.754V105.674H386.505C390 105.674 392.977 106.341 395.437 107.676C397.897 108.996 399.772 110.834 401.062 113.189C402.367 115.529 403.02 118.229 403.02 121.289C403.02 124.349 402.36 127.049 401.04 129.389C399.72 131.729 397.807 133.551 395.302 134.856C392.812 136.161 389.797 136.814 386.257 136.814H374.67V129.006H384.682C386.557 129.006 388.102 128.684 389.317 128.039C390.547 127.379 391.462 126.471 392.062 125.316C392.677 124.146 392.985 122.804 392.985 121.289C392.985 119.759 392.677 118.424 392.062 117.284C391.462 116.129 390.547 115.236 389.317 114.606C388.087 113.961 386.527 113.639 384.637 113.639H378.067V151.754H368.325ZM409.168 151.754V117.194H418.753V151.754H409.168ZM413.983 112.739C412.558 112.739 411.335 112.266 410.315 111.321C409.31 110.361 408.808 109.214 408.808 107.879C408.808 106.559 409.31 105.426 410.315 104.481C411.335 103.521 412.558 103.041 413.983 103.041C415.408 103.041 416.623 103.521 417.628 104.481C418.648 105.426 419.158 106.559 419.158 107.879C419.158 109.214 418.648 110.361 417.628 111.321C416.623 112.266 415.408 112.739 413.983 112.739ZM442.046 152.429C438.506 152.429 435.461 151.679 432.911 150.179C430.376 148.664 428.426 146.564 427.061 143.879C425.711 141.194 425.036 138.104 425.036 134.609C425.036 131.069 425.719 127.964 427.084 125.294C428.464 122.609 430.421 120.516 432.956 119.016C435.491 117.501 438.506 116.744 442.001 116.744C445.016 116.744 447.656 117.291 449.921 118.386C452.186 119.481 453.979 121.019 455.299 122.999C456.619 124.979 457.346 127.304 457.481 129.974H448.436C448.181 128.249 447.506 126.861 446.411 125.811C445.331 124.746 443.914 124.214 442.159 124.214C440.674 124.214 439.376 124.619 438.266 125.429C437.171 126.224 436.316 127.386 435.701 128.916C435.086 130.446 434.779 132.299 434.779 134.474C434.779 136.679 435.079 138.554 435.679 140.099C436.294 141.644 437.156 142.821 438.266 143.631C439.376 144.441 440.674 144.846 442.159 144.846C443.254 144.846 444.236 144.621 445.106 144.171C445.991 143.721 446.719 143.069 447.289 142.214C447.874 141.344 448.256 140.301 448.436 139.086H457.481C457.331 141.726 456.611 144.051 455.321 146.061C454.046 148.056 452.284 149.616 450.034 150.741C447.784 151.866 445.121 152.429 442.046 152.429ZM472.303 141.809L472.325 130.311H473.72L484.79 117.194H495.793L480.92 134.564H478.648L472.303 141.809ZM463.618 151.754V105.674H473.203V151.754H463.618ZM485.218 151.754L475.048 136.701L481.438 129.929L496.445 151.754H485.218ZM510.08 105.674V151.754H500.495V105.674H510.08ZM533.509 152.429C529.954 152.429 526.894 151.709 524.329 150.269C521.779 148.814 519.814 146.759 518.434 144.104C517.054 141.434 516.364 138.276 516.364 134.631C516.364 131.076 517.054 127.956 518.434 125.271C519.814 122.586 521.756 120.494 524.261 118.994C526.781 117.494 529.736 116.744 533.126 116.744C535.406 116.744 537.529 117.111 539.494 117.846C541.474 118.566 543.199 119.654 544.669 121.109C546.154 122.564 547.309 124.394 548.134 126.599C548.959 128.789 549.371 131.354 549.371 134.294V136.926H520.189V130.986H540.349C540.349 129.606 540.049 128.384 539.449 127.319C538.849 126.254 538.016 125.421 536.951 124.821C535.901 124.206 534.679 123.899 533.284 123.899C531.829 123.899 530.539 124.236 529.414 124.911C528.304 125.571 527.434 126.464 526.804 127.589C526.174 128.699 525.851 129.936 525.836 131.301V136.949C525.836 138.659 526.151 140.136 526.781 141.381C527.426 142.626 528.334 143.586 529.504 144.261C530.674 144.936 532.061 145.274 533.666 145.274C534.731 145.274 535.706 145.124 536.591 144.824C537.476 144.524 538.234 144.074 538.864 143.474C539.494 142.874 539.974 142.139 540.304 141.269L549.169 141.854C548.719 143.984 547.796 145.844 546.401 147.434C545.021 149.009 543.236 150.239 541.046 151.124C538.871 151.994 536.359 152.429 533.509 152.429ZM555.806 151.754V105.674H565.391V122.999H565.684C566.104 122.069 566.711 121.124 567.506 120.164C568.316 119.189 569.366 118.379 570.656 117.734C571.961 117.074 573.581 116.744 575.516 116.744C578.036 116.744 580.361 117.404 582.491 118.724C584.621 120.029 586.324 122.001 587.599 124.641C588.874 127.266 589.511 130.559 589.511 134.519C589.511 138.374 588.889 141.629 587.644 144.284C586.414 146.924 584.734 148.926 582.604 150.291C580.489 151.641 578.119 152.316 575.494 152.316C573.634 152.316 572.051 152.009 570.746 151.394C569.456 150.779 568.399 150.006 567.574 149.076C566.749 148.131 566.119 147.179 565.684 146.219H565.256V151.754H555.806ZM565.189 134.474C565.189 136.529 565.474 138.321 566.044 139.851C566.614 141.381 567.439 142.574 568.519 143.429C569.599 144.269 570.911 144.689 572.456 144.689C574.016 144.689 575.336 144.261 576.416 143.406C577.496 142.536 578.314 141.336 578.869 139.806C579.439 138.261 579.724 136.484 579.724 134.474C579.724 132.479 579.446 130.724 578.891 129.209C578.336 127.694 577.519 126.509 576.439 125.654C575.359 124.799 574.031 124.371 572.456 124.371C570.896 124.371 569.576 124.784 568.496 125.609C567.431 126.434 566.614 127.604 566.044 129.119C565.474 130.634 565.189 132.419 565.189 134.474ZM605.762 152.406C603.557 152.406 601.592 152.024 599.867 151.259C598.142 150.479 596.777 149.331 595.772 147.816C594.782 146.286 594.287 144.381 594.287 142.101C594.287 140.181 594.639 138.569 595.344 137.264C596.049 135.959 597.009 134.909 598.224 134.114C599.439 133.319 600.819 132.719 602.364 132.314C603.924 131.909 605.559 131.624 607.269 131.459C609.279 131.249 610.899 131.054 612.129 130.874C613.359 130.679 614.252 130.394 614.807 130.019C615.362 129.644 615.639 129.089 615.639 128.354V128.219C615.639 126.794 615.189 125.691 614.289 124.911C613.404 124.131 612.144 123.741 610.509 123.741C608.784 123.741 607.412 124.124 606.392 124.889C605.372 125.639 604.697 126.584 604.367 127.724L595.502 127.004C595.952 124.904 596.837 123.089 598.157 121.559C599.477 120.014 601.179 118.829 603.264 118.004C605.364 117.164 607.794 116.744 610.554 116.744C612.474 116.744 614.312 116.969 616.067 117.419C617.837 117.869 619.404 118.566 620.769 119.511C622.149 120.456 623.237 121.671 624.032 123.156C624.827 124.626 625.224 126.389 625.224 128.444V151.754H616.134V146.961H615.864C615.309 148.041 614.567 148.994 613.637 149.819C612.707 150.629 611.589 151.266 610.284 151.731C608.979 152.181 607.472 152.406 605.762 152.406ZM608.507 145.791C609.917 145.791 611.162 145.514 612.242 144.959C613.322 144.389 614.169 143.624 614.784 142.664C615.399 141.704 615.707 140.616 615.707 139.401V135.734C615.407 135.929 614.994 136.109 614.469 136.274C613.959 136.424 613.382 136.566 612.737 136.701C612.092 136.821 611.447 136.934 610.802 137.039C610.157 137.129 609.572 137.211 609.047 137.286C607.922 137.451 606.939 137.714 606.099 138.074C605.259 138.434 604.607 138.921 604.142 139.536C603.677 140.136 603.444 140.886 603.444 141.786C603.444 143.091 603.917 144.089 604.862 144.779C605.822 145.454 607.037 145.791 608.507 145.791ZM642.245 105.674V151.754H632.66V105.674H642.245ZM659.509 105.674V151.754H649.924V105.674H659.509Z" fill="black"/>
</g>
<rect x="5.28" y="5.28" width="1019.04" height="623.04" stroke="black" stroke-width="10.56"/>
<defs>
<clipPath id="clip0_617_2424">
<rect width="1029.6" height="633.6" fill="white"/>
</clipPath>
</defs>
</svg>
