<svg width="476" height="317" viewBox="0 0 476 317" fill="none" xmlns="http://www.w3.org/2000/svg">
<g clip-path="url(#clip0_617_2458)">
<rect width="475.2" height="316.8" fill="white"/>
<rect x="154.421" y="75.3395" width="166.32" height="166.32" rx="83.16" fill="white"/>
<rect x="154.421" y="75.3395" width="166.32" height="166.32" rx="83.16" stroke="#D9D9D9" stroke-width="2.64"/>
<path d="M251.66 140.896L258.7 172.576M223.5 140.896L216.46 172.576M212.94 140.896H262.22M269.26 158.496H205.9" stroke="black" stroke-width="7.04" stroke-linecap="round" stroke-linejoin="round"/>
<line x1="238.888" y1="-2.9842" x2="-14.5525" y2="139.576" stroke="black" stroke-width="5.28"/>
<line x1="233.614" y1="-24.1014" x2="-19.8259" y2="118.459" stroke="black" stroke-width="5.28"/>
<line x1="100.975" y1="59.2242" x2="-9.90529" y2="122.584" stroke="black" stroke-width="2.64"/>
<line x1="132.654" y1="48.6656" x2="21.7744" y2="112.026" stroke="black" stroke-width="2.64"/>
<line x1="222.42" y1="-9.41251" x2="111.54" y2="53.9475" stroke="black" stroke-width="2.64"/>
<line x1="254.092" y1="-19.9711" x2="143.212" y2="43.3889" stroke="black" stroke-width="2.64"/>
<line y1="-1.32" x2="127.706" y2="-1.32" transform="matrix(0.868243 0.496139 0.496139 -0.868243 369.593 52.8047)" stroke="black" stroke-width="2.64"/>
<line y1="-1.32" x2="127.706" y2="-1.32" transform="matrix(0.868243 0.496139 0.496139 -0.868243 337.921 42.2344)" stroke="black" stroke-width="2.64"/>
<line y1="-1.32" x2="127.706" y2="-1.32" transform="matrix(0.868243 0.496139 0.496139 -0.868243 248.156 -15.8438)" stroke="black" stroke-width="2.64"/>
<line y1="-1.32" x2="127.706" y2="-1.32" transform="matrix(0.868243 0.496139 0.496139 -0.868243 216.476 -26.4023)" stroke="black" stroke-width="2.64"/>
<line x1="238.888" y1="-2.30096" x2="492.328" y2="140.259" stroke="black" stroke-width="5.28"/>
<line x1="244.177" y1="-23.4181" x2="497.617" y2="119.142" stroke="black" stroke-width="5.28"/>
<rect width="336" height="60" transform="translate(81.5933 26.4023)" fill="white"/>
<path d="M84.6274 72.4023V37.4933H98.4001C101.048 37.4933 103.303 37.9989 105.167 39.0103C107.031 40.0103 108.451 41.4023 109.428 43.1864C110.417 44.9592 110.911 47.0046 110.911 49.3228C110.911 51.641 110.411 53.6864 109.411 55.4592C108.411 57.2319 106.963 58.6126 105.065 59.6012C103.178 60.5898 100.894 61.0842 98.2126 61.0842H89.4342V55.1694H97.0194C98.4399 55.1694 99.6103 54.9251 100.531 54.4364C101.463 53.9364 102.156 53.2489 102.61 52.3739C103.076 51.4876 103.309 50.4705 103.309 49.3228C103.309 48.1637 103.076 47.1523 102.61 46.2887C102.156 45.4137 101.463 44.7376 100.531 44.2603C99.5989 43.7717 98.4171 43.5273 96.9853 43.5273H92.008V72.4023H84.6274ZM115.569 72.4023V46.2205H122.83V72.4023H115.569ZM119.217 42.8455C118.137 42.8455 117.211 42.4876 116.438 41.7717C115.677 41.0444 115.296 40.1751 115.296 39.1637C115.296 38.1637 115.677 37.3058 116.438 36.5898C117.211 35.8626 118.137 35.4989 119.217 35.4989C120.296 35.4989 121.217 35.8626 121.978 36.5898C122.751 37.3058 123.137 38.1637 123.137 39.1637C123.137 40.1751 122.751 41.0444 121.978 41.7717C121.217 42.4876 120.296 42.8455 119.217 42.8455ZM140.477 72.9137C137.795 72.9137 135.488 72.3455 133.556 71.2092C131.636 70.0614 130.159 68.4705 129.125 66.4364C128.102 64.4023 127.59 62.0614 127.59 59.4137C127.59 56.7319 128.107 54.3796 129.142 52.3569C130.187 50.3228 131.67 48.7376 133.59 47.6012C135.511 46.4535 137.795 45.8796 140.443 45.8796C142.727 45.8796 144.727 46.2944 146.443 47.1239C148.159 47.9535 149.517 49.1183 150.517 50.6183C151.517 52.1183 152.068 53.8796 152.17 55.9023H145.318C145.125 54.5955 144.613 53.5444 143.784 52.7489C142.965 51.9421 141.892 51.5387 140.562 51.5387C139.437 51.5387 138.454 51.8455 137.613 52.4592C136.784 53.0614 136.136 53.9421 135.67 55.1012C135.204 56.2603 134.971 57.6637 134.971 59.3114C134.971 60.9819 135.198 62.4023 135.653 63.5728C136.119 64.7433 136.772 65.6353 137.613 66.2489C138.454 66.8626 139.437 67.1694 140.562 67.1694C141.392 67.1694 142.136 66.9989 142.795 66.658C143.465 66.3171 144.017 65.8228 144.448 65.1751C144.892 64.516 145.181 63.7262 145.318 62.8058H152.17C152.056 64.8058 151.511 66.5671 150.534 68.0898C149.568 69.6012 148.232 70.783 146.528 71.6353C144.823 72.4876 142.806 72.9137 140.477 72.9137ZM164.08 57.266V72.4023H156.819V46.2205H163.74V50.8398H164.046C164.626 49.3171 165.598 48.1126 166.961 47.2262C168.325 46.3285 169.978 45.8796 171.921 45.8796C173.74 45.8796 175.325 46.2773 176.677 47.0728C178.029 47.8683 179.08 49.0046 179.83 50.4819C180.58 51.9478 180.955 53.6978 180.955 55.7319V72.4023H173.694V57.0273C173.705 55.4251 173.296 54.1751 172.467 53.2773C171.637 52.3683 170.495 51.9137 169.041 51.9137C168.063 51.9137 167.2 52.1239 166.45 52.5444C165.711 52.9648 165.132 53.5785 164.711 54.3853C164.302 55.1808 164.092 56.141 164.08 57.266ZM186.678 72.4023V46.2205H193.94V72.4023H186.678ZM190.326 42.8455C189.247 42.8455 188.321 42.4876 187.548 41.7717C186.786 41.0444 186.406 40.1751 186.406 39.1637C186.406 38.1637 186.786 37.3058 187.548 36.5898C188.321 35.8626 189.247 35.4989 190.326 35.4989C191.406 35.4989 192.326 35.8626 193.088 36.5898C193.86 37.3058 194.247 38.1637 194.247 39.1637C194.247 40.1751 193.86 41.0444 193.088 41.7717C192.326 42.4876 191.406 42.8455 190.326 42.8455ZM211.586 72.9137C208.904 72.9137 206.598 72.3455 204.666 71.2092C202.745 70.0614 201.268 68.4705 200.234 66.4364C199.211 64.4023 198.7 62.0614 198.7 59.4137C198.7 56.7319 199.217 54.3796 200.251 52.3569C201.296 50.3228 202.779 48.7376 204.7 47.6012C206.62 46.4535 208.904 45.8796 211.552 45.8796C213.836 45.8796 215.836 46.2944 217.552 47.1239C219.268 47.9535 220.626 49.1183 221.626 50.6183C222.626 52.1183 223.177 53.8796 223.279 55.9023H216.427C216.234 54.5955 215.723 53.5444 214.893 52.7489C214.075 51.9421 213.001 51.5387 211.671 51.5387C210.546 51.5387 209.563 51.8455 208.723 52.4592C207.893 53.0614 207.245 53.9421 206.779 55.1012C206.313 56.2603 206.08 57.6637 206.08 59.3114C206.08 60.9819 206.308 62.4023 206.762 63.5728C207.228 64.7433 207.882 65.6353 208.723 66.2489C209.563 66.8626 210.546 67.1694 211.671 67.1694C212.501 67.1694 213.245 66.9989 213.904 66.658C214.575 66.3171 215.126 65.8228 215.558 65.1751C216.001 64.516 216.291 63.7262 216.427 62.8058H223.279C223.166 64.8058 222.62 66.5671 221.643 68.0898C220.677 69.6012 219.342 70.783 217.637 71.6353C215.933 72.4876 213.916 72.9137 211.586 72.9137ZM258.112 47.533C257.975 46.158 257.39 45.0898 256.356 44.3285C255.322 43.5671 253.919 43.1864 252.146 43.1864C250.941 43.1864 249.924 43.3569 249.095 43.6978C248.265 44.0273 247.629 44.4876 247.186 45.0785C246.754 45.6694 246.538 46.3398 246.538 47.0898C246.515 47.7148 246.646 48.2603 246.93 48.7262C247.225 49.1921 247.629 49.5955 248.14 49.9364C248.652 50.266 249.242 50.5558 249.913 50.8058C250.583 51.0444 251.299 51.2489 252.061 51.4194L255.197 52.1694C256.72 52.5103 258.117 52.9648 259.39 53.533C260.663 54.1012 261.765 54.8001 262.697 55.6296C263.629 56.4592 264.35 57.4364 264.862 58.5614C265.384 59.6864 265.652 60.9762 265.663 62.4308C265.652 64.5671 265.106 66.4194 264.027 67.9876C262.958 69.5444 261.413 70.7546 259.39 71.6183C257.379 72.4705 254.953 72.8967 252.112 72.8967C249.294 72.8967 246.839 72.4648 244.748 71.6012C242.669 70.7376 241.044 69.4592 239.873 67.766C238.714 66.0614 238.106 63.9535 238.049 61.4421H245.191C245.271 62.6126 245.606 63.5898 246.197 64.3739C246.799 65.1467 247.6 65.7319 248.6 66.1296C249.612 66.516 250.754 66.7092 252.027 66.7092C253.277 66.7092 254.362 66.5273 255.282 66.1637C256.214 65.8001 256.936 65.2944 257.447 64.6467C257.958 63.9989 258.214 63.2546 258.214 62.4137C258.214 61.6296 257.981 60.9705 257.515 60.4364C257.061 59.9023 256.39 59.4478 255.504 59.0728C254.629 58.6978 253.555 58.3569 252.282 58.0501L248.481 57.0955C245.538 56.3796 243.214 55.2603 241.509 53.7376C239.805 52.2148 238.958 50.1637 238.97 47.5842C238.958 45.4705 239.521 43.6239 240.657 42.0444C241.805 40.4648 243.379 39.2319 245.379 38.3455C247.379 37.4592 249.652 37.016 252.197 37.016C254.788 37.016 257.049 37.4592 258.981 38.3455C260.924 39.2319 262.436 40.4648 263.515 42.0444C264.595 43.6239 265.152 45.4535 265.186 47.533H258.112ZM277.752 57.266V72.4023H270.491V37.4933H277.548V50.8398H277.855C278.446 49.2944 279.4 48.0842 280.718 47.2092C282.036 46.3228 283.69 45.8796 285.678 45.8796C287.497 45.8796 289.082 46.2773 290.434 47.0728C291.798 47.8569 292.855 48.9876 293.605 50.4648C294.366 51.9308 294.741 53.6864 294.73 55.7319V72.4023H287.468V57.0273C287.48 55.4137 287.071 54.158 286.241 53.2603C285.423 52.3626 284.275 51.9137 282.798 51.9137C281.809 51.9137 280.934 52.1239 280.173 52.5444C279.423 52.9648 278.832 53.5785 278.4 54.3853C277.98 55.1808 277.764 56.141 277.752 57.266ZM312.376 72.9137C309.683 72.9137 307.365 72.3683 305.421 71.2773C303.49 70.1751 302.001 68.6183 300.955 66.6069C299.91 64.5842 299.387 62.1921 299.387 59.4308C299.387 56.7376 299.91 54.3739 300.955 52.3398C302.001 50.3058 303.473 48.7205 305.37 47.5842C307.279 46.4478 309.518 45.8796 312.086 45.8796C313.813 45.8796 315.421 46.158 316.91 46.7148C318.41 47.2603 319.717 48.0842 320.83 49.1864C321.955 50.2887 322.83 51.6751 323.455 53.3455C324.08 55.0046 324.393 56.9478 324.393 59.1751V61.1694H302.285V56.6694H317.558C317.558 55.6239 317.33 54.6978 316.876 53.891C316.421 53.0842 315.791 52.4535 314.984 51.9989C314.188 51.533 313.262 51.3001 312.205 51.3001C311.103 51.3001 310.126 51.5558 309.274 52.0671C308.433 52.5671 307.774 53.2433 307.296 54.0955C306.819 54.9364 306.575 55.8739 306.563 56.908V61.1864C306.563 62.4819 306.802 63.6012 307.279 64.5444C307.768 65.4876 308.455 66.2148 309.342 66.7262C310.228 67.2376 311.279 67.4933 312.495 67.4933C313.302 67.4933 314.041 67.3796 314.711 67.1523C315.382 66.9251 315.955 66.5842 316.433 66.1296C316.91 65.6751 317.274 65.1183 317.524 64.4592L324.24 64.9023C323.899 66.516 323.2 67.9251 322.143 69.1296C321.098 70.3228 319.745 71.2546 318.086 71.9251C316.438 72.5842 314.535 72.9137 312.376 72.9137ZM336.393 37.4933V72.4023H329.132V37.4933H336.393ZM356.136 46.2205V51.6751H340.369V46.2205H356.136ZM343.948 39.9478H351.21V64.3569C351.21 65.0273 351.312 65.5501 351.517 65.9251C351.721 66.2887 352.005 66.5444 352.369 66.6921C352.744 66.8398 353.176 66.9137 353.664 66.9137C354.005 66.9137 354.346 66.8853 354.687 66.8285C355.028 66.7603 355.289 66.7092 355.471 66.6751L356.613 72.0785C356.25 72.1921 355.738 72.3228 355.079 72.4705C354.42 72.6296 353.619 72.7262 352.676 72.7603C350.926 72.8285 349.392 72.5955 348.073 72.0614C346.767 71.5273 345.75 70.6978 345.022 69.5728C344.295 68.4478 343.937 67.0273 343.948 65.3114V39.9478ZM372.517 72.9137C369.823 72.9137 367.505 72.3683 365.562 71.2773C363.63 70.1751 362.142 68.6183 361.096 66.6069C360.051 64.5842 359.528 62.1921 359.528 59.4308C359.528 56.7376 360.051 54.3739 361.096 52.3398C362.142 50.3058 363.613 48.7205 365.511 47.5842C367.42 46.4478 369.659 45.8796 372.227 45.8796C373.954 45.8796 375.562 46.158 377.051 46.7148C378.551 47.2603 379.857 48.0842 380.971 49.1864C382.096 50.2887 382.971 51.6751 383.596 53.3455C384.221 55.0046 384.534 56.9478 384.534 59.1751V61.1694H362.426V56.6694H377.698C377.698 55.6239 377.471 54.6978 377.017 53.891C376.562 53.0842 375.931 52.4535 375.125 51.9989C374.329 51.533 373.403 51.3001 372.346 51.3001C371.244 51.3001 370.267 51.5558 369.414 52.0671C368.573 52.5671 367.914 53.2433 367.437 54.0955C366.96 54.9364 366.715 55.8739 366.704 56.908V61.1864C366.704 62.4819 366.943 63.6012 367.42 64.5444C367.909 65.4876 368.596 66.2148 369.482 66.7262C370.369 67.2376 371.42 67.4933 372.636 67.4933C373.443 67.4933 374.181 67.3796 374.852 67.1523C375.522 66.9251 376.096 66.5842 376.573 66.1296C377.051 65.6751 377.414 65.1183 377.664 64.4592L384.38 64.9023C384.039 66.516 383.34 67.9251 382.284 69.1296C381.238 70.3228 379.886 71.2546 378.227 71.9251C376.579 72.5842 374.676 72.9137 372.517 72.9137ZM389.272 72.4023V46.2205H396.312V50.7887H396.585C397.062 49.1637 397.863 47.9364 398.988 47.1069C400.113 46.266 401.409 45.8455 402.875 45.8455C403.238 45.8455 403.63 45.8683 404.051 45.9137C404.471 45.9592 404.84 46.0217 405.159 46.1012V52.5444C404.818 52.4421 404.346 52.3512 403.744 52.2717C403.142 52.1921 402.59 52.1523 402.09 52.1523C401.022 52.1523 400.068 52.3853 399.227 52.8512C398.397 53.3058 397.738 53.9421 397.25 54.7603C396.772 55.5785 396.534 56.5217 396.534 57.5898V72.4023H389.272Z" fill="black"/>
<path d="M99.1462 258.715L114.4 327.355M38.1328 258.715L22.8795 327.355M15.2528 258.715H122.026M137.28 296.848H-0.000488281" stroke="black" stroke-width="7.04" stroke-linecap="round" stroke-linejoin="round"/>
<path d="M141.381 258.715L156.634 327.355M80.3672 258.715L65.1139 327.355M57.4872 258.715H164.261M179.514 296.848H42.2339" stroke="black" stroke-width="7.04" stroke-linecap="round" stroke-linejoin="round"/>
<path d="M437.068 258.715L452.321 327.355M376.055 258.715L360.801 327.355M353.175 258.715H459.948M475.201 296.848H337.921" stroke="black" stroke-width="7.04" stroke-linecap="round" stroke-linejoin="round"/>
<path d="M394.818 258.715L410.071 327.355M333.805 258.715L318.551 327.355M310.925 258.715H417.698M432.951 296.848H295.671" stroke="black" stroke-width="7.04" stroke-linecap="round" stroke-linejoin="round"/>
</g>
<rect x="6" y="6" width="463.2" height="304.8" stroke="black" stroke-width="12"/>
<defs>
<clipPath id="clip0_617_2458">
<rect width="475.2" height="316.8" fill="white"/>
</clipPath>
</defs>
</svg>
