<svg width="2046" height="1023" viewBox="0 0 2046 1023" fill="none" xmlns="http://www.w3.org/2000/svg">
<g clip-path="url(#clip0_617_2562)">
<rect width="2045.76" height="1022.88" fill="white"/>
<circle cx="1010.09" cy="478.191" r="255.72" fill="white" stroke="black" stroke-width="5.1144"/>
<circle cx="1010.08" cy="478.188" r="240.377" fill="white" stroke="black" stroke-width="5.1144"/>
<path d="M842.637 181.742V137.107H860.247C863.632 137.107 866.516 137.754 868.899 139.047C871.282 140.326 873.098 142.106 874.347 144.387C875.612 146.653 876.244 149.269 876.244 152.233C876.244 155.197 875.604 157.812 874.326 160.079C873.047 162.345 871.195 164.111 868.768 165.375C866.356 166.639 863.436 167.271 860.007 167.271H848.783V159.708H858.481C860.297 159.708 861.794 159.396 862.971 158.771C864.162 158.132 865.049 157.253 865.63 156.134C866.225 155.001 866.523 153.7 866.523 152.233C866.523 150.751 866.225 149.458 865.63 148.353C865.049 147.235 864.162 146.37 862.971 145.76C861.779 145.135 860.268 144.823 858.438 144.823H852.074V181.742H842.637ZM891.483 137.107V181.742H882.199V137.107H891.483ZM908.466 182.374C906.331 182.374 904.427 182.004 902.756 181.263C901.085 180.507 899.763 179.396 898.79 177.928C897.831 176.446 897.351 174.601 897.351 172.392C897.351 170.533 897.693 168.971 898.376 167.707C899.059 166.443 899.988 165.426 901.165 164.655C902.342 163.885 903.679 163.304 905.176 162.912C906.687 162.52 908.27 162.244 909.927 162.084C911.874 161.88 913.443 161.691 914.634 161.517C915.826 161.328 916.69 161.052 917.228 160.689C917.765 160.326 918.034 159.788 918.034 159.076V158.945C918.034 157.565 917.598 156.497 916.726 155.742C915.869 154.986 914.649 154.608 913.065 154.608C911.394 154.608 910.065 154.979 909.077 155.72C908.089 156.446 907.435 157.362 907.115 158.466L898.528 157.768C898.964 155.734 899.821 153.976 901.1 152.494C902.379 150.998 904.028 149.85 906.047 149.051C908.081 148.237 910.435 147.83 913.109 147.83C914.968 147.83 916.748 148.048 918.448 148.484C920.163 148.92 921.681 149.596 923.003 150.511C924.34 151.426 925.393 152.603 926.163 154.042C926.934 155.466 927.319 157.173 927.319 159.163V181.742H918.514V177.1H918.252C917.715 178.146 916.995 179.069 916.094 179.868C915.194 180.652 914.111 181.27 912.847 181.72C911.583 182.156 910.123 182.374 908.466 182.374ZM911.125 175.967C912.491 175.967 913.697 175.698 914.743 175.16C915.789 174.608 916.61 173.867 917.206 172.937C917.802 172.007 918.1 170.954 918.1 169.777V166.225C917.809 166.414 917.409 166.588 916.901 166.748C916.407 166.893 915.847 167.031 915.223 167.162C914.598 167.278 913.973 167.387 913.348 167.489C912.724 167.576 912.157 167.656 911.648 167.728C910.559 167.888 909.607 168.143 908.793 168.491C907.98 168.84 907.348 169.312 906.897 169.908C906.447 170.489 906.222 171.216 906.222 172.087C906.222 173.351 906.679 174.318 907.595 174.986C908.525 175.64 909.701 175.967 911.125 175.967ZM939.055 194.296C937.878 194.296 936.774 194.201 935.742 194.012C934.725 193.838 933.882 193.613 933.214 193.337L935.306 186.406C936.396 186.74 937.377 186.922 938.248 186.951C939.135 186.98 939.897 186.777 940.537 186.341C941.191 185.905 941.721 185.164 942.128 184.118L942.673 182.701L930.664 148.266H940.428L947.358 172.85H947.707L954.703 148.266H964.532L951.521 185.36C950.896 187.162 950.046 188.731 948.971 190.068C947.911 191.419 946.567 192.458 944.939 193.184C943.312 193.925 941.35 194.296 939.055 194.296ZM983.286 194.993C980.279 194.993 977.7 194.579 975.549 193.751C973.414 192.937 971.714 191.826 970.449 190.416C969.185 189.007 968.365 187.423 967.987 185.665L976.574 184.51C976.835 185.178 977.249 185.803 977.816 186.384C978.383 186.966 979.131 187.431 980.061 187.779C981.005 188.142 982.153 188.324 983.504 188.324C985.524 188.324 987.188 187.83 988.495 186.842C989.817 185.869 990.478 184.234 990.478 181.938V175.814H990.086C989.679 176.744 989.069 177.623 988.255 178.451C987.442 179.279 986.396 179.955 985.117 180.478C983.838 181.001 982.313 181.263 980.54 181.263C978.027 181.263 975.738 180.682 973.675 179.519C971.626 178.342 969.992 176.548 968.771 174.136C967.565 171.71 966.962 168.644 966.962 164.939C966.962 161.147 967.58 157.979 968.815 155.436C970.05 152.894 971.692 150.99 973.74 149.726C975.804 148.462 978.063 147.83 980.518 147.83C982.393 147.83 983.962 148.15 985.226 148.789C986.49 149.414 987.507 150.199 988.277 151.143C989.062 152.073 989.665 152.988 990.086 153.889H990.435V148.266H999.654V182.069C999.654 184.917 998.956 187.3 997.562 189.218C996.167 191.136 994.234 192.574 991.764 193.533C989.309 194.506 986.483 194.993 983.286 194.993ZM983.482 174.289C984.979 174.289 986.243 173.918 987.275 173.177C988.321 172.421 989.12 171.346 989.672 169.951C990.239 168.542 990.522 166.857 990.522 164.895C990.522 162.934 990.246 161.234 989.694 159.795C989.142 158.342 988.343 157.216 987.296 156.417C986.25 155.618 984.979 155.219 983.482 155.219C981.957 155.219 980.671 155.633 979.625 156.461C978.579 157.274 977.787 158.408 977.249 159.861C976.712 161.314 976.443 162.992 976.443 164.895C976.443 166.828 976.712 168.499 977.249 169.908C977.801 171.303 978.593 172.385 979.625 173.155C980.671 173.911 981.957 174.289 983.482 174.289ZM1007.04 181.742V148.266H1016.04V154.107H1016.39C1017 152.029 1018.03 150.46 1019.46 149.399C1020.9 148.324 1022.56 147.787 1024.43 147.787C1024.9 147.787 1025.4 147.816 1025.94 147.874C1026.48 147.932 1026.95 148.012 1027.35 148.114V156.352C1026.92 156.221 1026.32 156.105 1025.55 156.003C1024.78 155.901 1024.07 155.851 1023.43 155.851C1022.07 155.851 1020.85 156.148 1019.77 156.744C1018.71 157.325 1017.87 158.139 1017.24 159.185C1016.63 160.231 1016.33 161.437 1016.33 162.803V181.742H1007.04ZM1045.72 182.396C1042.34 182.396 1039.41 181.677 1036.94 180.238C1034.48 178.785 1032.59 176.766 1031.25 174.18C1029.91 171.579 1029.25 168.564 1029.25 165.135C1029.25 161.677 1029.91 158.655 1031.25 156.068C1032.59 153.468 1034.48 151.448 1036.94 150.01C1039.41 148.557 1042.34 147.83 1045.72 147.83C1049.11 147.83 1052.03 148.557 1054.48 150.01C1056.95 151.448 1058.86 153.468 1060.19 156.068C1061.53 158.655 1062.2 161.677 1062.2 165.135C1062.2 168.564 1061.53 171.579 1060.19 174.18C1058.86 176.766 1056.95 178.785 1054.48 180.238C1052.03 181.677 1049.11 182.396 1045.72 182.396ZM1045.77 175.204C1047.31 175.204 1048.59 174.768 1049.62 173.896C1050.65 173.01 1051.43 171.804 1051.95 170.278C1052.49 168.753 1052.76 167.016 1052.76 165.07C1052.76 163.123 1052.49 161.386 1051.95 159.861C1051.43 158.335 1050.65 157.129 1049.62 156.243C1048.59 155.357 1047.31 154.913 1045.77 154.913C1044.21 154.913 1042.9 155.357 1041.84 156.243C1040.8 157.129 1040 158.335 1039.47 159.861C1038.94 161.386 1038.68 163.123 1038.68 165.07C1038.68 167.016 1038.94 168.753 1039.47 170.278C1040 171.804 1040.8 173.01 1041.84 173.896C1042.9 174.768 1044.21 175.204 1045.77 175.204ZM1089.7 167.489V148.266H1098.99V181.742H1090.07V175.662H1089.72C1088.97 177.623 1087.71 179.2 1085.95 180.391C1084.21 181.582 1082.08 182.178 1079.57 182.178C1077.33 182.178 1075.36 181.67 1073.66 180.652C1071.96 179.635 1070.63 178.19 1069.67 176.315C1068.73 174.441 1068.25 172.196 1068.24 169.581V148.266H1077.52V167.925C1077.53 169.901 1078.06 171.463 1079.11 172.61C1080.16 173.758 1081.56 174.332 1083.32 174.332C1084.44 174.332 1085.48 174.078 1086.46 173.569C1087.43 173.046 1088.21 172.276 1088.81 171.259C1089.42 170.242 1089.72 168.985 1089.7 167.489ZM1115.7 162.389V181.742H1106.41V148.266H1115.26V154.172H1115.65C1116.4 152.225 1117.64 150.685 1119.38 149.552C1121.12 148.404 1123.24 147.83 1125.72 147.83C1128.05 147.83 1130.07 148.339 1131.8 149.356C1133.53 150.373 1134.88 151.826 1135.84 153.715C1136.79 155.589 1137.27 157.827 1137.27 160.427V181.742H1127.99V162.084C1128 160.035 1127.48 158.437 1126.42 157.289C1125.36 156.127 1123.9 155.545 1122.04 155.545C1120.79 155.545 1119.69 155.814 1118.73 156.352C1117.78 156.889 1117.04 157.674 1116.5 158.706C1115.98 159.723 1115.71 160.95 1115.7 162.389ZM1156.93 182.287C1154.38 182.287 1152.08 181.633 1150.02 180.326C1147.97 179.003 1146.34 177.064 1145.14 174.506C1143.94 171.935 1143.35 168.782 1143.35 165.048C1143.35 161.212 1143.97 158.023 1145.2 155.48C1146.44 152.923 1148.08 151.012 1150.13 149.748C1152.19 148.47 1154.45 147.83 1156.91 147.83C1158.78 147.83 1160.34 148.15 1161.59 148.789C1162.86 149.414 1163.87 150.199 1164.64 151.143C1165.43 152.073 1166.02 152.988 1166.43 153.889H1166.71V137.107H1175.98V181.742H1166.82V176.381H1166.43C1165.99 177.311 1165.38 178.233 1164.58 179.149C1163.79 180.049 1162.77 180.798 1161.5 181.393C1160.25 181.989 1158.73 182.287 1156.93 182.287ZM1159.87 174.899C1161.37 174.899 1162.63 174.492 1163.66 173.678C1164.71 172.85 1165.51 171.695 1166.06 170.213C1166.63 168.731 1166.91 166.995 1166.91 165.004C1166.91 163.014 1166.63 161.285 1166.08 159.817C1165.53 158.35 1164.73 157.216 1163.68 156.417C1162.64 155.618 1161.37 155.219 1159.87 155.219C1158.34 155.219 1157.06 155.633 1156.01 156.461C1154.97 157.289 1154.17 158.437 1153.64 159.904C1153.1 161.372 1152.83 163.072 1152.83 165.004C1152.83 166.951 1153.1 168.673 1153.64 170.169C1154.19 171.651 1154.98 172.814 1156.01 173.656C1157.06 174.485 1158.34 174.899 1159.87 174.899Z" fill="black"/>
<rect x="886.067" y="354.165" width="242.934" height="242.934" rx="121.467" fill="white"/>
<rect x="886.067" y="354.165" width="242.934" height="242.934" rx="121.467" stroke="#D9D9D9" stroke-width="2.5572"/>
<path d="M932.524 537.002V523.364H939.684L945.651 433.862C945.878 430.225 947.299 427.184 949.913 424.738C952.527 422.292 955.652 421.071 959.289 421.076H1001.06C1004.69 421.076 1007.82 422.297 1010.43 424.738C1013.05 427.179 1014.47 430.22 1014.7 433.862L1020.83 523.364H1048.45V481.426C1042.54 479.835 1037.65 476.652 1033.79 471.879C1029.92 467.105 1027.99 461.536 1027.99 455.172C1027.99 451.308 1028.73 447.698 1030.21 444.343C1031.69 440.988 1033.73 438.063 1036.35 435.567C1035.78 434.317 1035.38 433.066 1035.15 431.816C1034.93 430.566 1034.81 429.259 1034.81 427.895C1034.81 422.212 1036.8 417.382 1040.78 413.404C1044.76 409.426 1049.59 407.438 1055.27 407.438C1060.95 407.438 1065.78 409.426 1069.76 413.404C1073.74 417.382 1075.73 422.212 1075.73 427.895C1075.73 429.259 1075.61 430.566 1075.39 431.816C1075.16 433.066 1074.76 434.317 1074.19 435.567C1076.81 438.067 1078.85 440.995 1080.33 444.35C1081.81 447.705 1082.55 451.312 1082.55 455.172C1082.55 461.536 1080.61 467.105 1076.75 471.879C1072.89 476.652 1068 479.835 1062.09 481.426V523.364H1082.55V537.002H932.524ZM953.493 523.364H1007.02L1001.06 434.714H995.602V496.087H1000.72V509.726H959.801V496.087H964.915V434.714H959.46L953.493 523.364ZM975.144 496.087H985.373V434.714H975.144V496.087ZM1055.27 468.81C1059.02 468.81 1062.23 467.476 1064.91 464.807C1067.58 462.139 1068.91 458.927 1068.91 455.172C1068.91 451.99 1068.17 449.546 1066.69 447.841C1065.21 446.136 1063.68 444.488 1062.09 442.897V427.895C1062.09 425.963 1061.43 424.342 1060.12 423.033C1058.82 421.724 1057.2 421.071 1055.27 421.076C1053.34 421.08 1051.72 421.735 1050.41 423.04C1049.1 424.345 1048.45 425.963 1048.45 427.895V442.897C1046.86 444.488 1045.32 446.136 1043.85 447.841C1042.37 449.546 1041.63 451.99 1041.63 455.172C1041.63 458.922 1042.97 462.134 1045.64 464.807C1048.31 467.481 1051.52 468.815 1055.27 468.81Z" fill="black"/>
<rect x="-2.28621" y="0.485949" width="62.803" height="343.764" transform="matrix(-0.83867 -0.544639 -0.544639 0.83867 1882.25 602.525)" fill="white" stroke="black" stroke-width="3.30542"/>
<circle cx="11.569" cy="11.569" r="10.7426" transform="matrix(-1 0 0 1 1727.52 713.117)" fill="white" stroke="black" stroke-width="1.65271"/>
<mask id="path-10-inside-1_617_2562" fill="white">
<path d="M1750.65 691.391L1741.64 685.537L1691 763.522L1700.01 769.376L1750.65 691.391Z"/>
</mask>
<path d="M1750.65 691.391L1741.64 685.537L1691 763.522L1700.01 769.376L1750.65 691.391Z" fill="white"/>
<path d="M1741.64 685.537L1740.25 684.637L1741.15 683.251L1742.54 684.151L1741.64 685.537ZM1691 763.522L1690.1 764.909L1688.71 764.008L1689.61 762.622L1691 763.522ZM1750.65 691.391L1749.75 692.777L1740.74 686.923L1741.64 685.537L1742.54 684.151L1751.55 690.005L1750.65 691.391ZM1741.64 685.537L1743.03 686.437L1692.38 764.423L1691 763.522L1689.61 762.622L1740.25 684.637L1741.64 685.537ZM1691 763.522L1691.9 762.136L1700.91 767.99L1700.01 769.376L1699.11 770.762L1690.1 764.909L1691 763.522Z" fill="black" mask="url(#path-10-inside-1_617_2562)"/>
<circle cx="11.569" cy="11.569" r="10.7426" transform="matrix(1 0 0 -1 1776.94 785.902)" fill="white" stroke="black" stroke-width="1.65271"/>
<mask id="path-13-inside-2_617_2562" fill="white">
<path d="M1753.81 807.629L1762.82 813.483L1813.47 735.497L1804.46 729.643L1753.81 807.629Z"/>
</mask>
<path d="M1753.81 807.629L1762.82 813.483L1813.47 735.497L1804.46 729.643L1753.81 807.629Z" fill="white"/>
<path d="M1762.82 813.483L1764.21 814.383L1763.31 815.769L1761.92 814.869L1762.82 813.483ZM1813.47 735.497L1814.37 734.111L1815.76 735.011L1814.86 736.397L1813.47 735.497ZM1753.81 807.629L1754.71 806.243L1763.73 812.097L1762.82 813.483L1761.92 814.869L1752.91 809.015L1753.81 807.629ZM1762.82 813.483L1761.44 812.582L1812.08 734.597L1813.47 735.497L1814.86 736.397L1764.21 814.383L1762.82 813.483ZM1813.47 735.497L1812.57 736.883L1803.56 731.029L1804.46 729.643L1805.36 728.257L1814.37 734.111L1813.47 735.497Z" fill="black" mask="url(#path-13-inside-2_617_2562)"/>
<rect x="-1.14717" y="0.222988" width="38.0124" height="4.95813" rx="2.47907" transform="matrix(-0.829038 -0.559193 -0.559193 0.829038 1844.54 642.158)" fill="white" stroke="black" stroke-width="1.65271"/>
<rect x="-1.14717" y="0.222988" width="38.0124" height="4.95813" rx="2.47907" transform="matrix(-0.829038 -0.559193 -0.559193 0.829038 1709.03 850.401)" fill="white" stroke="black" stroke-width="1.65271"/>
<path d="M389.729 329.736C389.75 330.222 389.776 330.814 389.811 331.504C389.919 333.654 390.105 336.759 390.413 340.582C391.03 348.227 392.14 358.76 394.113 370.311C398.042 393.311 405.451 420.724 419.493 437.215C426.538 445.488 437.416 453.309 449.644 460.372C461.896 467.449 475.619 473.83 488.452 479.188C501.289 484.548 513.262 488.896 522.023 491.903C526.405 493.407 529.986 494.576 532.473 495.37C533.309 495.637 534.023 495.859 534.601 496.039L467.208 650.078C467.146 650.063 467.082 650.048 467.016 650.031C466.017 649.784 464.543 649.413 462.646 648.918C458.854 647.928 453.373 646.443 446.631 644.463C433.144 640.503 414.616 634.568 394.453 626.672C354.047 610.848 307.381 587.261 281.372 556.106C252.231 521.201 237.966 464.344 231.027 415.933C227.565 391.776 225.939 369.813 225.178 353.89C224.797 345.929 224.633 339.48 224.564 335.024C224.53 332.797 224.52 331.066 224.518 329.896C224.517 329.841 224.518 329.788 224.518 329.736H389.729Z" fill="white" stroke="black" stroke-width="3.27027"/>
<path d="M232.69 331.371C232.69 331.371 231.186 486.869 283.962 550.283C331.072 606.888 468.15 642.046 468.15 642.046M383.563 331.371C383.563 331.371 385.336 412.572 409.934 441.55C434.531 470.528 530.285 504.695 530.285 504.695" stroke="black" stroke-width="3.27027"/>
<g clip-path="url(#clip1_617_2562)">
<rect x="183.647" y="66.4805" width="255.081" height="264.891" fill="white"/>
<line x1="184.825" y1="65.3463" x2="439.906" y2="330.238" stroke="black" stroke-width="3.27027"/>
<line x1="439.903" y1="67.6147" x2="184.822" y2="332.506" stroke="black" stroke-width="3.27027"/>
<line y1="-1.63513" x2="179.865" y2="-1.63513" transform="matrix(0 1 1 0 203.264 105.727)" stroke="black" stroke-width="3.27027"/>
<line y1="-1.63513" x2="179.865" y2="-1.63513" transform="matrix(1 0 0 -1 222.889 306.855)" stroke="black" stroke-width="3.27027"/>
<path d="M219.913 115.535V279.048" stroke="black" stroke-width="3.27027"/>
<path d="M232.702 291.516H396.215" stroke="black" stroke-width="3.27027"/>
<path d="M235.256 135.152V259.422" stroke="black" stroke-width="3.27027"/>
<path d="M252.319 276.176H376.589" stroke="black" stroke-width="3.27027"/>
<path d="M250.592 144.961L250.592 246.339" stroke="black" stroke-width="3.27027"/>
<path d="M262.124 262.699L363.502 262.699" stroke="black" stroke-width="3.27027"/>
</g>
<rect x="185.283" y="68.1156" width="251.81" height="261.621" stroke="black" stroke-width="3.27027"/>
<g clip-path="url(#clip2_617_2562)">
<mask id="path-31-inside-3_617_2562" fill="white">
<path d="M438.718 95.9062H572.799V301.933H438.718V95.9062Z"/>
</mask>
<path d="M438.718 95.9062H572.799V301.933H438.718V95.9062Z" fill="white"/>
<line x1="438.717" y1="107.349" x2="572.798" y2="107.349" stroke="black" stroke-width="3.27027"/>
<line x1="459.97" y1="108.984" x2="459.97" y2="288.849" stroke="black" stroke-width="3.27027"/>
<line x1="482.868" y1="108.984" x2="482.868" y2="288.849" stroke="black" stroke-width="3.27027"/>
<line x1="505.751" y1="108.984" x2="505.751" y2="288.849" stroke="black" stroke-width="3.27027"/>
<line x1="528.649" y1="108.984" x2="528.649" y2="288.849" stroke="black" stroke-width="3.27027"/>
<line x1="551.54" y1="108.984" x2="551.54" y2="288.849" stroke="black" stroke-width="3.27027"/>
<line x1="438.717" y1="287.22" x2="572.798" y2="287.22" stroke="black" stroke-width="3.27027"/>
</g>
<path d="M572.799 95.9062H576.069V92.636H572.799V95.9062ZM572.799 301.933V305.203H576.069V301.933H572.799ZM438.718 95.9062V99.1765H572.799V95.9062V92.636H438.718V95.9062ZM572.799 95.9062H569.528V301.933H572.799H576.069V95.9062H572.799ZM572.799 301.933V298.663H438.718V301.933V305.203H572.799V301.933Z" fill="black" mask="url(#path-31-inside-3_617_2562)"/>
<g clip-path="url(#clip3_617_2562)">
<rect x="-107.407" y="95.9062" width="294.324" height="206.027" fill="white"/>
<line x1="-107.408" y1="107.349" x2="186.916" y2="107.349" stroke="black" stroke-width="3.27027"/>
<line x1="-107.408" y1="287.22" x2="186.916" y2="287.22" stroke="black" stroke-width="3.27027"/>
</g>
<rect x="-105.772" y="97.5414" width="291.054" height="202.756" stroke="black" stroke-width="3.27027"/>
<path d="M107.402 888.198L124.45 871.15M107.402 877.969L86.9444 857.511M107.402 942.751V854.102M70.0498 840.463C71.7716 821.346 87.8377 806.367 107.402 806.367C126.966 806.367 143.032 821.346 144.754 840.463H144.908C153.046 840.463 160.851 843.696 166.606 849.451C172.361 855.206 175.594 863.011 175.594 871.15C175.594 879.288 172.361 887.093 166.606 892.848C160.851 898.603 153.046 901.836 144.908 901.836H69.8964C61.7578 901.836 53.9526 898.603 48.1978 892.848C42.443 887.093 39.21 879.288 39.21 871.15C39.21 863.011 42.443 855.206 48.1978 849.451C53.9526 843.696 61.7578 840.463 69.8964 840.463H70.0498Z" stroke="black" stroke-width="3.27322" stroke-linecap="round" stroke-linejoin="round"/>
<path d="M414.269 970.03L431.317 952.982M414.269 959.801L393.812 939.343M414.269 1024.58V935.934M376.917 922.295C378.639 903.178 394.705 888.199 414.269 888.199C433.833 888.199 449.899 903.178 451.621 922.295H451.775C459.913 922.295 467.718 925.528 473.473 931.283C479.228 937.038 482.461 944.843 482.461 952.982C482.461 961.12 479.228 968.925 473.473 974.68C467.718 980.435 459.913 983.668 451.775 983.668H376.764C368.625 983.668 360.82 980.435 355.065 974.68C349.31 968.925 346.077 961.12 346.077 952.982C346.077 944.843 349.31 937.038 355.065 931.283C360.82 925.528 368.625 922.295 376.764 922.295H376.917Z" stroke="black" stroke-width="3.27322" stroke-linecap="round" stroke-linejoin="round"/>
<path d="M1815.61 274.475L1832.65 257.427M1815.61 264.246L1795.15 243.789M1815.61 329.029V240.379M1778.25 226.741C1779.97 207.623 1796.04 192.645 1815.61 192.645C1835.17 192.645 1851.24 207.623 1852.96 226.741H1853.11C1861.25 226.741 1869.05 229.974 1874.81 235.728C1880.56 241.483 1883.8 249.288 1883.8 257.427C1883.8 265.565 1880.56 273.371 1874.81 279.125C1869.05 284.88 1861.25 288.113 1853.11 288.113H1778.1C1769.96 288.113 1762.16 284.88 1756.4 279.125C1750.65 273.371 1747.41 265.565 1747.41 257.427C1747.41 249.288 1750.65 241.483 1756.4 235.728C1762.16 229.974 1769.96 226.741 1778.1 226.741H1778.25Z" stroke="black" stroke-width="3.27322" stroke-linecap="round" stroke-linejoin="round"/>
<path d="M1590.57 110.811L1607.62 93.7629M1590.57 100.582L1570.12 80.1245M1590.57 165.364V76.7149M1553.22 63.0765C1554.94 43.9588 1571.01 28.9805 1590.57 28.9805C1610.14 28.9805 1626.2 43.9588 1627.93 63.0765H1628.08C1636.22 63.0765 1644.02 66.3095 1649.78 72.0643C1655.53 77.8191 1658.77 85.6243 1658.77 93.7629C1658.77 101.901 1655.53 109.707 1649.78 115.461C1644.02 121.216 1636.22 124.449 1628.08 124.449H1553.07C1544.93 124.449 1537.12 121.216 1531.37 115.461C1525.61 109.707 1522.38 101.901 1522.38 93.7629C1522.38 85.6243 1525.61 77.8191 1531.37 72.0643C1537.12 66.3095 1544.93 63.0765 1553.07 63.0765H1553.22Z" stroke="black" stroke-width="3.27322" stroke-linecap="round" stroke-linejoin="round"/>
</g>
<rect x="5.1144" y="5.1144" width="2035.53" height="1012.65" stroke="black" stroke-width="10.2288"/>
<defs>
<clipPath id="clip0_617_2562">
<rect width="2045.76" height="1022.88" fill="white"/>
</clipPath>
<clipPath id="clip1_617_2562">
<rect x="183.647" y="66.4805" width="255.081" height="264.891" fill="white"/>
</clipPath>
<clipPath id="clip2_617_2562">
<path d="M438.718 95.9062H572.799V301.933H438.718V95.9062Z" fill="white"/>
</clipPath>
<clipPath id="clip3_617_2562">
<rect x="-107.407" y="95.9062" width="294.324" height="206.027" fill="white"/>
</clipPath>
</defs>
</svg>
