<svg width="528" height="159" viewBox="0 0 528 159" fill="none" xmlns="http://www.w3.org/2000/svg">
<g clip-path="url(#clip0_617_2487)">
<rect width="528" height="158.4" fill="white"/>
<rect width="308.809" height="76" transform="translate(19.2026 42.2383)" fill="white"/>
<path d="M23.2076 104.238V58.1583H41.3876C44.8826 58.1583 47.8601 58.8258 50.3201 60.1608C52.7801 61.4808 54.6551 63.3183 55.9451 65.6733C57.2501 68.0133 57.9026 70.7133 57.9026 73.7733C57.9026 76.8333 57.2426 79.5333 55.9226 81.8733C54.6026 84.2133 52.6901 86.0358 50.1851 87.3408C47.6951 88.6458 44.6801 89.2983 41.1401 89.2983H29.5526V81.4908H39.5651C41.4401 81.4908 42.9851 81.1683 44.2001 80.5233C45.4301 79.8633 46.3451 78.9558 46.9451 77.8008C47.5601 76.6308 47.8676 75.2883 47.8676 73.7733C47.8676 72.2433 47.5601 70.9083 46.9451 69.7683C46.3451 68.6133 45.4301 67.7208 44.2001 67.0908C42.9701 66.4458 41.4101 66.1233 39.5201 66.1233H32.9501V104.238H23.2076ZM86.2133 89.5233V69.6783H95.7983V104.238H86.5958V97.9608H86.2358C85.4558 99.9858 84.1583 101.613 82.3433 102.843C80.5433 104.073 78.3458 104.688 75.7508 104.688C73.4408 104.688 71.4083 104.163 69.6533 103.113C67.8983 102.063 66.5258 100.571 65.5358 98.6358C64.5608 96.7008 64.0658 94.3833 64.0508 91.6833V69.6783H73.6358V89.9733C73.6508 92.0133 74.1983 93.6258 75.2783 94.8108C76.3583 95.9958 77.8058 96.5883 79.6208 96.5883C80.7758 96.5883 81.8558 96.3258 82.8608 95.8008C83.8658 95.2608 84.6758 94.4658 85.2908 93.4158C85.9208 92.3658 86.2283 91.0683 86.2133 89.5233ZM103.645 104.238V58.1583H113.23V75.4833H113.523C113.943 74.5533 114.55 73.6083 115.345 72.6483C116.155 71.6733 117.205 70.8633 118.495 70.2183C119.8 69.5583 121.42 69.2283 123.355 69.2283C125.875 69.2283 128.2 69.8883 130.33 71.2083C132.46 72.5133 134.163 74.4858 135.438 77.1258C136.713 79.7508 137.35 83.0433 137.35 87.0033C137.35 90.8583 136.728 94.1133 135.483 96.7683C134.253 99.4083 132.573 101.411 130.443 102.776C128.328 104.126 125.958 104.801 123.333 104.801C121.473 104.801 119.89 104.493 118.585 103.878C117.295 103.263 116.238 102.491 115.413 101.561C114.588 100.616 113.958 99.6633 113.523 98.7033H113.095V104.238H103.645ZM113.028 86.9583C113.028 89.0133 113.313 90.8058 113.883 92.3358C114.453 93.8658 115.278 95.0583 116.358 95.9133C117.438 96.7533 118.75 97.1733 120.295 97.1733C121.855 97.1733 123.175 96.7458 124.255 95.8908C125.335 95.0208 126.153 93.8208 126.708 92.2908C127.278 90.7458 127.563 88.9683 127.563 86.9583C127.563 84.9633 127.285 83.2083 126.73 81.6933C126.175 80.1783 125.358 78.9933 124.278 78.1383C123.198 77.2833 121.87 76.8558 120.295 76.8558C118.735 76.8558 117.415 77.2683 116.335 78.0933C115.27 78.9183 114.453 80.0883 113.883 81.6033C113.313 83.1183 113.028 84.9033 113.028 86.9583ZM153.331 58.1583V104.238H143.746V58.1583H153.331ZM161.009 104.238V69.6783H170.594V104.238H161.009ZM165.824 65.2233C164.399 65.2233 163.176 64.7508 162.156 63.8058C161.151 62.8458 160.649 61.6983 160.649 60.3633C160.649 59.0433 161.151 57.9108 162.156 56.9658C163.176 56.0058 164.399 55.5258 165.824 55.5258C167.249 55.5258 168.464 56.0058 169.469 56.9658C170.489 57.9108 170.999 59.0433 170.999 60.3633C170.999 61.6983 170.489 62.8458 169.469 63.8058C168.464 64.7508 167.249 65.2233 165.824 65.2233ZM193.887 104.913C190.347 104.913 187.302 104.163 184.752 102.663C182.217 101.148 180.267 99.0483 178.902 96.3633C177.552 93.6783 176.877 90.5883 176.877 87.0933C176.877 83.5533 177.56 80.4483 178.925 77.7783C180.305 75.0933 182.262 73.0008 184.797 71.5008C187.332 69.9858 190.347 69.2283 193.842 69.2283C196.857 69.2283 199.497 69.7758 201.762 70.8708C204.027 71.9658 205.82 73.5033 207.14 75.4833C208.46 77.4633 209.187 79.7883 209.322 82.4583H200.277C200.022 80.7333 199.347 79.3458 198.252 78.2958C197.172 77.2308 195.755 76.6983 194 76.6983C192.515 76.6983 191.217 77.1033 190.107 77.9133C189.012 78.7083 188.157 79.8708 187.542 81.4008C186.927 82.9308 186.62 84.7833 186.62 86.9583C186.62 89.1633 186.92 91.0383 187.52 92.5833C188.135 94.1283 188.997 95.3058 190.107 96.1158C191.217 96.9258 192.515 97.3308 194 97.3308C195.095 97.3308 196.077 97.1058 196.947 96.6558C197.832 96.2058 198.56 95.5533 199.13 94.6983C199.715 93.8283 200.097 92.7858 200.277 91.5708H209.322C209.172 94.2108 208.452 96.5358 207.162 98.5458C205.887 100.541 204.125 102.101 201.875 103.226C199.625 104.351 196.962 104.913 193.887 104.913ZM238.246 104.238H227.806L243.713 58.1583H256.268L272.153 104.238H261.713L250.171 68.6883H249.811L238.246 104.238ZM237.593 86.1258H262.253V93.7308H237.593V86.1258ZM277.52 104.238V69.6783H286.812V75.7083H287.172C287.802 73.5633 288.86 71.9433 290.345 70.8483C291.83 69.7383 293.54 69.1833 295.475 69.1833C295.955 69.1833 296.472 69.2133 297.027 69.2733C297.582 69.3333 298.07 69.4158 298.49 69.5208V78.0258C298.04 77.8908 297.417 77.7708 296.622 77.6658C295.827 77.5608 295.1 77.5083 294.44 77.5083C293.03 77.5083 291.77 77.8158 290.66 78.4308C289.565 79.0308 288.695 79.8708 288.05 80.9508C287.42 82.0308 287.105 83.2758 287.105 84.6858V104.238H277.52ZM323.56 69.6783V76.8783H302.748V69.6783H323.56ZM307.473 61.3983H317.058V93.6183C317.058 94.5033 317.193 95.1933 317.463 95.6883C317.733 96.1683 318.108 96.5058 318.588 96.7008C319.083 96.8958 319.653 96.9933 320.298 96.9933C320.748 96.9933 321.198 96.9558 321.648 96.8808C322.098 96.7908 322.443 96.7233 322.683 96.6783L324.19 103.811C323.71 103.961 323.035 104.133 322.165 104.328C321.295 104.538 320.238 104.666 318.993 104.711C316.683 104.801 314.658 104.493 312.918 103.788C311.193 103.083 309.85 101.988 308.89 100.503C307.93 99.0183 307.458 97.1433 307.473 94.8783V61.3983Z" fill="black"/>
<rect x="360.42" y="-3.66047" width="166.32" height="166.32" rx="83.16" fill="white"/>
<rect x="360.42" y="-3.66047" width="166.32" height="166.32" rx="83.16" stroke="#D9D9D9" stroke-width="2.64"/>
<g clip-path="url(#clip1_617_2487)">
<path d="M475.26 53.0996H411.9C411.2 53.0996 410.528 53.3778 410.033 53.8728C409.538 54.3679 409.26 55.0394 409.26 55.7396V103.26C409.26 103.96 409.538 104.631 410.033 105.126C410.528 105.621 411.2 105.9 411.9 105.9H475.26C475.96 105.9 476.631 105.621 477.127 105.126C477.622 104.631 477.9 103.96 477.9 103.26V55.7396C477.9 55.0394 477.622 54.3679 477.127 53.8728C476.631 53.3778 475.96 53.0996 475.26 53.0996ZM430.38 84.7796V74.2196H456.78V84.7796H430.38ZM414.54 84.7796V74.2196H425.1V84.7796H414.54ZM462.06 74.2196H472.62V84.7796H462.06V74.2196ZM472.62 68.9396H446.22V58.3796H472.62V68.9396ZM440.94 58.3796V68.9396H414.54V58.3796H440.94ZM414.54 90.0596H440.94V100.62H414.54V90.0596ZM446.22 100.62V90.0596H472.62V100.62H446.22Z" fill="black"/>
<rect x="438.3" y="74.2188" width="58.08" height="58.08" rx="29.04" fill="white"/>
<path fill-rule="evenodd" clip-rule="evenodd" d="M481.824 87.4765L480.727 90.4167L479.365 93.5727C478.103 96.2786 476.367 99.442 474.292 101.625C472.311 103.708 469.321 105.629 466.927 106.992C467.243 108.504 467.176 110.07 466.735 111.55C466.293 113.029 465.49 114.376 464.398 115.467C460.177 119.689 455.458 119.689 451.949 118.647C450.031 118.083 448.227 117.182 446.623 115.988L445.014 114.653C444.928 114.58 444.86 114.489 444.815 114.387C444.77 114.284 444.749 114.172 444.754 114.06C444.758 113.948 444.789 113.838 444.843 113.74C444.897 113.642 444.973 113.557 445.064 113.492L445.682 113.051C447.036 112.066 448.432 110.853 448.765 109.183C448.979 107.462 449.101 106.524 449.132 106.369C449.388 105.088 449.931 103.634 451.246 102.315C452.338 101.223 453.684 100.42 455.164 99.9786C456.643 99.537 458.209 99.4708 459.721 99.786C461.084 97.3926 463.003 94.4021 465.088 92.4215C467.271 90.346 470.435 88.609 473.141 87.3482L476.295 85.985L479.237 84.8896C479.597 84.7659 479.985 84.7458 480.356 84.8316C480.727 84.9175 481.067 85.1058 481.336 85.3752C481.606 85.6446 481.794 85.9842 481.88 86.3553C481.966 86.7265 481.946 87.1143 481.822 87.4746L481.824 87.4765ZM453.878 104.947C453.221 105.601 452.937 106.312 452.779 107.098C452.567 108.821 452.444 109.759 452.412 109.914C452.077 111.595 451.094 112.983 450.274 113.909C451.14 114.398 452.057 114.791 453.009 115.08C455.583 115.847 458.756 115.847 461.769 112.836C462.293 112.319 462.711 111.704 462.997 111.025C463.283 110.346 463.431 109.618 463.434 108.881C463.437 108.145 463.294 107.415 463.014 106.734C462.733 106.053 462.321 105.434 461.8 104.914C461.279 104.393 460.66 103.98 459.979 103.7C459.298 103.42 458.568 103.277 457.832 103.28C457.095 103.283 456.367 103.432 455.688 103.718C455.009 104.004 454.394 104.422 453.878 104.947ZM463.158 101.274C464.046 101.896 464.818 102.669 465.44 103.558C466.167 103.135 466.918 102.678 467.653 102.196L467.597 102.072C467.291 101.428 466.876 100.843 466.369 100.342C465.922 99.8943 465.41 99.5163 464.85 99.2207L464.515 99.0607C464.036 99.7953 463.578 100.545 463.158 101.274ZM476.998 89.7156C476.284 90.0113 475.51 90.3479 474.71 90.7198C472.092 91.9417 469.38 93.4722 467.651 95.1162C467.358 95.3952 467.067 95.7008 466.777 96.0331C467.45 96.405 468.231 96.9444 468.999 97.7143C469.769 98.4824 470.307 99.2634 470.68 99.9367C471.013 99.6465 471.318 99.3552 471.597 99.0626C473.241 97.333 474.772 94.6216 475.994 92.0012C476.366 91.2015 476.7 90.4279 476.998 89.7156Z" fill="black"/>
</g>
</g>
<rect x="2.64" y="2.64" width="522.72" height="153.12" stroke="black" stroke-width="5.28"/>
<defs>
<clipPath id="clip0_617_2487">
<rect width="528" height="158.4" fill="white"/>
</clipPath>
<clipPath id="clip1_617_2487">
<rect width="84.48" height="84.48" fill="white" transform="translate(401.34 37.2598)"/>
</clipPath>
</defs>
</svg>
