<svg width="634" height="423" viewBox="0 0 634 423" fill="none" xmlns="http://www.w3.org/2000/svg">
<rect x="5.28" y="5.28" width="623.04" height="411.84" fill="white"/>
<rect x="5.28" y="5.28" width="623.04" height="411.84" stroke="black" stroke-width="10.56"/>
<line x1="319.444" y1="-1.15398e-07" x2="319.444" y2="411.84" stroke="black" stroke-width="5.28"/>
<rect x="234.42" y="173.34" width="166.32" height="166.32" rx="83.16" fill="white"/>
<rect x="234.42" y="173.34" width="166.32" height="166.32" rx="83.16" stroke="#D9D9D9" stroke-width="2.64"/>
<path d="M317.579 282.898C316.761 282.898 316.127 282.238 316.127 281.446V232.448C316.127 231.63 316.787 230.996 317.579 230.996C318.398 230.996 319.031 231.656 319.031 232.448V281.42C319.031 282.238 318.398 282.898 317.579 282.898ZM340.89 236.804C340.89 238.344 340.279 239.822 339.189 240.911C338.1 242 336.623 242.612 335.082 242.612C333.542 242.612 332.065 242 330.976 240.911C329.886 239.822 329.274 238.344 329.274 236.804C329.274 235.264 329.886 233.786 330.976 232.697C332.065 231.608 333.542 230.996 335.082 230.996C336.623 230.996 338.1 231.608 339.189 232.697C340.279 233.786 340.89 235.264 340.89 236.804ZM346.566 247.839L349.127 257.29C349.55 258.478 348.995 259.825 347.834 260.274C347.554 260.375 347.26 260.429 346.962 260.432C346.484 260.434 346.017 260.287 345.625 260.013C345.232 259.739 344.934 259.351 344.771 258.901C344.771 258.901 343.214 253.146 342.448 250.347C342.38 250.113 342.238 249.906 342.043 249.759C341.848 249.611 341.61 249.531 341.366 249.529C341.193 249.531 341.023 249.573 340.869 249.651C340.715 249.728 340.581 249.84 340.477 249.978C340.372 250.115 340.301 250.274 340.267 250.444C340.234 250.613 340.239 250.788 340.283 250.954L344.428 266.319C344.666 267.19 344.006 268.062 343.108 268.062H341.234C341.075 268.062 340.943 268.194 340.943 268.352V279.651C340.943 280.971 339.834 282.027 338.514 281.974C337.247 281.922 336.297 280.839 336.297 279.598V269.223C336.297 268.59 335.769 268.062 335.135 268.062C334.502 268.062 333.974 268.59 333.974 269.223V279.651C333.974 280.971 332.865 282.027 331.545 281.974C330.278 281.922 329.327 280.839 329.327 279.598V268.378C329.327 268.22 329.195 268.088 329.037 268.088H327.321C326.423 268.088 325.763 267.217 326.001 266.346L330.146 250.954C330.19 250.788 330.195 250.613 330.162 250.444C330.128 250.274 330.057 250.115 329.952 249.978C329.848 249.84 329.714 249.728 329.56 249.651C329.406 249.573 329.236 249.531 329.063 249.529C328.562 249.529 328.113 249.872 327.981 250.347C327.347 252.644 325.658 258.901 325.658 258.901C325.495 259.351 325.197 259.739 324.804 260.013C324.412 260.287 323.945 260.434 323.466 260.432C323.169 260.429 322.875 260.375 322.595 260.274C321.434 259.825 320.879 258.478 321.302 257.29L323.862 247.839C324.522 245.991 326.265 244.75 328.245 244.75H342.184C344.138 244.75 345.906 245.991 346.566 247.839ZM307.125 244.75C309.976 244.75 312.299 247.074 312.352 249.925V259.402C312.352 260.643 311.375 261.726 310.134 261.778C308.814 261.831 307.706 260.775 307.706 259.455V251.35C307.706 250.717 307.178 250.189 306.544 250.189C305.91 250.189 305.382 250.717 305.382 251.35V279.651C305.382 280.971 304.274 282.027 302.954 281.974C301.686 281.922 300.736 280.839 300.736 279.598V264.36C300.736 263.727 300.208 263.199 299.574 263.199C298.941 263.199 298.413 263.727 298.413 264.36V279.678C298.413 280.998 297.304 282.054 295.984 282.001C294.717 281.948 293.766 280.866 293.766 279.625V251.35C293.766 250.717 293.238 250.189 292.605 250.189C291.971 250.189 291.443 250.717 291.443 251.35V259.455C291.443 260.775 290.334 261.831 289.014 261.778C287.747 261.726 286.797 260.643 286.797 259.402V249.925C286.797 247.074 289.12 244.75 291.971 244.75H307.125ZM299.416 242.612C300.956 242.612 302.434 242 303.523 240.911C304.612 239.822 305.224 238.344 305.224 236.804C305.224 235.264 304.612 233.786 303.523 232.697C302.434 231.608 300.956 230.996 299.416 230.996C297.876 230.996 296.398 231.608 295.309 232.697C294.22 233.786 293.608 235.264 293.608 236.804C293.608 238.344 294.22 239.822 295.309 240.911C296.398 242 297.876 242.612 299.416 242.612Z" fill="black"/>
<path d="M291.179 216.9C289.446 216.9 287.73 217.242 286.128 217.905C284.527 218.569 283.071 219.541 281.846 220.767C279.37 223.242 277.979 226.6 277.979 230.1V282.9C277.979 286.401 279.37 289.759 281.846 292.234C283.071 293.46 284.527 294.432 286.128 295.096C287.73 295.759 289.446 296.1 291.179 296.1H343.979C347.48 296.1 350.838 294.71 353.313 292.234C355.789 289.759 357.179 286.401 357.179 282.9V230.1C357.179 228.367 356.838 226.65 356.175 225.049C355.511 223.447 354.539 221.992 353.313 220.767C352.088 219.541 350.632 218.569 349.031 217.905C347.429 217.242 345.713 216.9 343.979 216.9H291.179ZM283.259 230.1C283.259 228 284.094 225.985 285.579 224.5C287.064 223.015 289.079 222.18 291.179 222.18H343.979C346.08 222.18 348.094 223.015 349.58 224.5C351.065 225.985 351.899 228 351.899 230.1V282.9C351.899 285.001 351.065 287.015 349.58 288.501C348.094 289.986 346.08 290.82 343.979 290.82H291.179C289.079 290.82 287.064 289.986 285.579 288.501C284.094 287.015 283.259 285.001 283.259 282.9V230.1Z" fill="black"/>
<rect width="300.96" height="79.2" transform="translate(168.96 63.3633)" fill="white"/>
<path d="M172.965 125.363V79.2833H191.145C194.625 79.2833 197.595 79.9058 200.055 81.1508C202.53 82.3808 204.413 84.1283 205.703 86.3933C207.008 88.6433 207.66 91.2908 207.66 94.3358C207.66 97.3958 207 100.028 205.68 102.233C204.36 104.423 202.448 106.103 199.943 107.273C197.453 108.443 194.438 109.028 190.898 109.028H178.725V101.198H189.323C191.183 101.198 192.728 100.943 193.958 100.433C195.188 99.9233 196.103 99.1583 196.703 98.1383C197.318 97.1183 197.625 95.8508 197.625 94.3358C197.625 92.8058 197.318 91.5158 196.703 90.4658C196.103 89.4158 195.18 88.6208 193.935 88.0808C192.705 87.5258 191.153 87.2483 189.278 87.2483H182.708V125.363H172.965ZM197.85 104.393L209.303 125.363H198.548L187.343 104.393H197.85ZM229.559 126.038C226.004 126.038 222.944 125.318 220.379 123.878C217.829 122.423 215.864 120.368 214.484 117.713C213.104 115.043 212.414 111.886 212.414 108.241C212.414 104.686 213.104 101.566 214.484 98.8808C215.864 96.1958 217.806 94.1033 220.311 92.6033C222.831 91.1033 225.786 90.3533 229.176 90.3533C231.456 90.3533 233.579 90.7208 235.544 91.4558C237.524 92.1758 239.249 93.2633 240.719 94.7183C242.204 96.1733 243.359 98.0033 244.184 100.208C245.009 102.398 245.421 104.963 245.421 107.903V110.536H216.239V104.596H236.399C236.399 103.216 236.099 101.993 235.499 100.928C234.899 99.8633 234.066 99.0308 233.001 98.4308C231.951 97.8158 230.729 97.5083 229.334 97.5083C227.879 97.5083 226.589 97.8458 225.464 98.5208C224.354 99.1808 223.484 100.073 222.854 101.198C222.224 102.308 221.901 103.546 221.886 104.911V110.558C221.886 112.268 222.201 113.746 222.831 114.991C223.476 116.236 224.384 117.196 225.554 117.871C226.724 118.546 228.111 118.883 229.716 118.883C230.781 118.883 231.756 118.733 232.641 118.433C233.526 118.133 234.284 117.683 234.914 117.083C235.544 116.483 236.024 115.748 236.354 114.878L245.219 115.463C244.769 117.593 243.846 119.453 242.451 121.043C241.071 122.618 239.286 123.848 237.096 124.733C234.921 125.603 232.409 126.038 229.559 126.038ZM280.431 100.658L271.656 101.198C271.506 100.448 271.184 99.7733 270.689 99.1733C270.194 98.5583 269.541 98.0708 268.731 97.7108C267.936 97.3358 266.984 97.1483 265.874 97.1483C264.389 97.1483 263.136 97.4633 262.116 98.0933C261.096 98.7083 260.586 99.5333 260.586 100.568C260.586 101.393 260.916 102.091 261.576 102.661C262.236 103.231 263.369 103.688 264.974 104.033L271.229 105.293C274.589 105.983 277.094 107.093 278.744 108.623C280.394 110.153 281.219 112.163 281.219 114.653C281.219 116.918 280.551 118.906 279.216 120.616C277.896 122.326 276.081 123.661 273.771 124.621C271.476 125.566 268.829 126.038 265.829 126.038C261.254 126.038 257.609 125.086 254.894 123.181C252.194 121.261 250.611 118.651 250.146 115.351L259.574 114.856C259.859 116.251 260.549 117.316 261.644 118.051C262.739 118.771 264.141 119.131 265.851 119.131C267.531 119.131 268.881 118.808 269.901 118.163C270.936 117.503 271.461 116.656 271.476 115.621C271.461 114.751 271.094 114.038 270.374 113.483C269.654 112.913 268.544 112.478 267.044 112.178L261.059 110.986C257.684 110.311 255.171 109.141 253.521 107.476C251.886 105.811 251.069 103.688 251.069 101.108C251.069 98.8883 251.669 96.9758 252.869 95.3708C254.084 93.7658 255.786 92.5283 257.976 91.6583C260.181 90.7883 262.761 90.3533 265.716 90.3533C270.081 90.3533 273.516 91.2758 276.021 93.1208C278.541 94.9658 280.011 97.4783 280.431 100.658ZM305.637 90.8033V98.0033H284.824V90.8033H305.637ZM289.549 82.5233H299.134V114.743C299.134 115.628 299.269 116.318 299.539 116.813C299.809 117.293 300.184 117.631 300.664 117.826C301.159 118.021 301.729 118.118 302.374 118.118C302.824 118.118 303.274 118.081 303.724 118.006C304.174 117.916 304.519 117.848 304.759 117.803L306.267 124.936C305.787 125.086 305.112 125.258 304.242 125.453C303.372 125.663 302.314 125.791 301.069 125.836C298.759 125.926 296.734 125.618 294.994 124.913C293.269 124.208 291.927 123.113 290.967 121.628C290.007 120.143 289.534 118.268 289.549 116.003V82.5233ZM311.88 125.363V90.8033H321.173V96.8333H321.533C322.163 94.6883 323.22 93.0683 324.705 91.9733C326.19 90.8633 327.9 90.3083 329.835 90.3083C330.315 90.3083 330.833 90.3383 331.388 90.3983C331.943 90.4583 332.43 90.5408 332.85 90.6458V99.1508C332.4 99.0158 331.778 98.8958 330.983 98.7908C330.188 98.6858 329.46 98.6333 328.8 98.6333C327.39 98.6333 326.13 98.9408 325.02 99.5558C323.925 100.156 323.055 100.996 322.41 102.076C321.78 103.156 321.465 104.401 321.465 105.811V125.363H311.88ZM351.812 126.038C348.317 126.038 345.295 125.296 342.745 123.811C340.21 122.311 338.252 120.226 336.872 117.556C335.492 114.871 334.802 111.758 334.802 108.218C334.802 104.648 335.492 101.528 336.872 98.8583C338.252 96.1733 340.21 94.0883 342.745 92.6033C345.295 91.1033 348.317 90.3533 351.812 90.3533C355.307 90.3533 358.322 91.1033 360.857 92.6033C363.407 94.0883 365.372 96.1733 366.752 98.8583C368.132 101.528 368.822 104.648 368.822 108.218C368.822 111.758 368.132 114.871 366.752 117.556C365.372 120.226 363.407 122.311 360.857 123.811C358.322 125.296 355.307 126.038 351.812 126.038ZM351.857 118.613C353.447 118.613 354.775 118.163 355.84 117.263C356.905 116.348 357.707 115.103 358.247 113.528C358.802 111.953 359.08 110.161 359.08 108.151C359.08 106.141 358.802 104.348 358.247 102.773C357.707 101.198 356.905 99.9533 355.84 99.0383C354.775 98.1233 353.447 97.6658 351.857 97.6658C350.252 97.6658 348.902 98.1233 347.807 99.0383C346.727 99.9533 345.91 101.198 345.355 102.773C344.815 104.348 344.545 106.141 344.545 108.151C344.545 110.161 344.815 111.953 345.355 113.528C345.91 115.103 346.727 116.348 347.807 117.263C348.902 118.163 350.252 118.613 351.857 118.613ZM390.67 126.038C387.175 126.038 384.152 125.296 381.602 123.811C379.067 122.311 377.11 120.226 375.73 117.556C374.35 114.871 373.66 111.758 373.66 108.218C373.66 104.648 374.35 101.528 375.73 98.8583C377.11 96.1733 379.067 94.0883 381.602 92.6033C384.152 91.1033 387.175 90.3533 390.67 90.3533C394.165 90.3533 397.18 91.1033 399.715 92.6033C402.265 94.0883 404.23 96.1733 405.61 98.8583C406.99 101.528 407.68 104.648 407.68 108.218C407.68 111.758 406.99 114.871 405.61 117.556C404.23 120.226 402.265 122.311 399.715 123.811C397.18 125.296 394.165 126.038 390.67 126.038ZM390.715 118.613C392.305 118.613 393.632 118.163 394.697 117.263C395.762 116.348 396.565 115.103 397.105 113.528C397.66 111.953 397.937 110.161 397.937 108.151C397.937 106.141 397.66 104.348 397.105 102.773C396.565 101.198 395.762 99.9533 394.697 99.0383C393.632 98.1233 392.305 97.6658 390.715 97.6658C389.11 97.6658 387.76 98.1233 386.665 99.0383C385.585 99.9533 384.767 101.198 384.212 102.773C383.672 104.348 383.402 106.141 383.402 108.151C383.402 110.161 383.672 111.953 384.212 113.528C384.767 115.103 385.585 116.348 386.665 117.263C387.76 118.163 389.11 118.613 390.715 118.613ZM413.912 125.363V90.8033H423.047V96.9008H423.452C424.172 94.8758 425.372 93.2783 427.052 92.1083C428.732 90.9383 430.742 90.3533 433.082 90.3533C435.452 90.3533 437.47 90.9458 439.135 92.1308C440.8 93.3008 441.91 94.8908 442.465 96.9008H442.825C443.53 94.9208 444.805 93.3383 446.65 92.1533C448.51 90.9533 450.707 90.3533 453.242 90.3533C456.467 90.3533 459.085 91.3808 461.095 93.4358C463.12 95.4758 464.132 98.3708 464.132 102.121V125.363H454.57V104.011C454.57 102.091 454.06 100.651 453.04 99.6908C452.02 98.7308 450.745 98.2508 449.215 98.2508C447.475 98.2508 446.117 98.8058 445.142 99.9158C444.167 101.011 443.68 102.458 443.68 104.258V125.363H434.387V103.808C434.387 102.113 433.9 100.763 432.925 99.7583C431.965 98.7533 430.697 98.2508 429.122 98.2508C428.057 98.2508 427.097 98.5208 426.242 99.0608C425.402 99.5858 424.735 100.328 424.24 101.288C423.745 102.233 423.497 103.343 423.497 104.618V125.363H413.912Z" fill="black"/>
</svg>
