<svg width="528" height="528" viewBox="0 0 528 528" fill="none" xmlns="http://www.w3.org/2000/svg">
<rect x="2.64" y="2.64" width="522.72" height="522.72" fill="white"/>
<rect x="2.64" y="2.64" width="522.72" height="522.72" stroke="black" stroke-width="5.28"/>
<rect width="306.24" height="79.2" transform="translate(108 48)" fill="white"/>
<path d="M137.002 77.1725C136.822 75.3575 136.05 73.9475 134.685 72.9425C133.32 71.9375 131.467 71.435 129.127 71.435C127.537 71.435 126.195 71.66 125.1 72.11C124.005 72.545 123.165 73.1525 122.58 73.9325C122.01 74.7125 121.725 75.5975 121.725 76.5875C121.695 77.4125 121.867 78.1325 122.242 78.7475C122.632 79.3625 123.165 79.895 123.84 80.345C124.515 80.78 125.295 81.1625 126.18 81.4925C127.065 81.8075 128.01 82.0775 129.015 82.3025L133.155 83.2925C135.165 83.7425 137.01 84.3425 138.69 85.0925C140.37 85.8425 141.825 86.765 143.055 87.86C144.285 88.955 145.237 90.245 145.912 91.73C146.602 93.215 146.955 94.9175 146.97 96.8375C146.955 99.6575 146.235 102.102 144.81 104.172C143.4 106.228 141.36 107.825 138.69 108.965C136.035 110.09 132.832 110.652 129.082 110.652C125.362 110.652 122.122 110.082 119.362 108.942C116.617 107.802 114.472 106.115 112.927 103.88C111.397 101.63 110.595 98.8475 110.52 95.5325H119.947C120.052 97.0775 120.495 98.3675 121.275 99.4025C122.07 100.423 123.127 101.195 124.447 101.72C125.782 102.23 127.29 102.485 128.97 102.485C130.62 102.485 132.052 102.245 133.267 101.765C134.497 101.285 135.45 100.618 136.125 99.7625C136.8 98.9075 137.137 97.925 137.137 96.815C137.137 95.78 136.83 94.91 136.215 94.205C135.615 93.5 134.73 92.9 133.56 92.405C132.405 91.91 130.987 91.46 129.307 91.055L124.29 89.795C120.405 88.85 117.337 87.3725 115.087 85.3625C112.837 83.3525 111.72 80.645 111.735 77.24C111.72 74.45 112.462 72.0125 113.962 69.9275C115.477 67.8425 117.555 66.215 120.195 65.045C122.835 63.875 125.835 63.29 129.195 63.29C132.615 63.29 135.6 63.875 138.15 65.045C140.715 66.215 142.71 67.8425 144.135 69.9275C145.56 72.0125 146.295 74.4275 146.34 77.1725H137.002ZM168.958 110.675C165.418 110.675 162.373 109.925 159.823 108.425C157.288 106.91 155.338 104.81 153.973 102.125C152.623 99.44 151.948 96.35 151.948 92.855C151.948 89.315 152.63 86.21 153.995 83.54C155.375 80.855 157.333 78.7625 159.868 77.2625C162.403 75.7475 165.418 74.99 168.913 74.99C171.928 74.99 174.568 75.5375 176.833 76.6325C179.098 77.7275 180.89 79.265 182.21 81.245C183.53 83.225 184.258 85.55 184.393 88.22H175.348C175.093 86.495 174.418 85.1075 173.323 84.0575C172.243 82.9925 170.825 82.46 169.07 82.46C167.585 82.46 166.288 82.865 165.178 83.675C164.083 84.47 163.228 85.6325 162.613 87.1625C161.998 88.6925 161.69 90.545 161.69 92.72C161.69 94.925 161.99 96.8 162.59 98.345C163.205 99.89 164.068 101.068 165.178 101.877C166.288 102.688 167.585 103.093 169.07 103.093C170.165 103.093 171.148 102.868 172.018 102.418C172.903 101.968 173.63 101.315 174.2 100.46C174.785 99.59 175.168 98.5475 175.348 97.3325H184.393C184.243 99.9725 183.523 102.298 182.233 104.308C180.958 106.303 179.195 107.863 176.945 108.988C174.695 110.113 172.033 110.675 168.958 110.675ZM212.692 95.285V75.44H222.277V110H213.075V103.722H212.715C211.935 105.747 210.637 107.375 208.822 108.605C207.022 109.835 204.825 110.45 202.23 110.45C199.92 110.45 197.887 109.925 196.132 108.875C194.377 107.825 193.005 106.333 192.015 104.398C191.04 102.463 190.545 100.145 190.53 97.445V75.44H200.115V95.735C200.13 97.775 200.677 99.3875 201.757 100.572C202.837 101.758 204.285 102.35 206.1 102.35C207.255 102.35 208.335 102.087 209.34 101.562C210.345 101.023 211.155 100.228 211.77 99.1775C212.4 98.1275 212.707 96.83 212.692 95.285ZM239.529 63.92V110H229.944V63.92H239.529ZM247.207 122.96V75.44H256.657V81.245H257.085C257.505 80.315 258.112 79.37 258.907 78.41C259.717 77.435 260.767 76.625 262.057 75.98C263.362 75.32 264.982 74.99 266.917 74.99C269.437 74.99 271.762 75.65 273.892 76.97C276.022 78.275 277.725 80.2475 279 82.8875C280.275 85.5125 280.912 88.805 280.912 92.765C280.912 96.62 280.29 99.875 279.045 102.53C277.815 105.17 276.135 107.173 274.005 108.538C271.89 109.887 269.52 110.562 266.895 110.562C265.035 110.562 263.452 110.255 262.147 109.64C260.857 109.025 259.8 108.253 258.975 107.323C258.15 106.377 257.52 105.425 257.085 104.465H256.792V122.96H247.207ZM256.59 92.72C256.59 94.775 256.875 96.5675 257.445 98.0975C258.015 99.6275 258.84 100.82 259.92 101.675C261 102.515 262.312 102.935 263.857 102.935C265.417 102.935 266.737 102.508 267.817 101.653C268.897 100.783 269.715 99.5825 270.27 98.0525C270.84 96.5075 271.125 94.73 271.125 92.72C271.125 90.725 270.847 88.97 270.292 87.455C269.737 85.94 268.92 84.755 267.84 83.9C266.76 83.045 265.432 82.6175 263.857 82.6175C262.297 82.6175 260.977 83.03 259.897 83.855C258.832 84.68 258.015 85.85 257.445 87.365C256.875 88.88 256.59 90.665 256.59 92.72ZM305.685 75.44V82.64H284.872V75.44H305.685ZM289.597 67.16H299.182V99.38C299.182 100.265 299.317 100.955 299.587 101.45C299.857 101.93 300.232 102.268 300.712 102.463C301.207 102.658 301.777 102.755 302.422 102.755C302.872 102.755 303.322 102.718 303.772 102.643C304.222 102.553 304.567 102.485 304.807 102.44L306.315 109.573C305.835 109.723 305.16 109.895 304.29 110.09C303.42 110.3 302.362 110.428 301.117 110.472C298.807 110.562 296.782 110.255 295.042 109.55C293.317 108.845 291.975 107.75 291.015 106.265C290.055 104.78 289.582 102.905 289.597 100.64V67.16ZM334.091 95.285V75.44H343.676V110H334.473V103.722H334.113C333.333 105.747 332.036 107.375 330.221 108.605C328.421 109.835 326.223 110.45 323.628 110.45C321.318 110.45 319.286 109.925 317.531 108.875C315.776 107.825 314.403 106.333 313.413 104.398C312.438 102.463 311.943 100.145 311.928 97.445V75.44H321.513V95.735C321.528 97.775 322.076 99.3875 323.156 100.572C324.236 101.758 325.683 102.35 327.498 102.35C328.653 102.35 329.733 102.087 330.738 101.562C331.743 101.023 332.553 100.228 333.168 99.1775C333.798 98.1275 334.106 96.83 334.091 95.285ZM351.343 110V75.44H360.635V81.47H360.995C361.625 79.325 362.683 77.705 364.168 76.61C365.653 75.5 367.363 74.945 369.298 74.945C369.778 74.945 370.295 74.975 370.85 75.035C371.405 75.095 371.893 75.1775 372.313 75.2825V83.7875C371.863 83.6525 371.24 83.5325 370.445 83.4275C369.65 83.3225 368.923 83.27 368.263 83.27C366.853 83.27 365.593 83.5775 364.483 84.1925C363.388 84.7925 362.518 85.6325 361.873 86.7125C361.243 87.7925 360.928 89.0375 360.928 90.4475V110H351.343ZM391.41 110.675C387.855 110.675 384.795 109.955 382.23 108.515C379.68 107.06 377.715 105.005 376.335 102.35C374.955 99.68 374.265 96.5225 374.265 92.8775C374.265 89.3225 374.955 86.2025 376.335 83.5175C377.715 80.8325 379.657 78.74 382.162 77.24C384.682 75.74 387.637 74.99 391.027 74.99C393.307 74.99 395.43 75.3575 397.395 76.0925C399.375 76.8125 401.1 77.9 402.57 79.355C404.055 80.81 405.21 82.64 406.035 84.845C406.86 87.035 407.272 89.6 407.272 92.54V95.1725H378.09V89.2325H398.25C398.25 87.8525 397.95 86.63 397.35 85.565C396.75 84.5 395.917 83.6675 394.852 83.0675C393.802 82.4525 392.58 82.145 391.185 82.145C389.73 82.145 388.44 82.4825 387.315 83.1575C386.205 83.8175 385.335 84.71 384.705 85.835C384.075 86.945 383.752 88.1825 383.737 89.5475V95.195C383.737 96.905 384.052 98.3825 384.682 99.6275C385.327 100.873 386.235 101.833 387.405 102.508C388.575 103.183 389.962 103.52 391.567 103.52C392.632 103.52 393.607 103.37 394.492 103.07C395.377 102.77 396.135 102.32 396.765 101.72C397.395 101.12 397.875 100.385 398.205 99.515L407.07 100.1C406.62 102.23 405.697 104.09 404.302 105.68C402.922 107.255 401.137 108.485 398.947 109.37C396.772 110.24 394.26 110.675 391.41 110.675Z" fill="black"/>
<rect x="180.421" y="181.34" width="166.32" height="166.32" rx="83.16" fill="white"/>
<rect x="180.421" y="181.34" width="166.32" height="166.32" rx="83.16" stroke="#D9D9D9" stroke-width="2.64"/>
<path d="M265.341 232.823C265.45 232.823 265.626 233.13 265.826 233.598L266.14 234.4L266.298 234.858L266.601 235.826L266.735 236.301L266.956 237.181C267.048 237.582 267.101 237.91 267.101 238.103L267.09 238.286C268.065 238.494 268.956 238.871 269.755 239.378C269.786 239.151 269.861 238.932 269.976 238.734C270.236 238.358 270.532 238.009 270.86 237.692L271.55 237.012L272.293 236.326L273.011 235.72C273.574 235.263 274.021 234.971 274.141 235.041C274.281 235.122 274.211 235.879 274.042 236.808L273.845 237.776L273.609 238.751L273.363 239.624C273.278 239.924 273.165 240.215 273.025 240.494C272.905 240.702 272.743 240.884 272.55 241.027C272.357 241.17 272.136 241.273 271.902 241.328C273.047 242.78 273.787 244.509 274.045 246.34C274.303 248.171 274.072 250.038 273.373 251.75C273.145 252.313 272.775 252.806 272.3 253.183L271.937 253.433L272 253.447C273.503 253.747 274.867 254.529 275.884 255.675C276.902 256.82 277.518 258.266 277.639 259.794L277.661 260.35V266.566L278.692 265.535C279.325 264.903 280.175 264.537 281.069 264.51C281.963 264.482 282.834 264.796 283.505 265.388C284.176 265.979 284.596 266.804 284.681 267.694C284.766 268.585 284.508 269.474 283.961 270.181L283.669 270.512L277.661 276.521V285.623C278.523 285.624 279.355 285.94 279.999 286.513C280.643 287.086 281.055 287.875 281.156 288.732L281.181 289.143V296.183C282.078 296.184 282.941 296.528 283.593 297.144C284.245 297.76 284.638 298.602 284.691 299.497C284.743 300.393 284.452 301.275 283.876 301.963C283.3 302.651 282.483 303.093 281.592 303.199L281.181 303.223H249.501C248.603 303.222 247.74 302.879 247.088 302.263C246.436 301.647 246.043 300.805 245.991 299.91C245.938 299.014 246.229 298.132 246.805 297.444C247.381 296.756 248.198 296.314 249.089 296.208L249.501 296.183V289.143C249.501 288.281 249.817 287.449 250.39 286.805C250.963 286.161 251.753 285.749 252.609 285.648L253.021 285.623V273.001L247.012 266.992C246.465 266.445 246.114 265.732 246.012 264.965L245.981 264.503V242.912C245.339 242.542 244.83 241.98 244.526 241.305C244.222 240.63 244.139 239.876 244.289 239.151C244.438 238.426 244.812 237.766 245.358 237.266C245.904 236.766 246.593 236.45 247.329 236.365L247.741 236.343H251.261C251.84 236.343 252.411 236.486 252.922 236.759C253.433 237.032 253.869 237.427 254.19 237.909C254.512 238.391 254.71 238.945 254.766 239.522C254.823 240.098 254.736 240.68 254.513 241.215L254.312 241.616L256.65 246.291C256.911 244.478 257.646 242.766 258.779 241.328C258.545 241.273 258.325 241.17 258.131 241.027C257.938 240.884 257.777 240.702 257.656 240.494C257.517 240.215 257.403 239.924 257.319 239.624L257.072 238.751L256.836 237.776L256.639 236.808C256.47 235.879 256.396 235.122 256.541 235.041C256.66 234.971 257.107 235.266 257.671 235.72L258.389 236.326L259.131 237.012L259.821 237.692C260.244 238.128 260.575 238.508 260.705 238.734C260.82 238.933 260.896 239.153 260.927 239.381C261.722 238.871 262.616 238.494 263.591 238.286L263.581 238.103C263.581 237.91 263.633 237.582 263.721 237.181L263.947 236.301L264.228 235.34C264.328 235.025 264.434 234.712 264.545 234.4L264.855 233.598C265.055 233.13 265.231 232.823 265.341 232.823ZM274.141 292.663H256.541V296.183H274.141V292.663ZM270.621 264.201L260.061 274.761V285.623H270.621V264.201ZM253.021 254.774V263.046L257.421 267.446L265.534 259.333L255.851 257.397C254.379 257.101 253.64 256.013 253.021 254.774ZM265.341 245.143C265.048 245.143 264.661 245.274 264.281 245.717C263.81 246.301 263.562 247.033 263.581 247.783C263.581 248.112 263.619 248.417 263.697 248.699L263.827 249.096C264.003 249.527 264.091 249.988 264.088 250.454C264.084 250.919 263.988 251.379 263.806 251.807L267.27 252.5C266.962 252.079 266.753 251.595 266.655 251.083C266.558 250.571 266.575 250.044 266.706 249.54L266.854 249.096C267.019 248.678 267.103 248.233 267.101 247.783C267.119 247.033 266.871 246.301 266.4 245.717C266.02 245.274 265.633 245.143 265.341 245.143ZM249.501 224.023C250.05 224.023 253.021 229.12 253.021 231.063C253.021 231.997 252.65 232.892 251.99 233.552C251.329 234.213 250.434 234.583 249.501 234.583C248.567 234.583 247.672 234.213 247.012 233.552C246.351 232.892 245.981 231.997 245.981 231.063C245.981 229.12 248.951 224.023 249.501 224.023Z" fill="black"/>
</svg>
