<svg width="1401" height="957" viewBox="0 0 1401 957" fill="none" xmlns="http://www.w3.org/2000/svg">
<g clip-path="url(#clip0_409_1489)">
<rect width="1401" height="957" fill="white"/>
<line x1="702" y1="8.98101" x2="708" y2="956.981" stroke="black" stroke-width="6"/>
<rect x="518.917" y="295.917" width="364.316" height="364.316" rx="182.158" fill="white"/>
<rect x="518.917" y="295.917" width="364.316" height="364.316" rx="182.158" stroke="#D9D9D9" stroke-width="3.83491"/>
<path d="M593.698 478.076C593.698 418.773 641.773 370.698 701.076 370.698C760.379 370.698 808.453 418.773 808.453 478.076C808.453 537.379 760.379 585.453 701.076 585.453C641.773 585.453 593.698 537.379 593.698 478.076ZM695.791 386.191C695.879 387.48 695.599 388.768 694.984 389.905C694.369 391.041 693.444 391.979 692.317 392.611L663.609 408.556C663.022 408.882 662.396 409.13 661.745 409.293L658.777 410.037L660.433 421.626L687.239 426.995C688.735 427.293 690.107 428.03 691.182 429.112L724.085 412.652V398.44C724.085 396.612 724.738 394.844 725.926 393.454C727.114 392.065 728.76 391.146 730.566 390.862C719.382 387.087 707.576 385.506 695.791 386.191ZM638.037 411.011C623.098 425.028 613.272 443.637 610.119 463.879L634.41 451.737C634.583 451.323 634.798 450.924 635.054 450.541L652.219 424.824C653.244 423.285 654.792 422.168 656.575 421.679L655.041 410.972L645.608 413.327C644.257 413.674 642.836 413.642 641.502 413.235C640.168 412.828 638.972 412.061 638.045 411.018M609.544 468.465C609.207 471.615 609.038 474.806 609.038 478.037V478.114C609.038 488.576 610.794 498.638 614.016 508.011L634.801 531.112C635.483 530.292 636.33 529.623 637.286 529.149L651.076 522.246C651.791 521.892 652.557 521.651 653.346 521.533L656.476 484.02C654.502 483.71 652.727 482.642 651.529 481.044L635.307 459.407C634.612 458.483 634.134 457.413 633.911 456.278L609.544 468.465ZM633.198 535.062L618.456 518.68C622.848 527.607 628.658 535.764 635.66 542.832C634.811 541.088 634.086 539.286 633.489 537.44C633.237 536.674 633.138 535.866 633.198 535.062ZM701.076 570.113C720.756 570.113 738.995 563.931 753.959 553.409L755.846 538.353C754.964 538.468 754.068 538.429 753.2 538.238L730.091 533.099C728.491 532.742 727.047 531.882 725.972 530.645L688.927 547.748L688.888 548.055L686.886 562.091C686.725 563.195 686.334 564.238 685.767 565.159C689.134 567.045 692.662 568.641 696.198 569.991C697.808 570.067 699.434 570.108 701.076 570.113ZM759.941 536.504L758.223 550.233C774.639 537.24 786.135 519.037 790.812 498.631L779.591 504.237C779.435 504.639 779.245 505.026 779.024 505.395L761.445 534.694C761.04 535.371 760.533 535.982 759.941 536.504ZM779.929 499.781L791.763 493.868C792.663 488.729 793.113 483.465 793.113 478.076C793.113 457.927 786.64 439.289 775.657 424.134C775.463 425.863 774.687 427.475 773.456 428.705L766.668 435.493C765.92 436.24 765.026 436.825 764.041 437.211C763.056 437.596 762.003 437.774 760.946 437.732L763.914 477.194C764.701 477.713 765.385 478.374 765.932 479.142L778.686 496.997C779.3 497.841 779.714 498.799 779.929 499.781ZM660.357 483.629L657.166 521.916C657.728 522.124 658.263 522.397 658.761 522.729L685.552 540.585C686.747 541.384 687.693 542.503 688.282 543.814L724.254 527.216C724.141 526.687 724.084 526.147 724.085 525.605V494.773C724.084 493.666 724.322 492.573 724.783 491.567L690.238 471.418C689.726 471.792 689.17 472.101 688.581 472.339L660.51 483.56L660.357 483.629ZM692.708 468.419L727.245 488.568C727.759 488.193 728.319 487.884 728.909 487.648L756.843 476.48C757.839 476.081 758.908 475.896 759.98 475.936L757.012 436.475L727.805 418.949C726.747 418.314 725.857 417.432 725.212 416.38L693.122 432.425C693.311 433.09 693.406 433.785 693.406 434.511V465.213C693.407 466.32 693.169 467.414 692.708 468.419Z" fill="black"/>
<rect width="558" height="111" transform="translate(422.15 133.359)" fill="white"/>
<path d="M464.28 174.673C464.018 172.036 462.896 169.988 460.913 168.528C458.931 167.068 456.24 166.339 452.841 166.339C450.531 166.339 448.581 166.665 446.99 167.319C445.4 167.951 444.179 168.833 443.33 169.966C442.502 171.099 442.088 172.385 442.088 173.823C442.044 175.022 442.295 176.067 442.839 176.961C443.406 177.854 444.179 178.628 445.16 179.281C446.14 179.913 447.273 180.469 448.559 180.948C449.845 181.406 451.217 181.798 452.677 182.125L458.691 183.563C461.611 184.217 464.291 185.088 466.731 186.178C469.172 187.267 471.285 188.607 473.072 190.198C474.859 191.788 476.242 193.662 477.223 195.819C478.225 197.976 478.737 200.45 478.759 203.239C478.737 207.335 477.691 210.887 475.621 213.894C473.573 216.879 470.61 219.199 466.731 220.855C462.874 222.489 458.222 223.306 452.775 223.306C447.371 223.306 442.665 222.478 438.656 220.823C434.668 219.167 431.552 216.715 429.308 213.469C427.086 210.2 425.92 206.158 425.811 201.343H439.506C439.658 203.587 440.301 205.461 441.434 206.965C442.589 208.446 444.125 209.568 446.042 210.331C447.982 211.072 450.171 211.442 452.612 211.442C455.009 211.442 457.089 211.094 458.854 210.396C460.641 209.699 462.025 208.729 463.005 207.487C463.986 206.246 464.476 204.818 464.476 203.206C464.476 201.702 464.029 200.439 463.136 199.415C462.264 198.39 460.979 197.519 459.279 196.8C457.601 196.081 455.542 195.427 453.102 194.839L445.814 193.009C440.17 191.636 435.714 189.49 432.446 186.57C429.177 183.65 427.554 179.717 427.576 174.771C427.554 170.718 428.633 167.177 430.812 164.149C433.012 161.12 436.03 158.756 439.865 157.056C443.7 155.357 448.058 154.507 452.939 154.507C457.907 154.507 462.243 155.357 465.947 157.056C469.673 158.756 472.571 161.12 474.641 164.149C476.711 167.177 477.778 170.685 477.844 174.673H464.28ZM510.699 223.339C505.622 223.339 501.232 222.261 497.528 220.103C493.845 217.925 491.002 214.896 488.997 211.017C486.992 207.117 485.99 202.596 485.99 197.454C485.99 192.268 486.992 187.736 488.997 183.857C491.002 179.957 493.845 176.928 497.528 174.771C501.232 172.592 505.622 171.503 510.699 171.503C515.776 171.503 520.156 172.592 523.838 174.771C527.542 176.928 530.397 179.957 532.401 183.857C534.406 187.736 535.408 192.268 535.408 197.454C535.408 202.596 534.406 207.117 532.401 211.017C530.397 214.896 527.542 217.925 523.838 220.103C520.156 222.261 515.776 223.339 510.699 223.339ZM510.764 212.553C513.074 212.553 515.003 211.9 516.55 210.592C518.097 209.263 519.262 207.455 520.047 205.167C520.853 202.879 521.256 200.275 521.256 197.355C521.256 194.436 520.853 191.832 520.047 189.544C519.262 187.256 518.097 185.448 516.55 184.119C515.003 182.789 513.074 182.125 510.764 182.125C508.433 182.125 506.472 182.789 504.881 184.119C503.313 185.448 502.125 187.256 501.319 189.544C500.534 191.832 500.142 194.436 500.142 197.355C500.142 200.275 500.534 202.879 501.319 205.167C502.125 207.455 503.313 209.263 504.881 210.592C506.472 211.9 508.433 212.553 510.764 212.553ZM567.144 223.339C562.002 223.339 557.579 222.25 553.875 220.071C550.192 217.87 547.36 214.82 545.377 210.919C543.416 207.019 542.435 202.53 542.435 197.454C542.435 192.311 543.427 187.801 545.409 183.922C547.414 180.022 550.257 176.983 553.94 174.804C557.622 172.603 562.002 171.503 567.079 171.503C571.458 171.503 575.293 172.298 578.584 173.888C581.874 175.479 584.477 177.712 586.395 180.589C588.312 183.465 589.369 186.842 589.565 190.721H576.426C576.056 188.215 575.075 186.199 573.485 184.674C571.916 183.127 569.857 182.354 567.308 182.354C565.15 182.354 563.266 182.942 561.653 184.119C560.063 185.273 558.821 186.962 557.927 189.185C557.034 191.407 556.587 194.098 556.587 197.257C556.587 200.46 557.023 203.184 557.895 205.428C558.788 207.673 560.041 209.383 561.653 210.56C563.266 211.736 565.15 212.325 567.308 212.325C568.898 212.325 570.325 211.998 571.589 211.344C572.875 210.691 573.932 209.743 574.759 208.501C575.609 207.237 576.165 205.723 576.426 203.958H589.565C589.347 207.793 588.302 211.17 586.428 214.09C584.576 216.988 582.015 219.254 578.747 220.888C575.479 222.522 571.611 223.339 567.144 223.339ZM621.162 223.339C616.02 223.339 611.597 222.25 607.893 220.071C604.21 217.87 601.378 214.82 599.395 210.919C597.434 207.019 596.453 202.53 596.453 197.454C596.453 192.311 597.445 187.801 599.428 183.922C601.432 180.022 604.276 176.983 607.958 174.804C611.641 172.603 616.02 171.503 621.097 171.503C625.477 171.503 629.312 172.298 632.602 173.888C635.892 175.479 638.496 177.712 640.413 180.589C642.331 183.465 643.387 186.842 643.584 190.721H630.445C630.074 188.215 629.094 186.199 627.503 184.674C625.934 183.127 623.875 182.354 621.326 182.354C619.169 182.354 617.284 182.942 615.672 184.119C614.081 185.273 612.839 186.962 611.946 189.185C611.052 191.407 610.606 194.098 610.606 197.257C610.606 200.46 611.041 203.184 611.913 205.428C612.806 207.673 614.059 209.383 615.672 210.56C617.284 211.736 619.169 212.325 621.326 212.325C622.916 212.325 624.344 211.998 625.607 211.344C626.893 210.691 627.95 209.743 628.778 208.501C629.628 207.237 630.183 205.723 630.445 203.958H643.584C643.366 207.793 642.32 211.17 640.446 214.09C638.594 216.988 636.034 219.254 632.765 220.888C629.497 222.522 625.629 223.339 621.162 223.339ZM675.377 223.339C670.213 223.339 665.768 222.293 662.042 220.202C658.338 218.088 655.483 215.103 653.479 211.246C651.474 207.368 650.472 202.781 650.472 197.486C650.472 192.322 651.474 187.79 653.479 183.89C655.483 179.989 658.305 176.95 661.944 174.771C665.604 172.592 669.897 171.503 674.821 171.503C678.133 171.503 681.216 172.036 684.071 173.104C686.947 174.15 689.453 175.73 691.588 177.843C693.745 179.957 695.423 182.615 696.621 185.818C697.82 188.999 698.419 192.725 698.419 196.996V200.82H656.028V192.191H685.313C685.313 190.187 684.877 188.411 684.005 186.864C683.134 185.317 681.924 184.108 680.377 183.236C678.852 182.343 677.076 181.896 675.05 181.896C672.936 181.896 671.062 182.386 669.428 183.367C667.816 184.326 666.552 185.622 665.637 187.256C664.722 188.869 664.253 190.666 664.232 192.649V200.853C664.232 203.337 664.689 205.483 665.604 207.291C666.541 209.1 667.859 210.494 669.559 211.475C671.259 212.455 673.274 212.946 675.606 212.946C677.153 212.946 678.569 212.728 679.854 212.292C681.14 211.856 682.24 211.203 683.156 210.331C684.071 209.459 684.768 208.392 685.247 207.128L698.125 207.978C697.471 211.072 696.131 213.774 694.105 216.083C692.1 218.371 689.507 220.158 686.326 221.443C683.166 222.707 679.517 223.339 675.377 223.339ZM707.505 222.359V172.156H721.003V180.916H721.526C722.442 177.8 723.978 175.446 726.135 173.856C728.292 172.243 730.776 171.437 733.587 171.437C734.284 171.437 735.036 171.481 735.842 171.568C736.648 171.655 737.356 171.775 737.966 171.927V184.282C737.313 184.086 736.408 183.912 735.254 183.759C734.099 183.606 733.042 183.53 732.083 183.53C730.035 183.53 728.205 183.977 726.592 184.87C725.002 185.742 723.738 186.962 722.801 188.531C721.886 190.1 721.428 191.908 721.428 193.956V222.359H707.505ZM766.728 222.359V155.422H811.047V167.09H780.88V183.04H808.106V194.708H780.88V222.359H766.728ZM820.305 222.359V172.156H834.228V222.359H820.305ZM827.3 165.685C825.23 165.685 823.454 164.998 821.972 163.626C820.512 162.231 819.782 160.564 819.782 158.625C819.782 156.708 820.512 155.063 821.972 153.69C823.454 152.295 825.23 151.598 827.3 151.598C829.369 151.598 831.134 152.295 832.594 153.69C834.076 155.063 834.817 156.708 834.817 158.625C834.817 160.564 834.076 162.231 832.594 163.626C831.134 164.998 829.369 165.685 827.3 165.685ZM868.261 223.339C863.096 223.339 858.651 222.293 854.926 220.202C851.221 218.088 848.367 215.103 846.362 211.246C844.358 207.368 843.355 202.781 843.355 197.486C843.355 192.322 844.358 187.79 846.362 183.89C848.367 179.989 851.189 176.95 854.827 174.771C858.488 172.592 862.781 171.503 867.705 171.503C871.017 171.503 874.1 172.036 876.954 173.104C879.831 174.15 882.336 175.73 884.472 177.843C886.629 179.957 888.307 182.615 889.505 185.818C890.703 188.999 891.303 192.725 891.303 196.996V200.82H848.912V192.191H878.196C878.196 190.187 877.761 188.411 876.889 186.864C876.017 185.317 874.808 184.108 873.261 183.236C871.736 182.343 869.96 181.896 867.934 181.896C865.82 181.896 863.946 182.386 862.312 183.367C860.7 184.326 859.436 185.622 858.521 187.256C857.606 188.869 857.137 190.666 857.115 192.649V200.853C857.115 203.337 857.573 205.483 858.488 207.291C859.425 209.1 860.743 210.494 862.443 211.475C864.142 212.455 866.158 212.946 868.489 212.946C870.036 212.946 871.453 212.728 872.738 212.292C874.024 211.856 875.124 211.203 876.039 210.331C876.954 209.459 877.652 208.392 878.131 207.128L891.008 207.978C890.355 211.072 889.015 213.774 886.988 216.083C884.984 218.371 882.391 220.158 879.21 221.443C876.05 222.707 872.4 223.339 868.261 223.339ZM914.312 155.422V222.359H900.389V155.422H914.312ZM943.965 223.176C940.151 223.176 936.698 222.195 933.604 220.234C930.531 218.251 928.091 215.343 926.283 211.508C924.496 207.651 923.602 202.923 923.602 197.323C923.602 191.57 924.528 186.788 926.381 182.975C928.233 179.14 930.695 176.274 933.767 174.379C936.861 172.461 940.249 171.503 943.932 171.503C946.743 171.503 949.085 171.982 950.959 172.941C952.855 173.878 954.38 175.054 955.535 176.471C956.711 177.865 957.605 179.238 958.215 180.589H958.64V155.422H972.53V222.359H958.803V214.318H958.215C957.561 215.713 956.635 217.097 955.437 218.469C954.26 219.82 952.724 220.942 950.828 221.836C948.954 222.729 946.666 223.176 943.965 223.176ZM948.377 212.096C950.621 212.096 952.517 211.486 954.064 210.266C955.633 209.024 956.831 207.291 957.659 205.069C958.509 202.846 958.934 200.243 958.934 197.257C958.934 194.272 958.52 191.679 957.692 189.479C956.864 187.278 955.665 185.578 954.096 184.38C952.528 183.182 950.621 182.582 948.377 182.582C946.089 182.582 944.161 183.203 942.592 184.445C941.023 185.687 939.835 187.409 939.029 189.609C938.223 191.81 937.82 194.359 937.82 197.257C937.82 200.177 938.223 202.759 939.029 205.004C939.857 207.226 941.045 208.969 942.592 210.233C944.161 211.475 946.089 212.096 948.377 212.096Z" fill="black"/>
<rect x="4.22046" y="184.22" width="234.433" height="598.744" stroke="black" stroke-width="8.44093"/>
<rect x="4.22046" y="348.16" width="76.565" height="270.864" stroke="black" stroke-width="8.44093"/>
<path d="M239.837 595.923C259.682 582.75 268.555 572.508 279.908 551.569C291.262 530.63 297.31 507.227 297.523 483.41C297.736 459.592 292.107 436.085 281.13 414.946C270.153 393.808 259.443 378.719 239.837 365.193" stroke="black" stroke-width="8.44093"/>
<rect x="-4.22046" y="4.22046" width="234.433" height="598.744" transform="matrix(-1 0 0 1 1393.09 174)" stroke="black" stroke-width="8.44093"/>
<rect x="-4.22046" y="4.22046" width="76.565" height="270.864" transform="matrix(-1 0 0 1 1393.09 337.939)" stroke="black" stroke-width="8.44093"/>
<path d="M1161.69 589.923C1141.85 576.75 1132.97 566.508 1121.62 545.569C1110.27 524.63 1104.22 501.227 1104.01 477.41C1103.79 453.592 1109.42 430.085 1120.4 408.946C1131.38 387.808 1142.09 372.719 1161.69 359.193" stroke="black" stroke-width="8.44093"/>
</g>
<rect x="6" y="6" width="1389" height="945" stroke="black" stroke-width="12"/>
<defs>
<clipPath id="clip0_409_1489">
<rect width="1401" height="957" fill="white"/>
</clipPath>
</defs>
</svg>
