<svg width="1954" height="1056" viewBox="0 0 1954 1056" fill="none" xmlns="http://www.w3.org/2000/svg">
<g clip-path="url(#clip0_617_2434)">
<rect width="1953.6" height="1056" fill="white"/>
<line x1="982.084" y1="2.30796e-07" x2="982.084" y2="1056" stroke="black" stroke-width="10.56"/>
<line x1="-0.000488281" y1="102.958" x2="1953.6" y2="102.958" stroke="black" stroke-width="5.28"/>
<line x1="-0.000488281" y1="947.762" x2="1953.6" y2="947.762" stroke="black" stroke-width="5.28"/>
<line x1="491.039" y1="525.36" x2="1467.84" y2="525.36" stroke="black" stroke-width="5.28"/>
<line x1="1470.48" y1="105.598" x2="1470.48" y2="950.398" stroke="black" stroke-width="5.28"/>
<line x1="493.679" y1="105.598" x2="493.679" y2="950.398" stroke="black" stroke-width="5.28"/>
<rect x="851.42" y="402.34" width="250.8" height="250.8" rx="125.4" fill="white"/>
<rect x="851.42" y="402.34" width="250.8" height="250.8" rx="125.4" stroke="#D9D9D9" stroke-width="2.64"/>
<path d="M934.926 568.463C934.926 568.463 942.397 557.824 942.674 557.402C942.951 556.979 954.145 531.82 954.145 531.82L959.121 533.76L958.197 535.846C958.197 535.846 956.97 536.717 955.861 539.212C954.752 541.707 948.509 558.299 948.509 558.299L973.905 550.076L1004.32 545.654C1004.32 545.654 1019.39 537.087 1022.15 535.424C1024.91 533.76 1040.67 516.482 1040.67 516.482L1048.83 500.166L1050.62 481.779L1048.1 465.266C1048.1 465.266 1058.65 474.968 1055.27 495.995C1050.99 522.58 1031.5 544.294 1000.6 552.069C986.142 555.712 968.81 556.887 953.894 563.025C946.159 566.206 936.906 576.476 936.906 576.476L934.926 568.463Z" fill="black"/>
<path d="M959.922 496.981L957.111 516.359L954.906 530.443L970.152 536.661C970.152 536.661 959.421 518.669 965.717 501.351C973.597 479.689 994.995 461.025 1012.54 459.731C1024.67 458.833 1027.94 461.553 1033.96 464.457C1041.76 468.205 1046.25 477.129 1046.25 477.129C1046.25 477.129 1044.48 465.367 1044.05 464.826C1043.61 464.285 1024.55 453.355 1024.55 453.355C1024.55 453.355 1004.31 453.883 1003.77 454.213C1003.23 454.543 986.124 462.556 985.794 463.414C985.464 464.285 969.439 481.273 967.71 483.768C965.981 486.263 959.922 496.981 959.922 496.981Z" fill="black"/>
<path d="M1031.84 528.423C1031.34 528.423 1030.84 528.238 1030.45 527.855L979.487 478.171C979.111 477.805 978.896 477.304 978.888 476.78C978.881 476.255 979.082 475.749 979.448 475.372C980.213 474.593 981.467 474.58 982.246 475.333L1033.21 525.031C1033.99 525.796 1034.02 527.05 1033.25 527.829C1032.87 528.225 1032.35 528.423 1031.84 528.423ZM1039.89 518.972C1039.39 518.972 1038.87 518.774 1038.49 518.391L988.925 468.97C988.146 468.205 988.146 466.951 988.925 466.172C989.704 465.393 990.945 465.393 991.724 466.172L1041.28 515.593C1042.06 516.358 1042.06 517.612 1041.28 518.391C1040.91 518.774 1040.39 518.972 1039.89 518.972ZM1045.25 507.25C1044.73 507.25 1044.22 507.052 1043.84 506.656L1000.91 462.595C1000.15 461.816 1000.16 460.562 1000.95 459.796C1001.73 459.031 1002.98 459.044 1003.75 459.836L1046.68 503.884C1047.44 504.663 1047.43 505.917 1046.64 506.683C1046.25 507.065 1045.75 507.25 1045.25 507.25ZM1048.22 492.004C1047.72 492.004 1047.22 491.819 1046.83 491.437L1015.34 460.364C1015.15 460.182 1015 459.965 1014.9 459.725C1014.8 459.485 1014.75 459.228 1014.75 458.967C1014.75 458.707 1014.8 458.449 1014.9 458.208C1014.99 457.968 1015.14 457.749 1015.33 457.565C1016.09 456.787 1017.34 456.773 1018.12 457.552L1049.61 488.612C1050.38 489.377 1050.4 490.631 1049.62 491.41C1049.24 491.806 1048.73 492.004 1048.22 492.004ZM1022.29 537.505C1021.79 537.505 1021.29 537.32 1020.91 536.937L971.29 488.321C970.936 487.949 970.74 487.455 970.744 486.941C970.748 486.428 970.951 485.936 971.311 485.569C971.671 485.203 972.159 484.99 972.672 484.977C973.185 484.963 973.684 485.15 974.062 485.497L1023.68 534.112C1023.96 534.388 1024.15 534.74 1024.23 535.125C1024.31 535.51 1024.27 535.91 1024.13 536.273C1023.98 536.637 1023.72 536.949 1023.4 537.168C1023.07 537.387 1022.69 537.504 1022.29 537.505ZM1009.11 544.237C1008.59 544.237 1008.08 544.039 1007.7 543.643L965.192 500.294C964.845 499.915 964.658 499.417 964.672 498.903C964.686 498.39 964.898 497.902 965.264 497.543C965.631 497.183 966.123 496.98 966.636 496.976C967.15 496.972 967.645 497.168 968.016 497.522L1010.52 540.871C1010.79 541.149 1010.98 541.502 1011.05 541.884C1011.12 542.267 1011.08 542.663 1010.93 543.023C1010.78 543.382 1010.53 543.689 1010.2 543.905C1009.88 544.121 1009.5 544.236 1009.11 544.237ZM995.552 547.352C995.05 547.352 994.562 547.167 994.166 546.784L961.839 515.302C961.482 514.932 961.283 514.438 961.284 513.924C961.285 513.41 961.486 512.916 961.844 512.548C962.203 512.179 962.69 511.964 963.204 511.949C963.718 511.933 964.218 512.118 964.598 512.464L996.938 543.946C997.716 544.712 997.743 545.966 996.977 546.745C996.581 547.154 996.066 547.352 995.552 547.352Z" fill="black"/>
<path d="M967.027 531.816C966.634 531.816 966.25 531.699 965.924 531.48C965.598 531.26 965.344 530.949 965.196 530.585C965.047 530.222 965.01 529.822 965.089 529.437C965.169 529.052 965.361 528.699 965.641 528.424L1031.87 463.335C1032.24 462.988 1032.74 462.802 1033.26 462.815C1033.77 462.829 1034.26 463.041 1034.62 463.408C1034.98 463.774 1035.18 464.266 1035.18 464.779C1035.19 465.293 1034.99 465.788 1034.64 466.16L968.413 531.249C968.03 531.632 967.529 531.816 967.027 531.816ZM963.648 520.095C963.146 520.095 962.658 519.91 962.275 519.54C961.483 518.775 961.47 517.521 962.235 516.742C984.108 494.157 1017.12 459.942 1018.92 457.712C1019.19 457.283 1019.62 456.977 1020.11 456.857C1020.61 456.736 1021.13 456.812 1021.57 457.067C1022.01 457.322 1022.34 457.737 1022.48 458.226C1022.62 458.715 1022.57 459.24 1022.33 459.692C1022.16 460.035 1021.64 461.091 965.087 519.488C964.677 519.897 964.163 520.095 963.648 520.095ZM966.605 500.757C966.218 500.757 965.84 500.643 965.517 500.431C965.193 500.218 964.94 499.916 964.787 499.56C964.634 499.205 964.588 498.813 964.655 498.432C964.723 498.051 964.9 497.698 965.166 497.417L1000.81 459.797C1001.56 459.005 1002.93 459.045 1003.72 459.797C1004.51 460.55 1004.51 461.645 1003.76 462.437L968.043 500.136C967.661 500.546 967.133 500.757 966.605 500.757ZM973.521 543.116C973.132 543.115 972.751 543 972.426 542.784C972.102 542.568 971.848 542.261 971.697 541.902C971.546 541.542 971.505 541.146 971.578 540.764C971.651 540.381 971.836 540.028 972.109 539.75L1040 470.106C1040.76 469.328 1042.19 469.103 1042.97 469.869C1043.75 470.634 1043.59 472.1 1042.82 472.878L974.947 542.522C974.551 542.918 974.036 543.116 973.521 543.116ZM986.51 548.052C986.009 548.052 985.507 547.868 985.124 547.485C984.938 547.303 984.79 547.086 984.689 546.846C984.587 546.606 984.534 546.349 984.533 546.088C984.532 545.828 984.582 545.57 984.681 545.33C984.781 545.089 984.927 544.87 985.111 544.686L1047.52 481.432C1047.89 481.06 1048.39 480.849 1048.92 480.846C1049.44 480.844 1049.95 481.05 1050.32 481.419C1051.1 482.184 1051.11 483.438 1050.33 484.217L987.923 547.472C987.54 547.854 987.025 548.052 986.51 548.052ZM1004.74 546.059C1004.28 546.059 1003.82 545.901 1003.45 545.584C1002.63 544.871 1002.52 543.657 1003.21 542.839C1003.92 541.994 1035.9 509.997 1045.69 500.202C1045.87 500.017 1046.09 499.87 1046.33 499.77C1046.57 499.67 1046.82 499.618 1047.08 499.618C1047.35 499.618 1047.6 499.67 1047.84 499.77C1048.08 499.87 1048.3 500.017 1048.48 500.202C1049.26 500.981 1049.26 502.235 1048.48 503.001C1037.08 514.406 1007.26 544.251 1006.22 545.399C1005.82 545.835 1005.28 546.059 1004.74 546.059Z" fill="black"/>
<path d="M945.258 557.668C945.258 557.668 952.993 535.729 955.092 535.03C956.082 534.7 957.31 537.34 961.164 541.102C965.362 545.194 967.79 546.619 967.46 548.282C966.932 550.922 945.258 557.668 945.258 557.668ZM1047.53 487.774C1046.62 509.659 1030.04 532.865 1007.97 541.352C994.349 546.593 978.496 545.418 969.19 535.584C960.201 526.093 959.118 516.378 961.454 505.184C965.52 485.794 983.327 464.304 999.708 458.549C1016.09 452.794 1027.16 455.513 1037.08 462.905C1044.8 468.686 1047.89 479.26 1047.53 487.774ZM1047.7 464.687C1042.46 458.43 1031.02 446.92 1008.9 450.154C988.95 453.071 972.437 468.977 962.748 485.965C955.039 499.508 954.274 510.174 951.977 521.236C949.746 531.967 941.496 552.493 939.767 555.925C935.582 564.202 931.438 565.574 930.883 566.776L934.078 577.098C934.078 577.098 936.902 572.042 943.608 565.35C950.3 558.658 965.375 555.41 971.79 554.104C979.129 552.599 990.785 552.691 1009.71 545.84C1031.53 537.947 1052.15 512.471 1053.02 490.625C1053.52 477.742 1053.13 471.168 1047.7 464.687Z" fill="black"/>
<path d="M932.391 564.009C930.425 564.339 910.361 585.987 910.361 585.987C910.361 585.987 902.797 589.71 901.385 590.686C899.972 591.663 899.827 594.211 901.239 595.768C902.652 597.326 911.126 605.655 912.248 606.645C913.37 607.635 916.446 607.569 917.185 605.378C917.819 603.517 920.775 598.276 920.775 598.276C920.775 598.276 942.753 575.52 942.753 574.384C942.753 573.249 933.236 563.877 932.391 564.009Z" fill="black"/>
<path d="M907.874 592.527C908.561 596.17 913.471 596.21 916.322 594.164C918.514 592.58 917.444 590.507 918.976 588.87C920.797 586.917 922.474 588.026 924.163 586.059C925.853 584.092 925.285 582.785 926.354 581.558C927.872 579.815 929.456 580.937 931.027 579.076C932.611 577.215 931.7 575.697 932.888 574.509C934.076 573.321 936.835 573.888 936.162 570.852C935.489 567.816 931.37 568.199 929.509 569.664C928.044 570.826 928.044 572.819 926.526 574.166C925.18 575.354 923.648 574.958 921.853 576.594C920.045 578.231 920.56 580.317 919.319 581.663C918.078 583.01 916.388 582.006 914.474 584.145C912.481 586.376 913.511 587.577 911.597 588.989C910.303 589.926 907.307 589.544 907.874 592.527Z" fill="white"/>
<path d="M908.881 455.598L897.78 473.445C897.78 473.445 897.78 486.645 909.779 493.39C922.121 500.333 938.607 495.436 944.574 483.041C950.421 470.897 944.877 456.641 938.871 451.995C932.073 446.728 908.881 455.598 908.881 455.598Z" fill="black"/>
<path d="M912.298 447.695C903.335 451.972 898.108 459.998 897.355 468.089C897.104 470.822 897.355 473.211 897.355 473.211C897.355 473.211 901.051 486.002 917.327 487.071C934.83 488.232 942.974 477.329 943.489 465.37C943.898 455.879 938.618 451.51 938.618 451.51C938.618 451.51 936.229 448.289 930.936 446.639C928.679 445.913 920.798 443.656 912.298 447.695Z" fill="black"/>
<path d="M902.306 468.25C908.1 475.207 918.33 481.252 920.139 487.971C921.71 493.832 919.228 496.551 919.228 496.551C919.228 496.551 919.967 496.96 920.799 497.053C921.63 497.132 922.528 496.723 922.528 496.723C922.528 496.723 924.35 494.492 923.69 488.143C923.03 481.794 916.918 476.751 912.8 473.53C909.381 470.864 905.302 467.617 903.797 465.03C901.408 460.911 901.487 456.199 901.487 456.199C901.487 456.199 900.326 456.608 899.758 458.258C899.204 459.816 898.596 463.802 902.306 468.25ZM927.24 445.467C927.24 445.467 927.98 447.117 931.121 450.747C934.065 454.153 938.421 458.944 941.444 464.449C943.754 468.66 946.314 478.56 946.314 478.56C946.314 478.56 947.304 475.088 947.304 472.778C947.304 471.537 945.245 465.927 943.424 462.456C941.285 458.364 937.154 453.546 935.411 451.315C934.342 449.929 931.121 446.114 931.121 446.114C931.121 446.114 927.399 445.058 927.24 445.467Z" fill="white"/>
<rect width="211.2" height="79.2" transform="translate(868.804 221.766)" fill="white"/>
<path d="M871.054 245.718V237.686H908.899V245.718H894.792V283.766H885.162V245.718H871.054ZM925.69 284.441C922.135 284.441 919.075 283.721 916.51 282.281C913.96 280.826 911.995 278.771 910.615 276.116C909.235 273.446 908.545 270.288 908.545 266.643C908.545 263.088 909.235 259.968 910.615 257.283C911.995 254.598 913.937 252.506 916.442 251.006C918.962 249.506 921.917 248.756 925.307 248.756C927.587 248.756 929.71 249.123 931.675 249.858C933.655 250.578 935.38 251.666 936.85 253.121C938.335 254.576 939.49 256.406 940.315 258.611C941.14 260.801 941.552 263.366 941.552 266.306V268.938H912.37V262.998H932.53C932.53 261.618 932.23 260.396 931.63 259.331C931.03 258.266 930.197 257.433 929.132 256.833C928.082 256.218 926.86 255.911 925.465 255.911C924.01 255.911 922.72 256.248 921.595 256.923C920.485 257.583 919.615 258.476 918.985 259.601C918.355 260.711 918.032 261.948 918.017 263.313V268.961C918.017 270.671 918.332 272.148 918.962 273.393C919.607 274.638 920.515 275.598 921.685 276.273C922.855 276.948 924.242 277.286 925.847 277.286C926.912 277.286 927.887 277.136 928.772 276.836C929.657 276.536 930.415 276.086 931.045 275.486C931.675 274.886 932.155 274.151 932.485 273.281L941.35 273.866C940.9 275.996 939.977 277.856 938.582 279.446C937.202 281.021 935.417 282.251 933.227 283.136C931.052 284.006 928.54 284.441 925.69 284.441ZM957.392 263.786V283.766H947.807V249.206H956.942V255.303H957.347C958.112 253.293 959.395 251.703 961.195 250.533C962.995 249.348 965.177 248.756 967.742 248.756C970.142 248.756 972.235 249.281 974.02 250.331C975.805 251.381 977.192 252.881 978.182 254.831C979.172 256.766 979.667 259.076 979.667 261.761V283.766H970.082V263.471C970.097 261.356 969.557 259.706 968.462 258.521C967.367 257.321 965.86 256.721 963.94 256.721C962.65 256.721 961.51 256.998 960.52 257.553C959.545 258.108 958.78 258.918 958.225 259.983C957.685 261.033 957.407 262.301 957.392 263.786ZM996.807 263.786V283.766H987.222V249.206H996.357V255.303H996.762C997.527 253.293 998.809 251.703 1000.61 250.533C1002.41 249.348 1004.59 248.756 1007.16 248.756C1009.56 248.756 1011.65 249.281 1013.43 250.331C1015.22 251.381 1016.61 252.881 1017.6 254.831C1018.59 256.766 1019.08 259.076 1019.08 261.761V283.766H1009.5V263.471C1009.51 261.356 1008.97 259.706 1007.88 258.521C1006.78 257.321 1005.27 256.721 1003.35 256.721C1002.06 256.721 1000.92 256.998 999.934 257.553C998.959 258.108 998.194 258.918 997.639 259.983C997.099 261.033 996.822 262.301 996.807 263.786ZM1026.64 283.766V249.206H1036.22V283.766H1026.64ZM1031.45 244.751C1030.03 244.751 1028.8 244.278 1027.78 243.333C1026.78 242.373 1026.28 241.226 1026.28 239.891C1026.28 238.571 1026.78 237.438 1027.78 236.493C1028.8 235.533 1030.03 235.053 1031.45 235.053C1032.88 235.053 1034.09 235.533 1035.1 236.493C1036.12 237.438 1036.63 238.571 1036.63 239.891C1036.63 241.226 1036.12 242.373 1035.1 243.333C1034.09 244.278 1032.88 244.751 1031.45 244.751ZM1072.65 259.061L1063.88 259.601C1063.73 258.851 1063.41 258.176 1062.91 257.576C1062.42 256.961 1061.76 256.473 1060.95 256.113C1060.16 255.738 1059.21 255.551 1058.1 255.551C1056.61 255.551 1055.36 255.866 1054.34 256.496C1053.32 257.111 1052.81 257.936 1052.81 258.971C1052.81 259.796 1053.14 260.493 1053.8 261.063C1054.46 261.633 1055.59 262.091 1057.2 262.436L1063.45 263.696C1066.81 264.386 1069.32 265.496 1070.97 267.026C1072.62 268.556 1073.44 270.566 1073.44 273.056C1073.44 275.321 1072.77 277.308 1071.44 279.018C1070.12 280.728 1068.3 282.063 1065.99 283.023C1063.7 283.968 1061.05 284.441 1058.05 284.441C1053.48 284.441 1049.83 283.488 1047.12 281.583C1044.42 279.663 1042.83 277.053 1042.37 273.753L1051.8 273.258C1052.08 274.653 1052.77 275.718 1053.87 276.453C1054.96 277.173 1056.36 277.533 1058.07 277.533C1059.75 277.533 1061.1 277.211 1062.12 276.566C1063.16 275.906 1063.68 275.058 1063.7 274.023C1063.68 273.153 1063.32 272.441 1062.6 271.886C1061.88 271.316 1060.77 270.881 1059.27 270.581L1053.28 269.388C1049.91 268.713 1047.39 267.543 1045.74 265.878C1044.11 264.213 1043.29 262.091 1043.29 259.511C1043.29 257.291 1043.89 255.378 1045.09 253.773C1046.31 252.168 1048.01 250.931 1050.2 250.061C1052.4 249.191 1054.98 248.756 1057.94 248.756C1062.3 248.756 1065.74 249.678 1068.24 251.523C1070.76 253.368 1072.23 255.881 1072.65 259.061Z" fill="black"/>
</g>
<rect x="5.28" y="5.28" width="1943.04" height="1045.44" stroke="black" stroke-width="10.56"/>
<defs>
<clipPath id="clip0_617_2434">
<rect width="1953.6" height="1056" fill="white"/>
</clipPath>
</defs>
</svg>
